Istok Web-Regular.ufo
<glyph name="exclam" format="1">
  <advance width="293"/>
  <unicode hex="0021"/>
  <outline>
    <contour>
      <point x="121" y="700" type="line" smooth="yes"/>
      <point x="105" y="700"/>
      <point x="96" y="691"/>
      <point x="97" y="673" type="curve"/>
      <point x="107" y="212" type="line" smooth="yes"/>
      <point x="107" y="197"/>
      <point x="114" y="190"/>
      <point x="129" y="190" type="curve" smooth="yes"/>
      <point x="164" y="190" type="line" smooth="yes"/>
      <point x="179" y="190"/>
      <point x="186" y="197"/>
      <point x="186" y="212" type="curve" smooth="yes"/>
      <point x="196" y="673" type="line" smooth="yes"/>
      <point x="196" y="691"/>
      <point x="188" y="700"/>
      <point x="172" y="700" type="curve" smooth="yes"/>
    </contour>
    <contour>
      <point x="97" y="22" type="line" smooth="yes"/>
      <point x="97" y="7"/>
      <point x="104" y="0"/>
      <point x="119" y="0" type="curve" smooth="yes"/>
      <point x="174" y="0" type="line" smooth="yes"/>
      <point x="189" y="0"/>
      <point x="196" y="7"/>
      <point x="196" y="22" type="curve" smooth="yes"/>
      <point x="196" y="82" type="line" smooth="yes"/>
      <point x="196" y="97"/>
      <point x="189" y="104"/>
      <point x="174" y="104" type="curve" smooth="yes"/>
      <point x="119" y="104" type="line" smooth="yes"/>
      <point x="104" y="104"/>
      <point x="97" y="97"/>
      <point x="97" y="82" type="curve" smooth="yes"/>
    </contour>
  </outline>
</glyph>
<glyph name="numbersign" format="1">
  <advance width="679"/>
  <unicode hex="0023"/>
  <outline>
    <contour>
      <point x="43" y="200" type="line"/>
      <point x="43" y="199"/>
      <point x="43" y="197"/>
      <point x="43" y="196" type="curve" smooth="yes"/>
      <point x="43" y="188"/>
      <point x="49" y="183"/>
      <point x="62" y="183" type="curve" smooth="yes"/>
      <point x="167" y="183" type="line"/>
      <point x="139" y="22" type="line" smooth="yes"/>
      <point x="138" y="19"/>
      <point x="138" y="16"/>
      <point x="138" y="14" type="curve" smooth="yes"/>
      <point x="138" y="4"/>
      <point x="143" y="0"/>
      <point x="152" y="0" type="curve" smooth="yes"/>
      <point x="182" y="0" type="line" smooth="yes"/>
      <point x="194" y="0"/>
      <point x="200" y="7"/>
      <point x="203" y="22" type="curve" smooth="yes"/>
      <point x="231" y="183" type="line"/>
      <point x="396" y="183" type="line"/>
      <point x="367" y="22" type="line" smooth="yes"/>
      <point x="367" y="19"/>
      <point x="366" y="17"/>
      <point x="366" y="15" type="curve" smooth="yes"/>
      <point x="366" y="5"/>
      <point x="371" y="0"/>
      <point x="380" y="0" type="curve" smooth="yes"/>
      <point x="411" y="0" type="line" smooth="yes"/>
      <point x="422" y="0"/>
      <point x="429" y="7"/>
      <point x="432" y="22" type="curve" smooth="yes"/>
      <point x="460" y="183" type="line"/>
      <point x="565" y="183" type="line" smooth="yes"/>
      <point x="580" y="183"/>
      <point x="588" y="189"/>
      <point x="590" y="200" type="curve" smooth="yes"/>
      <point x="594" y="225" type="line"/>
      <point x="594" y="226"/>
      <point x="594" y="227"/>
      <point x="594" y="229" type="curve" smooth="yes"/>
      <point x="594" y="237"/>
      <point x="588" y="242"/>
      <point x="575" y="242" type="curve" smooth="yes"/>
      <point x="470" y="242" type="line"/>
      <point x="507" y="453" type="line"/>
      <point x="612" y="453" type="line" smooth="yes"/>
      <point x="627" y="453"/>
      <point x="636" y="459"/>
      <point x="638" y="470" type="curve" smooth="yes"/>
      <point x="642" y="494" type="line"/>
      <point x="642" y="495"/>
      <point x="642" y="496"/>
      <point x="642" y="498" type="curve" smooth="yes"/>
      <point x="642" y="506"/>
      <point x="636" y="511"/>
      <point x="623" y="511" type="curve" smooth="yes"/>
      <point x="518" y="511" type="line"/>
      <point x="546" y="672" type="line" smooth="yes"/>
      <point x="546" y="675"/>
      <point x="547" y="677"/>
      <point x="547" y="680" type="curve" smooth="yes"/>
      <point x="547" y="689"/>
      <point x="542" y="694"/>
      <point x="533" y="694" type="curve" smooth="yes"/>
      <point x="503" y="694" type="line" smooth="yes"/>
      <point x="490" y="694"/>
      <point x="484" y="687"/>
      <point x="482" y="672" type="curve" smooth="yes"/>
      <point x="454" y="511" type="line"/>
      <point x="290" y="511" type="line"/>
      <point x="318" y="672" type="line" smooth="yes"/>
      <point x="318" y="674"/>
      <point x="318" y="677"/>
      <point x="318" y="679" type="curve" smooth="yes"/>
      <point x="318" y="689"/>
      <point x="314" y="694"/>
      <point x="305" y="694" type="curve" smooth="yes"/>
      <point x="274" y="694" type="line" smooth="yes"/>
      <point x="263" y="694"/>
      <point x="255" y="687"/>
      <point x="253" y="672" type="curve" smooth="yes"/>
      <point x="225" y="511" type="line"/>
      <point x="120" y="511" type="line" smooth="yes"/>
      <point x="105" y="511"/>
      <point x="97" y="505"/>
      <point x="95" y="494" type="curve" smooth="yes"/>
      <point x="91" y="470" type="line" smooth="yes"/>
      <point x="91" y="468"/>
      <point x="90" y="467"/>
      <point x="90" y="466" type="curve" smooth="yes"/>
      <point x="90" y="457"/>
      <point x="97" y="453"/>
      <point x="109" y="453" type="curve" smooth="yes"/>
      <point x="214" y="453" type="line"/>
      <point x="177" y="242" type="line"/>
      <point x="72" y="242" type="line" smooth="yes"/>
      <point x="57" y="242"/>
      <point x="49" y="236"/>
      <point x="47" y="225" type="curve" smooth="yes"/>
    </contour>
    <contour>
      <point x="279" y="453" type="line"/>
      <point x="443" y="453" type="line"/>
      <point x="406" y="242" type="line"/>
      <point x="242" y="242" type="line"/>
    </contour>
  </outline>
</glyph>
<glyph name="dollar" format="1">
  <advance width="542"/>
  <unicode hex="0024"/>
  <outline>
    <contour>
      <point x="57" y="28"/>
      <point x="182" y="-14"/>
      <point x="260" y="-14" type="curve"/>
      <point x="260" y="-81" type="line" smooth="yes"/>
      <point x="260" y="-96"/>
      <point x="266" y="-103"/>
      <point x="277" y="-103" type="curve" smooth="yes"/>
      <point x="301" y="-103" type="line" smooth="yes"/>
      <point x="312" y="-103"/>
      <point x="318" y="-96"/>
      <point x="318" y="-81" type="curve" smooth="yes"/>
      <point x="318" y="-13" type="line"/>
      <point x="462" y="2"/>
      <point x="504" y="102"/>
      <point x="504" y="189" type="curve" smooth="yes"/>
      <point x="504" y="289"/>
      <point x="430" y="356"/>
      <point x="318" y="395" type="curve"/>
      <point x="318" y="633" type="line"/>
      <point x="329" y="633"/>
      <point x="378" y="619"/>
      <point x="400" y="596" type="curve" smooth="yes"/>
      <point x="410" y="585"/>
      <point x="419" y="579"/>
      <point x="428" y="579" type="curve" smooth="yes"/>
      <point x="434" y="579"/>
      <point x="439" y="582"/>
      <point x="444" y="589" type="curve" smooth="yes"/>
      <point x="465" y="620" type="line" smooth="yes"/>
      <point x="467" y="623"/>
      <point x="468" y="627"/>
      <point x="468" y="630" type="curve" smooth="yes"/>
      <point x="468" y="670"/>
      <point x="370" y="708"/>
      <point x="318" y="708" type="curve"/>
      <point x="318" y="767" type="line" smooth="yes"/>
      <point x="318" y="782"/>
      <point x="312" y="789"/>
      <point x="301" y="789" type="curve" smooth="yes"/>
      <point x="277" y="789" type="line" smooth="yes"/>
      <point x="266" y="789"/>
      <point x="260" y="782"/>
      <point x="260" y="767" type="curve" smooth="yes"/>
      <point x="260" y="708" type="line"/>
      <point x="153" y="698"/>
      <point x="79" y="625"/>
      <point x="79" y="545" type="curve" smooth="yes"/>
      <point x="79" y="470"/>
      <point x="91" y="368"/>
      <point x="260" y="318" type="curve"/>
      <point x="260" y="59" type="line"/>
      <point x="202" y="63"/>
      <point x="169" y="71"/>
      <point x="123" y="111" type="curve" smooth="yes"/>
      <point x="113" y="119"/>
      <point x="105" y="124"/>
      <point x="98" y="124" type="curve" smooth="yes"/>
      <point x="91" y="124"/>
      <point x="86" y="121"/>
      <point x="81" y="114" type="curve" smooth="yes"/>
      <point x="61" y="88" type="line" smooth="yes"/>
      <point x="58" y="85"/>
      <point x="57" y="81"/>
      <point x="57" y="76" type="curve" smooth="yes"/>
    </contour>
    <contour>
      <point x="186" y="456"/>
      <point x="170" y="487"/>
      <point x="170" y="539" type="curve" smooth="yes"/>
      <point x="170" y="606"/>
      <point x="224" y="632"/>
      <point x="260" y="634" type="curve"/>
      <point x="260" y="417" type="line"/>
      <point x="248" y="422"/>
      <point x="238" y="427"/>
      <point x="229" y="432" type="curve" smooth="yes"/>
    </contour>
    <contour>
      <point x="363" y="78"/>
      <point x="342" y="67"/>
      <point x="318" y="62" type="curve"/>
      <point x="318" y="299" type="line"/>
      <point x="361" y="287"/>
      <point x="408" y="245"/>
      <point x="408" y="182" type="curve" smooth="yes"/>
      <point x="408" y="142"/>
      <point x="399" y="113"/>
      <point x="382" y="96" type="curve" smooth="yes"/>
    </contour>
  </outline>
</glyph>
<glyph name="ampersand" format="1">
  <advance width="675"/>
  <unicode hex="0026"/>
  <outline>
    <contour>
      <point x="67" y="228"/>
      <point x="59" y="193"/>
      <point x="59" y="159" type="curve" smooth="yes"/>
      <point x="59" y="56"/>
      <point x="144" y="-15"/>
      <point x="253" y="-15" type="curve" smooth="yes"/>
      <point x="361" y="-15"/>
      <point x="418" y="22"/>
      <point x="482" y="84" type="curve"/>
      <point x="536" y="21" type="line" smooth="yes"/>
      <point x="547" y="7"/>
      <point x="562" y="0"/>
      <point x="582" y="0" type="curve" smooth="yes"/>
      <point x="631" y="0" type="line" smooth="yes"/>
      <point x="644" y="0"/>
      <point x="650" y="3"/>
      <point x="650" y="9" type="curve" smooth="yes"/>
      <point x="650" y="14"/>
      <point x="647" y="21"/>
      <point x="640" y="28" type="curve"/>
      <point x="542" y="145" type="line"/>
      <point x="569" y="174"/>
      <point x="618" y="245"/>
      <point x="637" y="300" type="curve" smooth="yes"/>
      <point x="638" y="302"/>
      <point x="638" y="305"/>
      <point x="638" y="309" type="curve" smooth="yes"/>
      <point x="638" y="318"/>
      <point x="633" y="323"/>
      <point x="623" y="326" type="curve" smooth="yes"/>
      <point x="585" y="338" type="line" smooth="yes"/>
      <point x="582" y="339"/>
      <point x="580" y="339"/>
      <point x="578" y="339" type="curve" smooth="yes"/>
      <point x="550" y="339"/>
      <point x="572" y="290"/>
      <point x="492" y="204" type="curve"/>
      <point x="339" y="387" type="line"/>
      <point x="423" y="451"/>
      <point x="469" y="511"/>
      <point x="469" y="576" type="curve" smooth="yes"/>
      <point x="469" y="685"/>
      <point x="380" y="715"/>
      <point x="311" y="715" type="curve" smooth="yes"/>
      <point x="191" y="715"/>
      <point x="140" y="645"/>
      <point x="140" y="568" type="curve" smooth="yes"/>
      <point x="140" y="488"/>
      <point x="189" y="432"/>
      <point x="218" y="399" type="curve"/>
      <point x="145" y="346"/>
      <point x="100" y="301"/>
      <point x="83" y="264" type="curve" smooth="yes"/>
    </contour>
    <contour>
      <point x="235" y="521"/>
      <point x="228" y="545"/>
      <point x="228" y="573" type="curve" smooth="yes"/>
      <point x="228" y="617"/>
      <point x="257" y="647"/>
      <point x="305" y="647" type="curve" smooth="yes"/>
      <point x="356" y="647"/>
      <point x="381" y="615"/>
      <point x="381" y="579" type="curve" smooth="yes"/>
      <point x="381" y="532"/>
      <point x="361" y="507"/>
      <point x="289" y="445" type="curve"/>
      <point x="278" y="457"/>
      <point x="265" y="475"/>
      <point x="250" y="500" type="curve"/>
    </contour>
    <contour>
      <point x="163" y="105"/>
      <point x="154" y="130"/>
      <point x="154" y="160" type="curve" smooth="yes"/>
      <point x="154" y="237"/>
      <point x="175" y="269"/>
      <point x="268" y="341" type="curve"/>
      <point x="433" y="143" type="line"/>
      <point x="387" y="95"/>
      <point x="315" y="56"/>
      <point x="264" y="56" type="curve" smooth="yes"/>
      <point x="228" y="56"/>
      <point x="200" y="66"/>
      <point x="181" y="85" type="curve"/>
    </contour>
  </outline>
</glyph>
<glyph name="quotesingle" format="1">
  <advance width="233"/>
  <unicode hex="0027"/>
  <outline>
    <contour>
      <point x="75" y="690" type="line"/>
      <point x="85" y="424" type="line"/>
      <point x="85" y="409"/>
      <point x="90" y="402"/>
      <point x="102" y="402" type="curve" smooth="yes"/>
      <point x="133" y="402" type="line" smooth="yes"/>
      <point x="144" y="402"/>
      <point x="149" y="409"/>
      <point x="150" y="424" type="curve" smooth="yes"/>
      <point x="161" y="690" type="line" smooth="yes"/>
      <point x="162" y="708"/>
      <point x="154" y="717"/>
      <point x="143" y="717" type="curve" smooth="yes"/>
      <point x="92" y="717" type="line" smooth="yes"/>
      <point x="81" y="717"/>
      <point x="75" y="709"/>
      <point x="75" y="694" type="curve" smooth="yes"/>
    </contour>
  </outline>
</glyph>
<glyph name="parenleft" format="1">
  <advance width="327"/>
  <unicode hex="0028"/>
  <outline>
    <contour>
      <point x="78" y="453"/>
      <point x="61" y="365"/>
      <point x="61" y="266" type="curve" smooth="yes"/>
      <point x="61" y="69"/>
      <point x="132" y="-78"/>
      <point x="240" y="-198" type="curve" smooth="yes"/>
      <point x="248" y="-207"/>
      <point x="255" y="-212"/>
      <point x="262" y="-212" type="curve" smooth="yes"/>
      <point x="265" y="-212"/>
      <point x="269" y="-211"/>
      <point x="273" y="-208" type="curve" smooth="yes"/>
      <point x="290" y="-194" type="line" smooth="yes"/>
      <point x="295" y="-191"/>
      <point x="297" y="-187"/>
      <point x="297" y="-182" type="curve" smooth="yes"/>
      <point x="297" y="-177"/>
      <point x="294" y="-171"/>
      <point x="289" y="-166" type="curve" smooth="yes"/>
      <point x="228" y="-100"/>
      <point x="156" y="52"/>
      <point x="156" y="266" type="curve" smooth="yes"/>
      <point x="156" y="478"/>
      <point x="230" y="634"/>
      <point x="289" y="697" type="curve" smooth="yes"/>
      <point x="294" y="702"/>
      <point x="297" y="708"/>
      <point x="297" y="713" type="curve" smooth="yes"/>
      <point x="297" y="718"/>
      <point x="295" y="722"/>
      <point x="290" y="726" type="curve" smooth="yes"/>
      <point x="273" y="739" type="line" smooth="yes"/>
      <point x="269" y="742"/>
      <point x="265" y="743"/>
      <point x="262" y="743" type="curve" smooth="yes"/>
      <point x="255" y="743"/>
      <point x="248" y="738"/>
      <point x="240" y="729" type="curve" smooth="yes"/>
      <point x="187" y="670"/>
      <point x="144" y="604"/>
      <point x="111" y="529" type="curve" smooth="yes"/>
    </contour>
  </outline>
</glyph>
<glyph name="parenright" format="1">
  <advance width="327"/>
  <unicode hex="0029"/>
  <outline>
    <contour>
      <point x="45" y="-187"/>
      <point x="47" y="-191"/>
      <point x="52" y="-194" type="curve" smooth="yes"/>
      <point x="69" y="-208" type="line" smooth="yes"/>
      <point x="73" y="-211"/>
      <point x="77" y="-212"/>
      <point x="80" y="-212" type="curve" smooth="yes"/>
      <point x="85" y="-212"/>
      <point x="95" y="-207"/>
      <point x="103" y="-198" type="curve" smooth="yes"/>
      <point x="209" y="-79"/>
      <point x="282" y="68"/>
      <point x="282" y="266" type="curve" smooth="yes"/>
      <point x="282" y="464"/>
      <point x="208" y="611"/>
      <point x="103" y="729" type="curve" smooth="yes"/>
      <point x="94" y="738"/>
      <point x="85" y="742"/>
      <point x="80" y="743" type="curve" smooth="yes"/>
      <point x="77" y="743"/>
      <point x="73" y="742"/>
      <point x="69" y="739" type="curve" smooth="yes"/>
      <point x="52" y="726" type="line" smooth="yes"/>
      <point x="47" y="722"/>
      <point x="45" y="718"/>
      <point x="45" y="713" type="curve" smooth="yes"/>
      <point x="45" y="708"/>
      <point x="48" y="702"/>
      <point x="53" y="697" type="curve" smooth="yes"/>
      <point x="109" y="641"/>
      <point x="186" y="480"/>
      <point x="186" y="266" type="curve" smooth="yes"/>
      <point x="186" y="49"/>
      <point x="109" y="-106"/>
      <point x="53" y="-166" type="curve" smooth="yes"/>
      <point x="48" y="-171"/>
      <point x="45" y="-177"/>
      <point x="45" y="-182" type="curve" smooth="yes"/>
    </contour>
  </outline>
</glyph>
<glyph name="asterisk" format="1">
  <advance width="459"/>
  <unicode hex="002A"/>
  <outline>
    <contour>
      <point x="201" y="516" type="line"/>
      <point x="96" y="471" type="line" smooth="yes"/>
      <point x="78" y="463"/>
      <point x="69" y="454"/>
      <point x="69" y="440" type="curve" smooth="yes"/>
      <point x="69" y="435"/>
      <point x="71" y="428"/>
      <point x="76" y="419" type="curve" smooth="yes"/>
      <point x="79" y="415" type="line" smooth="yes"/>
      <point x="86" y="402"/>
      <point x="96" y="395"/>
      <point x="107" y="395" type="curve"/>
      <point x="113" y="396"/>
      <point x="123" y="398"/>
      <point x="134" y="406" type="curve" smooth="yes"/>
      <point x="225" y="474" type="line"/>
      <point x="212" y="361" type="line"/>
      <point x="211" y="358"/>
      <point x="211" y="355"/>
      <point x="211" y="351" type="curve" smooth="yes"/>
      <point x="211" y="329"/>
      <point x="223" y="318"/>
      <point x="247" y="318" type="curve" smooth="yes"/>
      <point x="252" y="318" type="line" smooth="yes"/>
      <point x="276" y="318"/>
      <point x="288" y="329"/>
      <point x="288" y="351" type="curve" smooth="yes"/>
      <point x="288" y="355"/>
      <point x="288" y="358"/>
      <point x="287" y="361" type="curve"/>
      <point x="274" y="474" type="line"/>
      <point x="365" y="406" type="line" smooth="yes"/>
      <point x="375" y="398"/>
      <point x="385" y="396"/>
      <point x="392" y="395" type="curve"/>
      <point x="403" y="395"/>
      <point x="413" y="402"/>
      <point x="420" y="415" type="curve" smooth="yes"/>
      <point x="423" y="419" type="line" smooth="yes"/>
      <point x="428" y="428"/>
      <point x="430" y="435"/>
      <point x="430" y="440" type="curve" smooth="yes"/>
      <point x="430" y="453"/>
      <point x="421" y="463"/>
      <point x="403" y="471" type="curve" smooth="yes"/>
      <point x="298" y="516" type="line"/>
      <point x="403" y="562" type="line" smooth="yes"/>
      <point x="421" y="570"/>
      <point x="430" y="578"/>
      <point x="430" y="592" type="curve" smooth="yes"/>
      <point x="430" y="597"/>
      <point x="428" y="604"/>
      <point x="423" y="613" type="curve" smooth="yes"/>
      <point x="420" y="618" type="line" smooth="yes"/>
      <point x="413" y="631"/>
      <point x="403" y="638"/>
      <point x="392" y="638" type="curve" smooth="yes"/>
      <point x="384" y="638"/>
      <point x="375" y="633"/>
      <point x="365" y="626" type="curve" smooth="yes"/>
      <point x="274" y="559" type="line"/>
      <point x="287" y="672" type="line"/>
      <point x="288" y="675"/>
      <point x="288" y="678"/>
      <point x="288" y="682" type="curve" smooth="yes"/>
      <point x="288" y="704"/>
      <point x="276" y="715"/>
      <point x="252" y="715" type="curve" smooth="yes"/>
      <point x="247" y="715" type="line" smooth="yes"/>
      <point x="223" y="715"/>
      <point x="211" y="704"/>
      <point x="211" y="682" type="curve" smooth="yes"/>
      <point x="211" y="678"/>
      <point x="211" y="675"/>
      <point x="212" y="672" type="curve"/>
      <point x="225" y="559" type="line"/>
      <point x="134" y="626" type="line" smooth="yes"/>
      <point x="124" y="633"/>
      <point x="115" y="638"/>
      <point x="107" y="638" type="curve" smooth="yes"/>
      <point x="96" y="638"/>
      <point x="86" y="631"/>
      <point x="79" y="618" type="curve" smooth="yes"/>
      <point x="76" y="613" type="line" smooth="yes"/>
      <point x="71" y="604"/>
      <point x="69" y="597"/>
      <point x="69" y="592" type="curve" smooth="yes"/>
      <point x="69" y="578"/>
      <point x="78" y="570"/>
      <point x="96" y="562" type="curve" smooth="yes"/>
    </contour>
  </outline>
</glyph>
<glyph name="plus" format="1">
  <advance width="625"/>
  <unicode hex="002B"/>
  <outline>
    <contour>
      <point x="39" y="342" type="line" smooth="yes"/>
      <point x="39" y="331"/>
      <point x="46" y="325"/>
      <point x="61" y="325" type="curve" smooth="yes"/>
      <point x="283" y="325" type="line"/>
      <point x="283" y="103" type="line" smooth="yes"/>
      <point x="283" y="88"/>
      <point x="289" y="81"/>
      <point x="300" y="81" type="curve" smooth="yes"/>
      <point x="324" y="81" type="line" smooth="yes"/>
      <point x="335" y="81"/>
      <point x="341" y="88"/>
      <point x="341" y="103" type="curve" smooth="yes"/>
      <point x="341" y="325" type="line"/>
      <point x="564" y="325" type="line" smooth="yes"/>
      <point x="579" y="325"/>
      <point x="586" y="331"/>
      <point x="586" y="342" type="curve" smooth="yes"/>
      <point x="586" y="366" type="line" smooth="yes"/>
      <point x="586" y="377"/>
      <point x="579" y="383"/>
      <point x="564" y="383" type="curve" smooth="yes"/>
      <point x="341" y="383" type="line"/>
      <point x="341" y="605" type="line" smooth="yes"/>
      <point x="341" y="620"/>
      <point x="335" y="627"/>
      <point x="324" y="627" type="curve" smooth="yes"/>
      <point x="300" y="627" type="line" smooth="yes"/>
      <point x="289" y="627"/>
      <point x="283" y="620"/>
      <point x="283" y="605" type="curve" smooth="yes"/>
      <point x="283" y="383" type="line"/>
      <point x="61" y="383" type="line" smooth="yes"/>
      <point x="46" y="383"/>
      <point x="39" y="377"/>
      <point x="39" y="366" type="curve" smooth="yes"/>
    </contour>
  </outline>
</glyph>
<glyph name="comma" format="1">
  <advance width="293"/>
  <unicode hex="002C"/>
  <outline>
    <contour>
      <point x="97" y="22" type="line" smooth="yes"/>
      <point x="97" y="7"/>
      <point x="104" y="0"/>
      <point x="119" y="0" type="curve" smooth="yes"/>
      <point x="145" y="0" type="line"/>
      <point x="145" y="-40"/>
      <point x="130" y="-81"/>
      <point x="107" y="-100" type="curve" smooth="yes"/>
      <point x="103" y="-103"/>
      <point x="101" y="-107"/>
      <point x="101" y="-110" type="curve" smooth="yes"/>
      <point x="101" y="-113"/>
      <point x="102" y="-115"/>
      <point x="104" y="-117" type="curve" smooth="yes"/>
      <point x="125" y="-137" type="line" smooth="yes"/>
      <point x="127" y="-139"/>
      <point x="129" y="-140"/>
      <point x="132" y="-140" type="curve" smooth="yes"/>
      <point x="135" y="-140"/>
      <point x="139" y="-139"/>
      <point x="144" y="-135" type="curve" smooth="yes"/>
      <point x="185" y="-98"/>
      <point x="198" y="-51"/>
      <point x="198" y="22" type="curve" smooth="yes"/>
      <point x="198" y="82" type="line" smooth="yes"/>
      <point x="198" y="97"/>
      <point x="191" y="104"/>
      <point x="176" y="104" type="curve" smooth="yes"/>
      <point x="119" y="104" type="line" smooth="yes"/>
      <point x="104" y="104"/>
      <point x="97" y="97"/>
      <point x="97" y="82" type="curve" smooth="yes"/>
    </contour>
  </outline>
</glyph>
<glyph name="hyphen" format="1">
  <advance width="332"/>
  <unicode hex="002D"/>
  <outline>
    <contour>
      <point x="27" y="253" type="line" smooth="yes"/>
      <point x="27" y="242"/>
      <point x="34" y="236"/>
      <point x="49" y="236" type="curve" smooth="yes"/>
      <point x="283" y="236" type="line" smooth="yes"/>
      <point x="298" y="236"/>
      <point x="305" y="242"/>
      <point x="305" y="253" type="curve" smooth="yes"/>
      <point x="305" y="287" type="line" smooth="yes"/>
      <point x="305" y="298"/>
      <point x="298" y="304"/>
      <point x="283" y="304" type="curve" smooth="yes"/>
      <point x="49" y="304" type="line" smooth="yes"/>
      <point x="34" y="304"/>
      <point x="27" y="298"/>
      <point x="27" y="287" type="curve" smooth="yes"/>
    </contour>
  </outline>
</glyph>
<glyph name="period" format="1">
  <advance width="293"/>
  <unicode hex="002E"/>
  <outline>
    <contour>
      <point x="97" y="22" type="line" smooth="yes"/>
      <point x="97" y="7"/>
      <point x="104" y="0"/>
      <point x="119" y="0" type="curve" smooth="yes"/>
      <point x="174" y="0" type="line" smooth="yes"/>
      <point x="189" y="0"/>
      <point x="196" y="7"/>
      <point x="196" y="22" type="curve" smooth="yes"/>
      <point x="196" y="82" type="line" smooth="yes"/>
      <point x="196" y="97"/>
      <point x="189" y="104"/>
      <point x="174" y="104" type="curve" smooth="yes"/>
      <point x="119" y="104" type="line" smooth="yes"/>
      <point x="104" y="104"/>
      <point x="97" y="97"/>
      <point x="97" y="82" type="curve" smooth="yes"/>
    </contour>
  </outline>
</glyph>
<glyph name="slash" format="1">
  <advance width="410"/>
  <unicode hex="002F"/>
  <outline>
    <contour>
      <point x="9" y="-183"/>
      <point x="13" y="-188"/>
      <point x="20" y="-191" type="curve" smooth="yes"/>
      <point x="42" y="-200" type="line" smooth="yes"/>
      <point x="44" y="-201"/>
      <point x="47" y="-201"/>
      <point x="49" y="-201" type="curve" smooth="yes"/>
      <point x="56" y="-201"/>
      <point x="62" y="-196"/>
      <point x="66" y="-186" type="curve" smooth="yes"/>
      <point x="415" y="679" type="line" smooth="yes"/>
      <point x="417" y="684"/>
      <point x="418" y="689"/>
      <point x="418" y="692" type="curve" smooth="yes"/>
      <point x="418" y="699"/>
      <point x="415" y="703"/>
      <point x="408" y="706" type="curve" smooth="yes"/>
      <point x="386" y="715" type="line" smooth="yes"/>
      <point x="383" y="716"/>
      <point x="381" y="716"/>
      <point x="378" y="716" type="curve" smooth="yes"/>
      <point x="370" y="716"/>
      <point x="365" y="711"/>
      <point x="361" y="701" type="curve" smooth="yes"/>
      <point x="12" y="-164" type="line" smooth="yes"/>
      <point x="10" y="-168"/>
      <point x="9" y="-172"/>
      <point x="9" y="-176" type="curve" smooth="yes"/>
    </contour>
  </outline>
</glyph>
<glyph name="zero" format="1">
  <advance width="542"/>
  <unicode hex="0030"/>
  <outline>
    <contour>
      <point x="61" y="549"/>
      <point x="45" y="460"/>
      <point x="45" y="347" type="curve" smooth="yes"/>
      <point x="45" y="125"/>
      <point x="93" y="-15"/>
      <point x="271" y="-15" type="curve" smooth="yes"/>
      <point x="449" y="-15"/>
      <point x="497" y="125"/>
      <point x="497" y="347" type="curve" smooth="yes"/>
      <point x="497" y="570"/>
      <point x="448" y="709"/>
      <point x="271" y="709" type="curve" smooth="yes"/>
      <point x="184" y="709"/>
      <point x="124" y="677"/>
      <point x="92" y="613" type="curve" smooth="yes"/>
    </contour>
    <contour>
      <point x="144" y="185"/>
      <point x="136" y="256"/>
      <point x="136" y="347" type="curve" smooth="yes"/>
      <point x="136" y="528"/>
      <point x="153" y="639"/>
      <point x="271" y="639" type="curve" smooth="yes"/>
      <point x="389" y="639"/>
      <point x="406" y="528"/>
      <point x="406" y="347" type="curve" smooth="yes"/>
      <point x="406" y="171"/>
      <point x="391" y="56"/>
      <point x="271" y="56" type="curve" smooth="yes"/>
      <point x="212" y="56"/>
      <point x="175" y="82"/>
      <point x="160" y="133" type="curve" smooth="yes"/>
    </contour>
  </outline>
</glyph>
<glyph name="one" format="1">
  <advance width="404"/>
  <unicode hex="0031"/>
  <outline>
    <contour>
      <point x="83" y="569"/>
      <point x="84" y="566"/>
      <point x="85" y="562" type="curve" smooth="yes"/>
      <point x="100" y="526" type="line" smooth="yes"/>
      <point x="103" y="519"/>
      <point x="108" y="515"/>
      <point x="115" y="515" type="curve" smooth="yes"/>
      <point x="140" y="515"/>
      <point x="196" y="553"/>
      <point x="227" y="586" type="curve"/>
      <point x="228" y="586" type="line"/>
      <point x="227" y="580"/>
      <point x="227" y="570"/>
      <point x="227" y="557" type="curve" smooth="yes"/>
      <point x="227" y="22" type="line" smooth="yes"/>
      <point x="227" y="7"/>
      <point x="234" y="0"/>
      <point x="249" y="0" type="curve" smooth="yes"/>
      <point x="291" y="0" type="line" smooth="yes"/>
      <point x="306" y="0"/>
      <point x="313" y="7"/>
      <point x="313" y="22" type="curve" smooth="yes"/>
      <point x="313" y="681" type="line" smooth="yes"/>
      <point x="313" y="696"/>
      <point x="305" y="703"/>
      <point x="290" y="703" type="curve" smooth="yes"/>
      <point x="249" y="703" type="line" smooth="yes"/>
      <point x="228" y="703"/>
      <point x="216" y="676"/>
      <point x="168" y="630" type="curve" smooth="yes"/>
      <point x="143" y="606"/>
      <point x="83" y="580"/>
      <point x="83" y="570" type="curve"/>
    </contour>
  </outline>
</glyph>
<glyph name="two" format="1">
  <advance width="542"/>
  <unicode hex="0032"/>
  <outline>
    <contour>
      <point x="46" y="22" type="line" smooth="yes"/>
      <point x="46" y="7"/>
      <point x="55" y="0"/>
      <point x="73" y="0" type="curve" smooth="yes"/>
      <point x="469" y="0" type="line" smooth="yes"/>
      <point x="487" y="0"/>
      <point x="496" y="7"/>
      <point x="496" y="22" type="curve" smooth="yes"/>
      <point x="496" y="58" type="line" smooth="yes"/>
      <point x="496" y="73"/>
      <point x="487" y="80"/>
      <point x="469" y="80" type="curve" smooth="yes"/>
      <point x="203" y="80" type="line" smooth="yes"/>
      <point x="182" y="80"/>
      <point x="169" y="80"/>
      <point x="164" y="79" type="curve"/>
      <point x="164" y="81" type="line"/>
      <point x="324" y="237" type="line" smooth="yes"/>
      <point x="429" y="339"/>
      <point x="488" y="400"/>
      <point x="488" y="510" type="curve" smooth="yes"/>
      <point x="488" y="619"/>
      <point x="420" y="709"/>
      <point x="267" y="709" type="curve" smooth="yes"/>
      <point x="144" y="709"/>
      <point x="51" y="615"/>
      <point x="51" y="524" type="curve" smooth="yes"/>
      <point x="51" y="513"/>
      <point x="54" y="506"/>
      <point x="61" y="504" type="curve" smooth="yes"/>
      <point x="99" y="493" type="line" smooth="yes"/>
      <point x="102" y="492"/>
      <point x="104" y="492"/>
      <point x="106" y="492" type="curve" smooth="yes"/>
      <point x="117" y="492"/>
      <point x="124" y="499"/>
      <point x="128" y="515" type="curve" smooth="yes"/>
      <point x="147" y="600"/>
      <point x="196" y="636"/>
      <point x="271" y="636" type="curve" smooth="yes"/>
      <point x="353" y="636"/>
      <point x="392" y="579"/>
      <point x="392" y="513" type="curve" smooth="yes"/>
      <point x="391" y="432"/>
      <point x="375" y="394"/>
      <point x="254" y="273" type="curve" smooth="yes"/>
      <point x="63" y="81" type="line" smooth="yes"/>
      <point x="52" y="70"/>
      <point x="46" y="58"/>
      <point x="46" y="45" type="curve" smooth="yes"/>
    </contour>
  </outline>
</glyph>
<glyph name="three" format="1">
  <advance width="542"/>
  <unicode hex="0033"/>
  <outline>
    <contour>
      <point x="53" y="60"/>
      <point x="153" y="-15"/>
      <point x="261" y="-15" type="curve" smooth="yes"/>
      <point x="434" y="-15"/>
      <point x="507" y="72"/>
      <point x="507" y="204" type="curve" smooth="yes"/>
      <point x="507" y="296"/>
      <point x="425" y="368"/>
      <point x="359" y="378" type="curve"/>
      <point x="359" y="380" type="line"/>
      <point x="416" y="391"/>
      <point x="479" y="449"/>
      <point x="479" y="534" type="curve" smooth="yes"/>
      <point x="479" y="635"/>
      <point x="408" y="709"/>
      <point x="272" y="709" type="curve" smooth="yes"/>
      <point x="188" y="709"/>
      <point x="124" y="676"/>
      <point x="85" y="631" type="curve" smooth="yes"/>
      <point x="75" y="619"/>
      <point x="70" y="609"/>
      <point x="70" y="601" type="curve" smooth="yes"/>
      <point x="70" y="597"/>
      <point x="71" y="594"/>
      <point x="74" y="591" type="curve" smooth="yes"/>
      <point x="103" y="563" type="line" smooth="yes"/>
      <point x="108" y="558"/>
      <point x="112" y="556"/>
      <point x="117" y="556" type="curve" smooth="yes"/>
      <point x="134" y="556"/>
      <point x="169" y="636"/>
      <point x="271" y="636" type="curve" smooth="yes"/>
      <point x="346" y="636"/>
      <point x="388" y="593"/>
      <point x="388" y="540" type="curve" smooth="yes"/>
      <point x="388" y="462"/>
      <point x="330" y="409"/>
      <point x="257" y="409" type="curve" smooth="yes"/>
      <point x="223" y="409" type="line" smooth="yes"/>
      <point x="208" y="409"/>
      <point x="201" y="403"/>
      <point x="201" y="392" type="curve" smooth="yes"/>
      <point x="201" y="356" type="line" smooth="yes"/>
      <point x="201" y="345"/>
      <point x="208" y="340"/>
      <point x="223" y="340" type="curve" smooth="yes"/>
      <point x="266" y="340" type="line" smooth="yes"/>
      <point x="334" y="340"/>
      <point x="411" y="303"/>
      <point x="411" y="206" type="curve" smooth="yes"/>
      <point x="411" y="114"/>
      <point x="370" y="59"/>
      <point x="263" y="59" type="curve" smooth="yes"/>
      <point x="210" y="59"/>
      <point x="157" y="87"/>
      <point x="122" y="131" type="curve" smooth="yes"/>
      <point x="113" y="142"/>
      <point x="104" y="148"/>
      <point x="97" y="148" type="curve" smooth="yes"/>
      <point x="92" y="148"/>
      <point x="87" y="145"/>
      <point x="83" y="140" type="curve" smooth="yes"/>
      <point x="57" y="109" type="line" smooth="yes"/>
      <point x="54" y="106"/>
      <point x="53" y="102"/>
      <point x="53" y="97" type="curve" smooth="yes"/>
    </contour>
  </outline>
</glyph>
<glyph name="four" format="1">
  <advance width="542"/>
  <unicode hex="0034"/>
  <outline>
    <contour>
      <point x="31" y="195" type="line" smooth="yes"/>
      <point x="31" y="180"/>
      <point x="38" y="173"/>
      <point x="53" y="173" type="curve" smooth="yes"/>
      <point x="319" y="173" type="line"/>
      <point x="319" y="22" type="line" smooth="yes"/>
      <point x="319" y="7"/>
      <point x="326" y="0"/>
      <point x="341" y="0" type="curve" smooth="yes"/>
      <point x="383" y="0" type="line" smooth="yes"/>
      <point x="398" y="0"/>
      <point x="405" y="7"/>
      <point x="405" y="22" type="curve" smooth="yes"/>
      <point x="405" y="173" type="line"/>
      <point x="489" y="173" type="line" smooth="yes"/>
      <point x="504" y="173"/>
      <point x="511" y="180"/>
      <point x="511" y="195" type="curve" smooth="yes"/>
      <point x="511" y="231" type="line" smooth="yes"/>
      <point x="511" y="246"/>
      <point x="504" y="253"/>
      <point x="489" y="253" type="curve" smooth="yes"/>
      <point x="405" y="253" type="line"/>
      <point x="405" y="681" type="line" smooth="yes"/>
      <point x="405" y="696"/>
      <point x="398" y="703"/>
      <point x="383" y="703" type="curve" smooth="yes"/>
      <point x="338" y="703" type="line" smooth="yes"/>
      <point x="327" y="703"/>
      <point x="318" y="697"/>
      <point x="311" y="686" type="curve" smooth="yes"/>
      <point x="43" y="271" type="line" smooth="yes"/>
      <point x="35" y="259"/>
      <point x="31" y="248"/>
      <point x="31" y="238" type="curve" smooth="yes"/>
    </contour>
    <contour>
      <point x="119" y="253" type="line"/>
      <point x="320" y="563" type="line"/>
      <point x="320" y="253" type="line"/>
    </contour>
  </outline>
</glyph>
<glyph name="five" format="1">
  <advance width="542"/>
  <unicode hex="0035"/>
  <outline>
    <contour>
      <point x="59" y="70"/>
      <point x="147" y="-15"/>
      <point x="268" y="-15" type="curve" smooth="yes"/>
      <point x="413" y="-15"/>
      <point x="503" y="71"/>
      <point x="503" y="213" type="curve" smooth="yes"/>
      <point x="503" y="348"/>
      <point x="426" y="433"/>
      <point x="307" y="433" type="curve" smooth="yes"/>
      <point x="267" y="433"/>
      <point x="211" y="422"/>
      <point x="175" y="392" type="curve"/>
      <point x="173" y="392" type="line"/>
      <point x="174" y="399"/>
      <point x="174" y="408"/>
      <point x="174" y="421" type="curve" smooth="yes"/>
      <point x="174" y="614" type="line"/>
      <point x="447" y="614" type="line" smooth="yes"/>
      <point x="462" y="614"/>
      <point x="469" y="621"/>
      <point x="469" y="636" type="curve" smooth="yes"/>
      <point x="469" y="672" type="line" smooth="yes"/>
      <point x="469" y="687"/>
      <point x="462" y="694"/>
      <point x="447" y="694" type="curve" smooth="yes"/>
      <point x="110" y="694" type="line" smooth="yes"/>
      <point x="95" y="694"/>
      <point x="88" y="687"/>
      <point x="88" y="672" type="curve" smooth="yes"/>
      <point x="88" y="327" type="line" smooth="yes"/>
      <point x="88" y="312"/>
      <point x="95" y="305"/>
      <point x="110" y="305" type="curve" smooth="yes"/>
      <point x="133" y="305" type="line" smooth="yes"/>
      <point x="162" y="305"/>
      <point x="195" y="343"/>
      <point x="224" y="352" type="curve" smooth="yes"/>
      <point x="240" y="357"/>
      <point x="261" y="359"/>
      <point x="287" y="359" type="curve" smooth="yes"/>
      <point x="366" y="359"/>
      <point x="408" y="306"/>
      <point x="408" y="215" type="curve" smooth="yes"/>
      <point x="408" y="123"/>
      <point x="361" y="59"/>
      <point x="267" y="59" type="curve" smooth="yes"/>
      <point x="195" y="59"/>
      <point x="150" y="112"/>
      <point x="134" y="131" type="curve" smooth="yes"/>
      <point x="124" y="142"/>
      <point x="116" y="149"/>
      <point x="108" y="149" type="curve" smooth="yes"/>
      <point x="105" y="149"/>
      <point x="101" y="147"/>
      <point x="96" y="144" type="curve"/>
      <point x="65" y="117" type="line" smooth="yes"/>
      <point x="61" y="113"/>
      <point x="59" y="109"/>
      <point x="59" y="104" type="curve" smooth="yes"/>
    </contour>
  </outline>
</glyph>
<glyph name="six" format="1">
  <advance width="542"/>
  <unicode hex="0036"/>
  <outline>
    <contour>
      <point x="70" y="570"/>
      <point x="45" y="471"/>
      <point x="45" y="328" type="curve" smooth="yes"/>
      <point x="45" y="116"/>
      <point x="121" y="-15"/>
      <point x="275" y="-15" type="curve" smooth="yes"/>
      <point x="423" y="-15"/>
      <point x="498" y="85"/>
      <point x="498" y="225" type="curve" smooth="yes"/>
      <point x="498" y="372"/>
      <point x="399" y="439"/>
      <point x="302" y="439" type="curve" smooth="yes"/>
      <point x="215" y="439"/>
      <point x="164" y="405"/>
      <point x="134" y="363" type="curve"/>
      <point x="133" y="363" type="line"/>
      <point x="133" y="556"/>
      <point x="212" y="636"/>
      <point x="297" y="636" type="curve" smooth="yes"/>
      <point x="354" y="636"/>
      <point x="381" y="623"/>
      <point x="413" y="598" type="curve" smooth="yes"/>
      <point x="422" y="591"/>
      <point x="429" y="587"/>
      <point x="434" y="587" type="curve" smooth="yes"/>
      <point x="439" y="587"/>
      <point x="444" y="590"/>
      <point x="448" y="595" type="curve" smooth="yes"/>
      <point x="471" y="622" type="line" smooth="yes"/>
      <point x="474" y="625"/>
      <point x="475" y="628"/>
      <point x="475" y="632" type="curve" smooth="yes"/>
      <point x="475" y="651"/>
      <point x="427" y="681"/>
      <point x="399" y="693" type="curve" smooth="yes"/>
      <point x="375" y="703"/>
      <point x="344" y="709"/>
      <point x="301" y="709" type="curve" smooth="yes"/>
      <point x="229" y="709"/>
      <point x="169" y="681"/>
      <point x="120" y="625" type="curve"/>
    </contour>
    <contour>
      <point x="161" y="141"/>
      <point x="150" y="178"/>
      <point x="150" y="218" type="curve" smooth="yes"/>
      <point x="150" y="304"/>
      <point x="197" y="364"/>
      <point x="286" y="364" type="curve" smooth="yes"/>
      <point x="351" y="364"/>
      <point x="402" y="316"/>
      <point x="402" y="222" type="curve" smooth="yes"/>
      <point x="402" y="125"/>
      <point x="358" y="59"/>
      <point x="276" y="59" type="curve" smooth="yes"/>
      <point x="237" y="59"/>
      <point x="206" y="75"/>
      <point x="183" y="108" type="curve" smooth="yes"/>
    </contour>
  </outline>
</glyph>
<glyph name="seven" format="1">
  <advance width="537"/>
  <unicode hex="0037"/>
  <outline>
    <contour>
      <point x="43" y="636" type="line" smooth="yes"/>
      <point x="43" y="621"/>
      <point x="50" y="614"/>
      <point x="65" y="614" type="curve" smooth="yes"/>
      <point x="406" y="615" type="line"/>
      <point x="406" y="614" type="line"/>
      <point x="278" y="461"/>
      <point x="172" y="284"/>
      <point x="172" y="48" type="curve" smooth="yes"/>
      <point x="172" y="19" type="line" smooth="yes"/>
      <point x="172" y="4"/>
      <point x="179" y="-3"/>
      <point x="194" y="-3" type="curve" smooth="yes"/>
      <point x="239" y="-3" type="line" smooth="yes"/>
      <point x="254" y="-3"/>
      <point x="261" y="4"/>
      <point x="261" y="19" type="curve" smooth="yes"/>
      <point x="261" y="65" type="line" smooth="yes"/>
      <point x="261" y="282"/>
      <point x="347" y="456"/>
      <point x="477" y="604" type="curve" smooth="yes"/>
      <point x="488" y="617"/>
      <point x="494" y="629"/>
      <point x="494" y="639" type="curve" smooth="yes"/>
      <point x="494" y="672" type="line" smooth="yes"/>
      <point x="494" y="687"/>
      <point x="487" y="694"/>
      <point x="472" y="694" type="curve" smooth="yes"/>
      <point x="65" y="694" type="line" smooth="yes"/>
      <point x="50" y="694"/>
      <point x="43" y="687"/>
      <point x="43" y="672" type="curve" smooth="yes"/>
    </contour>
  </outline>
</glyph>
<glyph name="eight" format="1">
  <advance width="542"/>
  <unicode hex="0038"/>
  <outline>
    <contour>
      <point x="59" y="285"/>
      <point x="45" y="247"/>
      <point x="45" y="200" type="curve" smooth="yes"/>
      <point x="45" y="69"/>
      <point x="116" y="-15"/>
      <point x="271" y="-15" type="curve" smooth="yes"/>
      <point x="428" y="-15"/>
      <point x="497" y="73"/>
      <point x="497" y="200" type="curve" smooth="yes"/>
      <point x="497" y="294"/>
      <point x="419" y="362"/>
      <point x="367" y="375" type="curve"/>
      <point x="367" y="376" type="line"/>
      <point x="423" y="393"/>
      <point x="480" y="443"/>
      <point x="480" y="531" type="curve" smooth="yes"/>
      <point x="480" y="637"/>
      <point x="394" y="709"/>
      <point x="271" y="709" type="curve" smooth="yes"/>
      <point x="148" y="709"/>
      <point x="62" y="637"/>
      <point x="62" y="531" type="curve" smooth="yes"/>
      <point x="62" y="449"/>
      <point x="108" y="399"/>
      <point x="171" y="376" type="curve"/>
      <point x="171" y="375" type="line"/>
      <point x="143" y="368"/>
      <point x="115" y="348"/>
      <point x="87" y="316" type="curve" smooth="yes"/>
    </contour>
    <contour>
      <point x="163" y="471"/>
      <point x="154" y="498"/>
      <point x="154" y="531" type="curve" smooth="yes"/>
      <point x="154" y="581"/>
      <point x="185" y="636"/>
      <point x="271" y="636" type="curve" smooth="yes"/>
      <point x="356" y="636"/>
      <point x="388" y="581"/>
      <point x="388" y="531" type="curve" smooth="yes"/>
      <point x="388" y="466"/>
      <point x="351" y="413"/>
      <point x="271" y="413" type="curve" smooth="yes"/>
      <point x="231" y="413"/>
      <point x="201" y="425"/>
      <point x="182" y="448" type="curve" smooth="yes"/>
    </contour>
    <contour>
      <point x="187" y="59"/>
      <point x="140" y="107"/>
      <point x="140" y="198" type="curve" smooth="yes"/>
      <point x="140" y="269"/>
      <point x="189" y="334"/>
      <point x="271" y="334" type="curve" smooth="yes"/>
      <point x="353" y="334"/>
      <point x="401" y="270"/>
      <point x="401" y="198" type="curve" smooth="yes"/>
      <point x="401" y="107"/>
      <point x="355" y="59"/>
      <point x="271" y="59" type="curve" smooth="yes"/>
    </contour>
  </outline>
</glyph>
<glyph name="nine" format="1">
  <advance width="542"/>
  <unicode hex="0039"/>
  <outline>
    <contour>
      <point x="63" y="598"/>
      <point x="44" y="540"/>
      <point x="44" y="470" type="curve" smooth="yes"/>
      <point x="44" y="321"/>
      <point x="143" y="255"/>
      <point x="240" y="255" type="curve" smooth="yes"/>
      <point x="320" y="255"/>
      <point x="375" y="285"/>
      <point x="408" y="332" type="curve"/>
      <point x="409" y="332" type="line"/>
      <point x="409" y="139"/>
      <point x="329" y="59"/>
      <point x="245" y="59" type="curve" smooth="yes"/>
      <point x="187" y="59"/>
      <point x="157" y="73"/>
      <point x="129" y="97" type="curve" smooth="yes"/>
      <point x="122" y="104"/>
      <point x="115" y="107"/>
      <point x="108" y="107" type="curve" smooth="yes"/>
      <point x="103" y="107"/>
      <point x="98" y="105"/>
      <point x="94" y="100" type="curve" smooth="yes"/>
      <point x="71" y="73" type="line" smooth="yes"/>
      <point x="68" y="70"/>
      <point x="67" y="67"/>
      <point x="67" y="63" type="curve" smooth="yes"/>
      <point x="67" y="42"/>
      <point x="114" y="13"/>
      <point x="143" y="1" type="curve" smooth="yes"/>
      <point x="168" y="-10"/>
      <point x="200" y="-15"/>
      <point x="241" y="-15" type="curve" smooth="yes"/>
      <point x="381" y="-15"/>
      <point x="497" y="78"/>
      <point x="497" y="367" type="curve" smooth="yes"/>
      <point x="497" y="575"/>
      <point x="421" y="709"/>
      <point x="267" y="709" type="curve" smooth="yes"/>
      <point x="194" y="709"/>
      <point x="138" y="687"/>
      <point x="100" y="643" type="curve"/>
    </contour>
    <contour>
      <point x="151" y="390"/>
      <point x="140" y="426"/>
      <point x="140" y="473" type="curve" smooth="yes"/>
      <point x="140" y="569"/>
      <point x="185" y="636"/>
      <point x="266" y="636" type="curve" smooth="yes"/>
      <point x="345" y="636"/>
      <point x="392" y="553"/>
      <point x="392" y="476" type="curve" smooth="yes"/>
      <point x="392" y="386"/>
      <point x="340" y="330"/>
      <point x="256" y="330" type="curve" smooth="yes"/>
      <point x="223" y="330"/>
      <point x="195" y="342"/>
      <point x="173" y="366" type="curve" smooth="yes"/>
    </contour>
  </outline>
</glyph>
<glyph name="less" format="1">
  <advance width="625"/>
  <unicode hex="003C"/>
  <outline>
    <contour>
      <point x="51" y="351" type="line" smooth="yes"/>
      <point x="51" y="345"/>
      <point x="55" y="339"/>
      <point x="63" y="334" type="curve" smooth="yes"/>
      <point x="528" y="66" type="line"/>
      <point x="535" y="63"/>
      <point x="540" y="61"/>
      <point x="543" y="61" type="curve" smooth="yes"/>
      <point x="549" y="61"/>
      <point x="553" y="64"/>
      <point x="556" y="70" type="curve" smooth="yes"/>
      <point x="568" y="91" type="line" smooth="yes"/>
      <point x="570" y="94"/>
      <point x="571" y="97"/>
      <point x="571" y="100" type="curve" smooth="yes"/>
      <point x="571" y="107"/>
      <point x="567" y="112"/>
      <point x="558" y="117" type="curve" smooth="yes"/>
      <point x="138" y="359" type="line"/>
      <point x="558" y="601" type="line" smooth="yes"/>
      <point x="567" y="606"/>
      <point x="571" y="611"/>
      <point x="571" y="618" type="curve" smooth="yes"/>
      <point x="571" y="621"/>
      <point x="570" y="624"/>
      <point x="568" y="627" type="curve" smooth="yes"/>
      <point x="556" y="648" type="line" smooth="yes"/>
      <point x="553" y="654"/>
      <point x="549" y="657"/>
      <point x="543" y="657" type="curve" smooth="yes"/>
      <point x="540" y="657"/>
      <point x="535" y="655"/>
      <point x="528" y="652" type="curve"/>
      <point x="63" y="383" type="line" smooth="yes"/>
      <point x="55" y="379"/>
      <point x="51" y="374"/>
      <point x="51" y="367" type="curve" smooth="yes"/>
    </contour>
  </outline>
</glyph>
<glyph name="greater" format="1">
  <advance width="625"/>
  <unicode hex="003E"/>
  <outline>
    <contour>
      <point x="63" y="96"/>
      <point x="64" y="93"/>
      <point x="65" y="91" type="curve" smooth="yes"/>
      <point x="78" y="70" type="line" smooth="yes"/>
      <point x="81" y="64"/>
      <point x="86" y="61"/>
      <point x="91" y="61" type="curve" smooth="yes"/>
      <point x="95" y="61"/>
      <point x="100" y="63"/>
      <point x="105" y="66" type="curve" smooth="yes"/>
      <point x="570" y="334" type="line" smooth="yes"/>
      <point x="579" y="339"/>
      <point x="583" y="344"/>
      <point x="583" y="351" type="curve" smooth="yes"/>
      <point x="583" y="367" type="line" smooth="yes"/>
      <point x="583" y="374"/>
      <point x="579" y="379"/>
      <point x="570" y="383" type="curve"/>
      <point x="105" y="652" type="line" smooth="yes"/>
      <point x="100" y="655"/>
      <point x="95" y="657"/>
      <point x="91" y="657" type="curve" smooth="yes"/>
      <point x="86" y="657"/>
      <point x="81" y="654"/>
      <point x="78" y="648" type="curve" smooth="yes"/>
      <point x="65" y="627" type="line" smooth="yes"/>
      <point x="64" y="625"/>
      <point x="63" y="622"/>
      <point x="63" y="618" type="curve" smooth="yes"/>
      <point x="63" y="611"/>
      <point x="67" y="606"/>
      <point x="76" y="601" type="curve" smooth="yes"/>
      <point x="496" y="358" type="line"/>
      <point x="76" y="117" type="line"/>
      <point x="67" y="111"/>
      <point x="63" y="105"/>
      <point x="63" y="100" type="curve" smooth="yes"/>
    </contour>
  </outline>
</glyph>
<glyph name="question" format="1">
  <advance width="496"/>
  <unicode hex="003F"/>
  <outline>
    <contour>
      <point x="60" y="577"/>
      <point x="63" y="571"/>
      <point x="68" y="568" type="curve" smooth="yes"/>
      <point x="104" y="552" type="line" smooth="yes"/>
      <point x="108" y="550"/>
      <point x="112" y="549"/>
      <point x="115" y="549" type="curve" smooth="yes"/>
      <point x="131" y="549"/>
      <point x="149" y="602"/>
      <point x="177" y="622" type="curve" smooth="yes"/>
      <point x="195" y="635"/>
      <point x="223" y="642"/>
      <point x="258" y="642" type="curve" smooth="yes"/>
      <point x="324" y="642"/>
      <point x="362" y="613"/>
      <point x="362" y="534" type="curve" smooth="yes"/>
      <point x="362" y="494"/>
      <point x="337" y="448"/>
      <point x="286" y="390" type="curve" smooth="yes"/>
      <point x="234" y="331"/>
      <point x="209" y="275"/>
      <point x="209" y="221" type="curve" smooth="yes"/>
      <point x="209" y="203" type="line" smooth="yes"/>
      <point x="209" y="188"/>
      <point x="216" y="181"/>
      <point x="231" y="181" type="curve" smooth="yes"/>
      <point x="273" y="181" type="line" smooth="yes"/>
      <point x="288" y="181"/>
      <point x="295" y="188"/>
      <point x="295" y="203" type="curve" smooth="yes"/>
      <point x="295" y="214" type="line" smooth="yes"/>
      <point x="295" y="258"/>
      <point x="322" y="312"/>
      <point x="376" y="371" type="curve" smooth="yes"/>
      <point x="431" y="431"/>
      <point x="458" y="483"/>
      <point x="458" y="531" type="curve" smooth="yes"/>
      <point x="458" y="638"/>
      <point x="398" y="715"/>
      <point x="254" y="715" type="curve" smooth="yes"/>
      <point x="119" y="715"/>
      <point x="60" y="626"/>
      <point x="60" y="584" type="curve" smooth="yes"/>
    </contour>
    <contour>
      <point x="203" y="22" type="line" smooth="yes"/>
      <point x="203" y="7"/>
      <point x="210" y="0"/>
      <point x="225" y="0" type="curve" smooth="yes"/>
      <point x="279" y="0" type="line" smooth="yes"/>
      <point x="294" y="0"/>
      <point x="301" y="7"/>
      <point x="301" y="22" type="curve" smooth="yes"/>
      <point x="301" y="82" type="line" smooth="yes"/>
      <point x="301" y="97"/>
      <point x="294" y="104"/>
      <point x="279" y="104" type="curve" smooth="yes"/>
      <point x="225" y="104" type="line" smooth="yes"/>
      <point x="210" y="104"/>
      <point x="203" y="97"/>
      <point x="203" y="82" type="curve" smooth="yes"/>
    </contour>
  </outline>
</glyph>
<glyph name="A" format="1">
  <advance width="664"/>
  <unicode hex="0041"/>
  <outline>
    <contour>
      <point x="31" y="5"/>
      <point x="37" y="0"/>
      <point x="48" y="0" type="curve" smooth="yes"/>
      <point x="98" y="0" type="line" smooth="yes"/>
      <point x="114" y="0"/>
      <point x="127" y="8"/>
      <point x="133" y="24" type="curve" smooth="yes"/>
      <point x="194" y="186" type="line"/>
      <point x="495" y="186" type="line"/>
      <point x="556" y="24" type="line" smooth="yes"/>
      <point x="562" y="8"/>
      <point x="574" y="0"/>
      <point x="591" y="0" type="curve" smooth="yes"/>
      <point x="641" y="0" type="line" smooth="yes"/>
      <point x="652" y="0"/>
      <point x="658" y="5"/>
      <point x="658" y="15" type="curve" smooth="yes"/>
      <point x="658" y="20"/>
      <point x="657" y="26"/>
      <point x="654" y="32" type="curve"/>
      <point x="411" y="670" type="line" smooth="yes"/>
      <point x="403" y="690"/>
      <point x="392" y="700"/>
      <point x="378" y="700" type="curve" smooth="yes"/>
      <point x="310" y="700" type="line" smooth="yes"/>
      <point x="295" y="700"/>
      <point x="285" y="690"/>
      <point x="278" y="670" type="curve" smooth="yes"/>
      <point x="35" y="32" type="line"/>
      <point x="32" y="26"/>
      <point x="31" y="20"/>
      <point x="31" y="15" type="curve" smooth="yes"/>
    </contour>
    <contour>
      <point x="225" y="266" type="line"/>
      <point x="299" y="461" type="line" smooth="yes"/>
      <point x="315" y="502"/>
      <point x="324" y="530"/>
      <point x="343" y="616" type="curve"/>
      <point x="345" y="616" type="line"/>
      <point x="364" y="530"/>
      <point x="373" y="502"/>
      <point x="389" y="461" type="curve" smooth="yes"/>
      <point x="464" y="266" type="line"/>
    </contour>
    <contour>
      <point x="0" y="0" type="move" name="mark6"/>
    </contour>
    <contour>
      <point x="0" y="0" type="move" name="mark1"/>
    </contour>
    <contour>
      <point x="332" y="0" type="move" name="mark3"/>
    </contour>
    <contour>
      <point x="0" y="0" type="move" name="mark5"/>
    </contour>
    <contour>
      <point x="576" y="0" type="move" name="mark0"/>
    </contour>
    <contour>
      <point x="0" y="0" type="move" name="mark2"/>
    </contour>
    <contour>
      <point x="340" y="715" type="move" name="mark4"/>
    </contour>
  </outline>
</glyph>
<glyph name="B" format="1">
  <advance width="663"/>
  <unicode hex="0042"/>
  <outline>
    <contour>
      <point x="83" y="27" type="line" smooth="yes"/>
      <point x="83" y="9"/>
      <point x="91" y="0"/>
      <point x="107" y="0" type="curve" smooth="yes"/>
      <point x="322" y="0" type="line" smooth="yes"/>
      <point x="544" y="0"/>
      <point x="609" y="86"/>
      <point x="609" y="194" type="curve" smooth="yes"/>
      <point x="609" y="300"/>
      <point x="496" y="360"/>
      <point x="438" y="365" type="curve"/>
      <point x="438" y="366" type="line"/>
      <point x="501" y="376"/>
      <point x="579" y="440"/>
      <point x="579" y="517" type="curve" smooth="yes"/>
      <point x="579" y="614"/>
      <point x="524" y="700"/>
      <point x="298" y="700" type="curve" smooth="yes"/>
      <point x="107" y="700" type="line" smooth="yes"/>
      <point x="91" y="700"/>
      <point x="83" y="691"/>
      <point x="83" y="673" type="curve" smooth="yes"/>
    </contour>
    <contour>
      <point x="177" y="395" type="line"/>
      <point x="177" y="620" type="line"/>
      <point x="299" y="620" type="line" smooth="yes"/>
      <point x="443" y="620"/>
      <point x="484" y="583"/>
      <point x="484" y="517" type="curve" smooth="yes"/>
      <point x="484" y="449"/>
      <point x="412" y="395"/>
      <point x="299" y="395" type="curve" smooth="yes"/>
    </contour>
    <contour>
      <point x="177" y="80" type="line"/>
      <point x="177" y="324" type="line"/>
      <point x="307" y="324" type="line" smooth="yes"/>
      <point x="443" y="324"/>
      <point x="509" y="280"/>
      <point x="509" y="197" type="curve" smooth="yes"/>
      <point x="509" y="109"/>
      <point x="444" y="80"/>
      <point x="307" y="80" type="curve" smooth="yes"/>
    </contour>
    <contour>
      <point x="0" y="0" type="move" name="mark6"/>
    </contour>
    <contour>
      <point x="0" y="0" type="move" name="mark1"/>
    </contour>
    <contour>
      <point x="324" y="0" type="move" name="mark3"/>
    </contour>
    <contour>
      <point x="0" y="0" type="move" name="mark5"/>
    </contour>
    <contour>
      <point x="0" y="0" type="move" name="mark0"/>
    </contour>
    <contour>
      <point x="0" y="0" type="move" name="mark2"/>
    </contour>
    <contour>
      <point x="324" y="715" type="move" name="mark4"/>
    </contour>
  </outline>
</glyph>
<glyph name="C" format="1">
  <advance width="685"/>
  <unicode hex="0043"/>
  <outline>
    <contour>
      <point x="73" y="553"/>
      <point x="45" y="464"/>
      <point x="45" y="350" type="curve" smooth="yes"/>
      <point x="45" y="123"/>
      <point x="161" y="-15"/>
      <point x="373" y="-15" type="curve" smooth="yes"/>
      <point x="499" y="-15"/>
      <point x="591" y="38"/>
      <point x="630" y="116" type="curve" smooth="yes"/>
      <point x="635" y="125"/>
      <point x="637" y="132"/>
      <point x="637" y="138" type="curve" smooth="yes"/>
      <point x="637" y="145"/>
      <point x="634" y="151"/>
      <point x="627" y="155" type="curve" smooth="yes"/>
      <point x="587" y="178" type="line" smooth="yes"/>
      <point x="583" y="180"/>
      <point x="579" y="181"/>
      <point x="576" y="181" type="curve" smooth="yes"/>
      <point x="560" y="181"/>
      <point x="530" y="124"/>
      <point x="490" y="94" type="curve" smooth="yes"/>
      <point x="462" y="73"/>
      <point x="425" y="62"/>
      <point x="378" y="62" type="curve" smooth="yes"/>
      <point x="210" y="62"/>
      <point x="145" y="173"/>
      <point x="145" y="350" type="curve" smooth="yes"/>
      <point x="145" y="527"/>
      <point x="211" y="639"/>
      <point x="378" y="639" type="curve" smooth="yes"/>
      <point x="470" y="639"/>
      <point x="515" y="593"/>
      <point x="536" y="554" type="curve" smooth="yes"/>
      <point x="543" y="540"/>
      <point x="551" y="533"/>
      <point x="559" y="533" type="curve" smooth="yes"/>
      <point x="562" y="533"/>
      <point x="566" y="534"/>
      <point x="570" y="536" type="curve" smooth="yes"/>
      <point x="609" y="558" type="line" smooth="yes"/>
      <point x="616" y="562"/>
      <point x="619" y="568"/>
      <point x="619" y="576" type="curve" smooth="yes"/>
      <point x="619" y="582"/>
      <point x="617" y="589"/>
      <point x="613" y="597" type="curve" smooth="yes"/>
      <point x="577" y="672"/>
      <point x="494" y="715"/>
      <point x="373" y="715" type="curve" smooth="yes"/>
      <point x="267" y="715"/>
      <point x="186" y="683"/>
      <point x="129" y="618" type="curve" smooth="yes"/>
    </contour>
    <contour>
      <point x="0" y="0" type="move" name="mark6"/>
    </contour>
    <contour>
      <point x="0" y="0" type="move" name="mark1"/>
    </contour>
    <contour>
      <point x="373" y="0" type="move" name="mark3"/>
    </contour>
    <contour>
      <point x="0" y="0" type="move" name="mark5"/>
    </contour>
    <contour>
      <point x="0" y="0" type="move" name="mark0"/>
    </contour>
    <contour>
      <point x="0" y="0" type="move" name="mark2"/>
    </contour>
    <contour>
      <point x="373" y="715" type="move" name="mark4"/>
    </contour>
  </outline>
</glyph>
<glyph name="D" format="1">
  <advance width="701"/>
  <unicode hex="0044"/>
  <outline>
    <contour>
      <point x="83" y="27" type="line" smooth="yes"/>
      <point x="83" y="9"/>
      <point x="91" y="0"/>
      <point x="107" y="0" type="curve" smooth="yes"/>
      <point x="288" y="0" type="line" smooth="yes"/>
      <point x="567" y="0"/>
      <point x="656" y="133"/>
      <point x="656" y="351" type="curve" smooth="yes"/>
      <point x="656" y="569"/>
      <point x="565" y="700"/>
      <point x="288" y="700" type="curve" smooth="yes"/>
      <point x="107" y="700" type="line" smooth="yes"/>
      <point x="91" y="700"/>
      <point x="83" y="691"/>
      <point x="83" y="673" type="curve" smooth="yes"/>
    </contour>
    <contour>
      <point x="177" y="80" type="line"/>
      <point x="177" y="621" type="line"/>
      <point x="283" y="621" type="line" smooth="yes"/>
      <point x="499" y="621"/>
      <point x="556" y="531"/>
      <point x="556" y="351" type="curve" smooth="yes"/>
      <point x="556" y="172"/>
      <point x="500" y="80"/>
      <point x="283" y="80" type="curve" smooth="yes"/>
    </contour>
    <contour>
      <point x="0" y="0" type="move" name="mark6"/>
    </contour>
    <contour>
      <point x="0" y="0" type="move" name="mark1"/>
    </contour>
    <contour>
      <point x="348" y="0" type="move" name="mark3"/>
    </contour>
    <contour>
      <point x="0" y="0" type="move" name="mark5"/>
    </contour>
    <contour>
      <point x="0" y="0" type="move" name="mark0"/>
    </contour>
    <contour>
      <point x="0" y="0" type="move" name="mark2"/>
    </contour>
    <contour>
      <point x="348" y="715" type="move" name="mark4"/>
    </contour>
  </outline>
</glyph>
<glyph name="E" format="1">
  <advance width="620"/>
  <unicode hex="0045"/>
  <outline>
    <contour>
      <point x="83" y="27" type="line" smooth="yes"/>
      <point x="83" y="9"/>
      <point x="91" y="0"/>
      <point x="107" y="0" type="curve" smooth="yes"/>
      <point x="549" y="0" type="line" smooth="yes"/>
      <point x="567" y="0"/>
      <point x="576" y="7"/>
      <point x="576" y="22" type="curve" smooth="yes"/>
      <point x="576" y="58" type="line" smooth="yes"/>
      <point x="576" y="73"/>
      <point x="567" y="80"/>
      <point x="549" y="80" type="curve" smooth="yes"/>
      <point x="177" y="80" type="line"/>
      <point x="177" y="323" type="line"/>
      <point x="505" y="323" type="line" smooth="yes"/>
      <point x="523" y="323"/>
      <point x="532" y="330"/>
      <point x="532" y="345" type="curve" smooth="yes"/>
      <point x="532" y="381" type="line" smooth="yes"/>
      <point x="532" y="396"/>
      <point x="523" y="403"/>
      <point x="505" y="403" type="curve" smooth="yes"/>
      <point x="177" y="403" type="line"/>
      <point x="177" y="620" type="line"/>
      <point x="535" y="620" type="line" smooth="yes"/>
      <point x="553" y="620"/>
      <point x="562" y="627"/>
      <point x="562" y="642" type="curve" smooth="yes"/>
      <point x="562" y="678" type="line" smooth="yes"/>
      <point x="562" y="693"/>
      <point x="553" y="700"/>
      <point x="535" y="700" type="curve" smooth="yes"/>
      <point x="107" y="700" type="line" smooth="yes"/>
      <point x="91" y="700"/>
      <point x="83" y="691"/>
      <point x="83" y="673" type="curve" smooth="yes"/>
    </contour>
    <contour>
      <point x="0" y="0" type="move" name="mark6"/>
    </contour>
    <contour>
      <point x="0" y="0" type="move" name="mark1"/>
    </contour>
    <contour>
      <point x="330" y="0" type="move" name="mark3"/>
    </contour>
    <contour>
      <point x="0" y="0" type="move" name="mark5"/>
    </contour>
    <contour>
      <point x="330" y="0" type="move" name="mark0"/>
    </contour>
    <contour>
      <point x="0" y="0" type="move" name="mark2"/>
    </contour>
    <contour>
      <point x="330" y="715" type="move" name="mark4"/>
    </contour>
  </outline>
</glyph>
<glyph name="F" format="1">
  <advance width="569"/>
  <unicode hex="0046"/>
  <outline>
    <contour>
      <point x="83" y="27" type="line" smooth="yes"/>
      <point x="83" y="9"/>
      <point x="91" y="0"/>
      <point x="107" y="0" type="curve" smooth="yes"/>
      <point x="152" y="0" type="line" smooth="yes"/>
      <point x="169" y="0"/>
      <point x="177" y="9"/>
      <point x="177" y="27" type="curve" smooth="yes"/>
      <point x="177" y="309" type="line"/>
      <point x="463" y="309" type="line" smooth="yes"/>
      <point x="481" y="309"/>
      <point x="490" y="316"/>
      <point x="490" y="331" type="curve" smooth="yes"/>
      <point x="490" y="367" type="line" smooth="yes"/>
      <point x="490" y="382"/>
      <point x="481" y="389"/>
      <point x="463" y="389" type="curve" smooth="yes"/>
      <point x="177" y="389" type="line"/>
      <point x="177" y="620" type="line"/>
      <point x="505" y="620" type="line" smooth="yes"/>
      <point x="523" y="620"/>
      <point x="532" y="627"/>
      <point x="532" y="642" type="curve" smooth="yes"/>
      <point x="532" y="678" type="line" smooth="yes"/>
      <point x="532" y="693"/>
      <point x="523" y="700"/>
      <point x="505" y="700" type="curve" smooth="yes"/>
      <point x="107" y="700" type="line" smooth="yes"/>
      <point x="91" y="700"/>
      <point x="83" y="691"/>
      <point x="83" y="673" type="curve" smooth="yes"/>
    </contour>
    <contour>
      <point x="0" y="0" type="move" name="mark6"/>
    </contour>
    <contour>
      <point x="0" y="0" type="move" name="mark1"/>
    </contour>
    <contour>
      <point x="308" y="0" type="move" name="mark3"/>
    </contour>
    <contour>
      <point x="0" y="0" type="move" name="mark5"/>
    </contour>
    <contour>
      <point x="0" y="0" type="move" name="mark0"/>
    </contour>
    <contour>
      <point x="0" y="0" type="move" name="mark2"/>
    </contour>
    <contour>
      <point x="308" y="715" type="move" name="mark4"/>
    </contour>
  </outline>
</glyph>
<glyph name="G" format="1">
  <advance width="718"/>
  <unicode hex="0047"/>
  <outline>
    <contour>
      <point x="74" y="553"/>
      <point x="45" y="464"/>
      <point x="45" y="350" type="curve" smooth="yes"/>
      <point x="45" y="125"/>
      <point x="168" y="-15"/>
      <point x="384" y="-15" type="curve" smooth="yes"/>
      <point x="514" y="-15"/>
      <point x="579" y="17"/>
      <point x="659" y="77" type="curve"/>
      <point x="659" y="307" type="line" smooth="yes"/>
      <point x="659" y="322"/>
      <point x="650" y="329"/>
      <point x="632" y="329" type="curve" smooth="yes"/>
      <point x="420" y="329" type="line" smooth="yes"/>
      <point x="403" y="329"/>
      <point x="394" y="322"/>
      <point x="394" y="307" type="curve" smooth="yes"/>
      <point x="394" y="271" type="line" smooth="yes"/>
      <point x="394" y="256"/>
      <point x="403" y="249"/>
      <point x="420" y="249" type="curve" smooth="yes"/>
      <point x="565" y="249" type="line"/>
      <point x="565" y="120" type="line"/>
      <point x="540" y="84"/>
      <point x="474" y="62"/>
      <point x="389" y="62" type="curve" smooth="yes"/>
      <point x="214" y="62"/>
      <point x="145" y="174"/>
      <point x="145" y="350" type="curve" smooth="yes"/>
      <point x="145" y="529"/>
      <point x="222" y="639"/>
      <point x="384" y="639" type="curve" smooth="yes"/>
      <point x="512" y="639"/>
      <point x="550" y="537"/>
      <point x="572" y="537" type="curve" smooth="yes"/>
      <point x="574" y="537"/>
      <point x="578" y="538"/>
      <point x="583" y="541" type="curve" smooth="yes"/>
      <point x="620" y="566" type="line"/>
      <point x="625" y="571"/>
      <point x="628" y="576"/>
      <point x="628" y="583" type="curve" smooth="yes"/>
      <point x="628" y="614"/>
      <point x="580" y="657"/>
      <point x="533" y="682" type="curve" smooth="yes"/>
      <point x="492" y="703"/>
      <point x="442" y="715"/>
      <point x="379" y="715" type="curve" smooth="yes"/>
      <point x="274" y="715"/>
      <point x="192" y="683"/>
      <point x="133" y="618" type="curve" smooth="yes"/>
    </contour>
    <contour>
      <point x="0" y="0" type="move" name="mark6"/>
    </contour>
    <contour>
      <point x="0" y="0" type="move" name="mark1"/>
    </contour>
    <contour>
      <point x="384" y="0" type="move" name="mark3"/>
    </contour>
    <contour>
      <point x="0" y="0" type="move" name="mark5"/>
    </contour>
    <contour>
      <point x="0" y="0" type="move" name="mark0"/>
    </contour>
    <contour>
      <point x="0" y="0" type="move" name="mark2"/>
    </contour>
    <contour>
      <point x="379" y="715" type="move" name="mark4"/>
    </contour>
  </outline>
</glyph>
<glyph name="H" format="1">
  <advance width="694"/>
  <unicode hex="0048"/>
  <outline>
    <contour>
      <point x="83" y="27" type="line" smooth="yes"/>
      <point x="83" y="9"/>
      <point x="91" y="0"/>
      <point x="107" y="0" type="curve" smooth="yes"/>
      <point x="152" y="0" type="line" smooth="yes"/>
      <point x="169" y="0"/>
      <point x="177" y="9"/>
      <point x="177" y="27" type="curve" smooth="yes"/>
      <point x="177" y="324" type="line"/>
      <point x="518" y="324" type="line"/>
      <point x="518" y="27" type="line" smooth="yes"/>
      <point x="518" y="9"/>
      <point x="526" y="0"/>
      <point x="542" y="0" type="curve" smooth="yes"/>
      <point x="587" y="0" type="line" smooth="yes"/>
      <point x="603" y="0"/>
      <point x="611" y="9"/>
      <point x="611" y="27" type="curve" smooth="yes"/>
      <point x="611" y="673" type="line" smooth="yes"/>
      <point x="611" y="691"/>
      <point x="603" y="700"/>
      <point x="587" y="700" type="curve" smooth="yes"/>
      <point x="542" y="700" type="line" smooth="yes"/>
      <point x="526" y="700"/>
      <point x="518" y="691"/>
      <point x="518" y="673" type="curve" smooth="yes"/>
      <point x="518" y="404" type="line"/>
      <point x="177" y="404" type="line"/>
      <point x="177" y="673" type="line" smooth="yes"/>
      <point x="177" y="691"/>
      <point x="169" y="700"/>
      <point x="152" y="700" type="curve" smooth="yes"/>
      <point x="107" y="700" type="line" smooth="yes"/>
      <point x="91" y="700"/>
      <point x="83" y="691"/>
      <point x="83" y="673" type="curve" smooth="yes"/>
    </contour>
    <contour>
      <point x="0" y="0" type="move" name="mark6"/>
    </contour>
    <contour>
      <point x="0" y="0" type="move" name="mark1"/>
    </contour>
    <contour>
      <point x="347" y="0" type="move" name="mark3"/>
    </contour>
    <contour>
      <point x="0" y="0" type="move" name="mark5"/>
    </contour>
    <contour>
      <point x="0" y="0" type="move" name="mark0"/>
    </contour>
    <contour>
      <point x="0" y="0" type="move" name="mark2"/>
    </contour>
    <contour>
      <point x="347" y="715" type="move" name="mark4"/>
    </contour>
  </outline>
</glyph>
<glyph name="J" format="1">
  <advance width="402"/>
  <unicode hex="004A"/>
  <outline>
    <contour>
      <point x="25" y="6"/>
      <point x="113" y="-15"/>
      <point x="156" y="-15" type="curve" smooth="yes"/>
      <point x="308" y="-15"/>
      <point x="328" y="69"/>
      <point x="328" y="196" type="curve" smooth="yes"/>
      <point x="328" y="673" type="line" smooth="yes"/>
      <point x="328" y="691"/>
      <point x="320" y="700"/>
      <point x="304" y="700" type="curve" smooth="yes"/>
      <point x="259" y="700" type="line" smooth="yes"/>
      <point x="242" y="700"/>
      <point x="234" y="691"/>
      <point x="234" y="673" type="curve" smooth="yes"/>
      <point x="234" y="185" type="line" smooth="yes"/>
      <point x="234" y="113"/>
      <point x="226" y="62"/>
      <point x="159" y="62" type="curve" smooth="yes"/>
      <point x="132" y="62"/>
      <point x="105" y="70"/>
      <point x="80" y="87" type="curve" smooth="yes"/>
      <point x="73" y="92"/>
      <point x="67" y="94"/>
      <point x="61" y="94" type="curve" smooth="yes"/>
      <point x="54" y="94"/>
      <point x="48" y="90"/>
      <point x="44" y="81" type="curve" smooth="yes"/>
      <point x="28" y="46" type="line" smooth="yes"/>
      <point x="26" y="42"/>
      <point x="25" y="38"/>
      <point x="25" y="35" type="curve" smooth="yes"/>
    </contour>
    <contour>
      <point x="0" y="0" type="move" name="mark6"/>
    </contour>
    <contour>
      <point x="0" y="0" type="move" name="mark1"/>
    </contour>
    <contour>
      <point x="168" y="0" type="move" name="mark3"/>
    </contour>
    <contour>
      <point x="0" y="0" type="move" name="mark5"/>
    </contour>
    <contour>
      <point x="0" y="0" type="move" name="mark0"/>
    </contour>
    <contour>
      <point x="0" y="0" type="move" name="mark2"/>
    </contour>
    <contour>
      <point x="272" y="715" type="move" name="mark4"/>
    </contour>
  </outline>
</glyph>
<glyph name="K" format="1">
  <advance width="648"/>
  <unicode hex="004B"/>
  <outline>
    <contour>
      <point x="83" y="27" type="line" smooth="yes"/>
      <point x="83" y="9"/>
      <point x="91" y="0"/>
      <point x="107" y="0" type="curve" smooth="yes"/>
      <point x="152" y="0" type="line" smooth="yes"/>
      <point x="169" y="0"/>
      <point x="177" y="9"/>
      <point x="177" y="27" type="curve" smooth="yes"/>
      <point x="177" y="230" type="line"/>
      <point x="293" y="349" type="line"/>
      <point x="517" y="19" type="line" smooth="yes"/>
      <point x="525" y="6"/>
      <point x="535" y="0"/>
      <point x="551" y="0" type="curve" smooth="yes"/>
      <point x="610" y="0" type="line" smooth="yes"/>
      <point x="622" y="0"/>
      <point x="628" y="4"/>
      <point x="628" y="11" type="curve" smooth="yes"/>
      <point x="628" y="16"/>
      <point x="625" y="23"/>
      <point x="619" y="32" type="curve" smooth="yes"/>
      <point x="358" y="415" type="line"/>
      <point x="606" y="668" type="line" smooth="yes"/>
      <point x="615" y="677"/>
      <point x="620" y="685"/>
      <point x="620" y="690" type="curve" smooth="yes"/>
      <point x="620" y="697"/>
      <point x="612" y="700"/>
      <point x="597" y="700" type="curve" smooth="yes"/>
      <point x="538" y="700" type="line" smooth="yes"/>
      <point x="527" y="700"/>
      <point x="516" y="694"/>
      <point x="504" y="681" type="curve" smooth="yes"/>
      <point x="178" y="347" type="line"/>
      <point x="176" y="347" type="line"/>
      <point x="177" y="673" type="line" smooth="yes"/>
      <point x="177" y="691"/>
      <point x="169" y="700"/>
      <point x="152" y="700" type="curve" smooth="yes"/>
      <point x="107" y="700" type="line" smooth="yes"/>
      <point x="91" y="700"/>
      <point x="83" y="691"/>
      <point x="83" y="673" type="curve" smooth="yes"/>
    </contour>
    <contour>
      <point x="0" y="0" type="move" name="mark6"/>
    </contour>
    <contour>
      <point x="0" y="0" type="move" name="mark1"/>
    </contour>
    <contour>
      <point x="355" y="0" type="move" name="mark3"/>
    </contour>
    <contour>
      <point x="0" y="0" type="move" name="mark5"/>
    </contour>
    <contour>
      <point x="0" y="0" type="move" name="mark0"/>
    </contour>
    <contour>
      <point x="0" y="0" type="move" name="mark2"/>
    </contour>
    <contour>
      <point x="355" y="715" type="move" name="mark4"/>
    </contour>
  </outline>
</glyph>
<glyph name="L" format="1">
  <advance width="555"/>
  <unicode hex="004C"/>
  <outline>
    <contour>
      <point x="83" y="27" type="line" smooth="yes"/>
      <point x="83" y="9"/>
      <point x="91" y="0"/>
      <point x="107" y="0" type="curve" smooth="yes"/>
      <point x="500" y="0" type="line" smooth="yes"/>
      <point x="518" y="0"/>
      <point x="527" y="7"/>
      <point x="527" y="22" type="curve" smooth="yes"/>
      <point x="527" y="58" type="line" smooth="yes"/>
      <point x="527" y="73"/>
      <point x="518" y="80"/>
      <point x="500" y="80" type="curve" smooth="yes"/>
      <point x="177" y="80" type="line"/>
      <point x="177" y="673" type="line" smooth="yes"/>
      <point x="177" y="691"/>
      <point x="169" y="700"/>
      <point x="152" y="700" type="curve" smooth="yes"/>
      <point x="107" y="700" type="line" smooth="yes"/>
      <point x="91" y="700"/>
      <point x="83" y="691"/>
      <point x="83" y="673" type="curve" smooth="yes"/>
    </contour>
    <contour>
      <point x="0" y="0" type="move" name="mark6"/>
    </contour>
    <contour>
      <point x="0" y="0" type="move" name="mark1"/>
    </contour>
    <contour>
      <point x="305" y="0" type="move" name="mark3"/>
    </contour>
    <contour>
      <point x="0" y="0" type="move" name="mark5"/>
    </contour>
    <contour>
      <point x="0" y="0" type="move" name="mark0"/>
    </contour>
    <contour>
      <point x="0" y="0" type="move" name="mark2"/>
    </contour>
    <contour>
      <point x="305" y="715" type="move" name="mark4"/>
    </contour>
  </outline>
</glyph>
<glyph name="M" format="1">
  <advance width="834"/>
  <unicode hex="004D"/>
  <outline>
    <contour>
      <point x="83" y="27" type="line" smooth="yes"/>
      <point x="83" y="9"/>
      <point x="91" y="0"/>
      <point x="107" y="0" type="curve" smooth="yes"/>
      <point x="152" y="0" type="line" smooth="yes"/>
      <point x="169" y="0"/>
      <point x="177" y="9"/>
      <point x="177" y="27" type="curve" smooth="yes"/>
      <point x="176" y="578" type="line"/>
      <point x="178" y="578" type="line"/>
      <point x="358" y="30" type="line" smooth="yes"/>
      <point x="364" y="10"/>
      <point x="374" y="0"/>
      <point x="390" y="0" type="curve" smooth="yes"/>
      <point x="444" y="0" type="line" smooth="yes"/>
      <point x="459" y="0"/>
      <point x="469" y="10"/>
      <point x="476" y="30" type="curve" smooth="yes"/>
      <point x="656" y="578" type="line"/>
      <point x="658" y="578" type="line"/>
      <point x="657" y="27" type="line" smooth="yes"/>
      <point x="657" y="9"/>
      <point x="665" y="0"/>
      <point x="682" y="0" type="curve" smooth="yes"/>
      <point x="727" y="0" type="line" smooth="yes"/>
      <point x="743" y="0"/>
      <point x="751" y="9"/>
      <point x="751" y="27" type="curve" smooth="yes"/>
      <point x="751" y="673" type="line" smooth="yes"/>
      <point x="751" y="691"/>
      <point x="743" y="700"/>
      <point x="727" y="700" type="curve" smooth="yes"/>
      <point x="623" y="700" type="line" smooth="yes"/>
      <point x="610" y="700"/>
      <point x="601" y="690"/>
      <point x="595" y="671" type="curve" smooth="yes"/>
      <point x="444" y="198" type="line"/>
      <point x="422" y="136"/>
      <point x="428" y="151"/>
      <point x="418" y="101" type="curve"/>
      <point x="416" y="101" type="line"/>
      <point x="406" y="151"/>
      <point x="412" y="136"/>
      <point x="390" y="198" type="curve"/>
      <point x="239" y="671" type="line" smooth="yes"/>
      <point x="233" y="690"/>
      <point x="224" y="700"/>
      <point x="211" y="700" type="curve" smooth="yes"/>
      <point x="107" y="700" type="line" smooth="yes"/>
      <point x="91" y="700"/>
      <point x="83" y="691"/>
      <point x="83" y="673" type="curve" smooth="yes"/>
    </contour>
    <contour>
      <point x="0" y="0" type="move" name="mark6"/>
    </contour>
    <contour>
      <point x="0" y="0" type="move" name="mark1"/>
    </contour>
    <contour>
      <point x="417" y="0" type="move" name="mark3"/>
    </contour>
    <contour>
      <point x="0" y="0" type="move" name="mark5"/>
    </contour>
    <contour>
      <point x="0" y="0" type="move" name="mark0"/>
    </contour>
    <contour>
      <point x="0" y="0" type="move" name="mark2"/>
    </contour>
    <contour>
      <point x="417" y="715" type="move" name="mark4"/>
    </contour>
  </outline>
</glyph>
<glyph name="N" format="1">
  <advance width="702"/>
  <unicode hex="004E"/>
  <outline>
    <contour>
      <point x="83" y="27" type="line" smooth="yes"/>
      <point x="83" y="9"/>
      <point x="91" y="0"/>
      <point x="107" y="0" type="curve" smooth="yes"/>
      <point x="152" y="0" type="line" smooth="yes"/>
      <point x="169" y="0"/>
      <point x="177" y="9"/>
      <point x="177" y="27" type="curve" smooth="yes"/>
      <point x="176" y="568" type="line"/>
      <point x="178" y="568" type="line"/>
      <point x="503" y="24" type="line" smooth="yes"/>
      <point x="513" y="8"/>
      <point x="529" y="0"/>
      <point x="552" y="0" type="curve" smooth="yes"/>
      <point x="595" y="0" type="line" smooth="yes"/>
      <point x="611" y="0"/>
      <point x="619" y="9"/>
      <point x="619" y="27" type="curve" smooth="yes"/>
      <point x="619" y="673" type="line" smooth="yes"/>
      <point x="619" y="691"/>
      <point x="611" y="700"/>
      <point x="595" y="700" type="curve" smooth="yes"/>
      <point x="550" y="700" type="line" smooth="yes"/>
      <point x="533" y="700"/>
      <point x="525" y="691"/>
      <point x="525" y="673" type="curve" smooth="yes"/>
      <point x="526" y="164" type="line"/>
      <point x="524" y="164" type="line"/>
      <point x="219" y="676" type="line" smooth="yes"/>
      <point x="209" y="692"/>
      <point x="193" y="700"/>
      <point x="170" y="700" type="curve" smooth="yes"/>
      <point x="107" y="700" type="line" smooth="yes"/>
      <point x="91" y="700"/>
      <point x="83" y="691"/>
      <point x="83" y="673" type="curve" smooth="yes"/>
    </contour>
    <contour>
      <point x="0" y="0" type="move" name="mark6"/>
    </contour>
    <contour>
      <point x="0" y="0" type="move" name="mark1"/>
    </contour>
    <contour>
      <point x="351" y="0" type="move" name="mark3"/>
    </contour>
    <contour>
      <point x="0" y="0" type="move" name="mark5"/>
    </contour>
    <contour>
      <point x="0" y="0" type="move" name="mark0"/>
    </contour>
    <contour>
      <point x="0" y="0" type="move" name="mark2"/>
    </contour>
    <contour>
      <point x="351" y="715" type="move" name="mark4"/>
    </contour>
  </outline>
</glyph>
<glyph name="O" format="1">
  <advance width="744"/>
  <unicode hex="004F"/>
  <outline>
    <contour>
      <point x="73" y="553"/>
      <point x="45" y="464"/>
      <point x="45" y="350" type="curve" smooth="yes"/>
      <point x="45" y="123"/>
      <point x="161" y="-15"/>
      <point x="372" y="-15" type="curve" smooth="yes"/>
      <point x="583" y="-15"/>
      <point x="699" y="123"/>
      <point x="699" y="350" type="curve" smooth="yes"/>
      <point x="699" y="576"/>
      <point x="585" y="715"/>
      <point x="372" y="715" type="curve" smooth="yes"/>
      <point x="266" y="715"/>
      <point x="185" y="683"/>
      <point x="129" y="618" type="curve" smooth="yes"/>
    </contour>
    <contour>
      <point x="164" y="188"/>
      <point x="145" y="259"/>
      <point x="145" y="350" type="curve" smooth="yes"/>
      <point x="145" y="533"/>
      <point x="221" y="639"/>
      <point x="372" y="639" type="curve" smooth="yes"/>
      <point x="521" y="639"/>
      <point x="599" y="536"/>
      <point x="599" y="350" type="curve" smooth="yes"/>
      <point x="599" y="166"/>
      <point x="524" y="62"/>
      <point x="372" y="62" type="curve" smooth="yes"/>
      <point x="296" y="62"/>
      <point x="239" y="87"/>
      <point x="201" y="137" type="curve"/>
    </contour>
    <contour>
      <point x="0" y="0" type="move" name="mark6"/>
    </contour>
    <contour>
      <point x="0" y="0" type="move" name="mark1"/>
    </contour>
    <contour>
      <point x="372" y="0" type="move" name="mark3"/>
    </contour>
    <contour>
      <point x="0" y="0" type="move" name="mark5"/>
    </contour>
    <contour>
      <point x="372" y="0" type="move" name="mark0"/>
    </contour>
    <contour>
      <point x="0" y="0" type="move" name="mark2"/>
    </contour>
    <contour>
      <point x="372" y="715" type="move" name="mark4"/>
    </contour>
  </outline>
</glyph>
<glyph name="P" format="1">
  <advance width="639"/>
  <unicode hex="0050"/>
  <outline>
    <contour>
      <point x="83" y="27" type="line" smooth="yes"/>
      <point x="83" y="9"/>
      <point x="91" y="0"/>
      <point x="107" y="0" type="curve" smooth="yes"/>
      <point x="152" y="0" type="line" smooth="yes"/>
      <point x="169" y="0"/>
      <point x="177" y="9"/>
      <point x="177" y="27" type="curve" smooth="yes"/>
      <point x="177" y="281" type="line"/>
      <point x="313" y="281" type="line" smooth="yes"/>
      <point x="540" y="281"/>
      <point x="595" y="367"/>
      <point x="595" y="491" type="curve" smooth="yes"/>
      <point x="595" y="617"/>
      <point x="540" y="700"/>
      <point x="313" y="700" type="curve" smooth="yes"/>
      <point x="107" y="700" type="line" smooth="yes"/>
      <point x="91" y="700"/>
      <point x="83" y="691"/>
      <point x="83" y="673" type="curve" smooth="yes"/>
    </contour>
    <contour>
      <point x="177" y="361" type="line"/>
      <point x="177" y="620" type="line"/>
      <point x="314" y="620" type="line" smooth="yes"/>
      <point x="464" y="620"/>
      <point x="500" y="576"/>
      <point x="500" y="491" type="curve" smooth="yes"/>
      <point x="500" y="402"/>
      <point x="459" y="361"/>
      <point x="314" y="361" type="curve" smooth="yes"/>
    </contour>
    <contour>
      <point x="0" y="0" type="move" name="mark6"/>
    </contour>
    <contour>
      <point x="0" y="0" type="move" name="mark1"/>
    </contour>
    <contour>
      <point x="317" y="0" type="move" name="mark3"/>
    </contour>
    <contour>
      <point x="0" y="0" type="move" name="mark5"/>
    </contour>
    <contour>
      <point x="0" y="0" type="move" name="mark0"/>
    </contour>
    <contour>
      <point x="0" y="0" type="move" name="mark2"/>
    </contour>
    <contour>
      <point x="317" y="715" type="move" name="mark4"/>
    </contour>
  </outline>
</glyph>
<glyph name="Q" format="1">
  <advance width="744"/>
  <unicode hex="0051"/>
  <outline>
    <contour>
      <point x="73" y="554"/>
      <point x="45" y="465"/>
      <point x="45" y="351" type="curve" smooth="yes"/>
      <point x="45" y="143"/>
      <point x="143" y="4"/>
      <point x="330" y="-13" type="curve"/>
      <point x="336" y="-102"/>
      <point x="388" y="-184"/>
      <point x="529" y="-184" type="curve" smooth="yes"/>
      <point x="559" y="-184"/>
      <point x="622" y="-180"/>
      <point x="626" y="-163" type="curve"/>
      <point x="616" y="-116" type="line" smooth="yes"/>
      <point x="615" y="-111"/>
      <point x="612" y="-109"/>
      <point x="605" y="-109" type="curve" smooth="yes"/>
      <point x="595" y="-109"/>
      <point x="570" y="-116"/>
      <point x="545" y="-116" type="curve" smooth="yes"/>
      <point x="472" y="-116"/>
      <point x="430" y="-77"/>
      <point x="423" y="-12" type="curve"/>
      <point x="604" y="8"/>
      <point x="699" y="146"/>
      <point x="699" y="350" type="curve" smooth="yes"/>
      <point x="699" y="576"/>
      <point x="585" y="715"/>
      <point x="372" y="715" type="curve" smooth="yes"/>
      <point x="266" y="715"/>
      <point x="185" y="683"/>
      <point x="129" y="618" type="curve" smooth="yes"/>
    </contour>
    <contour>
      <point x="164" y="188"/>
      <point x="145" y="259"/>
      <point x="145" y="350" type="curve" smooth="yes"/>
      <point x="145" y="533"/>
      <point x="221" y="639"/>
      <point x="372" y="639" type="curve" smooth="yes"/>
      <point x="521" y="639"/>
      <point x="599" y="536"/>
      <point x="599" y="350" type="curve" smooth="yes"/>
      <point x="599" y="166"/>
      <point x="524" y="62"/>
      <point x="372" y="62" type="curve" smooth="yes"/>
      <point x="296" y="62"/>
      <point x="239" y="87"/>
      <point x="201" y="137" type="curve"/>
    </contour>
    <contour>
      <point x="0" y="0" type="move" name="mark6"/>
    </contour>
    <contour>
      <point x="0" y="0" type="move" name="mark1"/>
    </contour>
    <contour>
      <point x="372" y="-195" type="move" name="mark3"/>
    </contour>
    <contour>
      <point x="0" y="0" type="move" name="mark5"/>
    </contour>
    <contour>
      <point x="0" y="0" type="move" name="mark0"/>
    </contour>
    <contour>
      <point x="0" y="0" type="move" name="mark2"/>
    </contour>
    <contour>
      <point x="372" y="715" type="move" name="mark4"/>
    </contour>
  </outline>
</glyph>
<glyph name="R" format="1">
  <advance width="681"/>
  <unicode hex="0052"/>
  <outline>
    <contour>
      <point x="83" y="27" type="line" smooth="yes"/>
      <point x="83" y="9"/>
      <point x="91" y="0"/>
      <point x="107" y="0" type="curve" smooth="yes"/>
      <point x="152" y="0" type="line" smooth="yes"/>
      <point x="169" y="0"/>
      <point x="177" y="9"/>
      <point x="177" y="27" type="curve" smooth="yes"/>
      <point x="177" y="303" type="line"/>
      <point x="262" y="303" type="line" smooth="yes"/>
      <point x="341" y="303"/>
      <point x="397" y="245"/>
      <point x="427" y="193" type="curve" smooth="yes"/>
      <point x="528" y="19" type="line" smooth="yes"/>
      <point x="536" y="6"/>
      <point x="548" y="0"/>
      <point x="563" y="0" type="curve" smooth="yes"/>
      <point x="618" y="0" type="line" smooth="yes"/>
      <point x="629" y="0"/>
      <point x="635" y="4"/>
      <point x="635" y="11" type="curve" smooth="yes"/>
      <point x="635" y="16"/>
      <point x="632" y="23"/>
      <point x="627" y="32" type="curve" smooth="yes"/>
      <point x="517" y="211" type="line" smooth="yes"/>
      <point x="488" y="258"/>
      <point x="487" y="266"/>
      <point x="415" y="320" type="curve"/>
      <point x="415" y="321" type="line"/>
      <point x="539" y="331"/>
      <point x="611" y="407"/>
      <point x="611" y="508" type="curve" smooth="yes"/>
      <point x="611" y="619"/>
      <point x="536" y="700"/>
      <point x="343" y="700" type="curve" smooth="yes"/>
      <point x="107" y="700" type="line" smooth="yes"/>
      <point x="91" y="700"/>
      <point x="83" y="691"/>
      <point x="83" y="673" type="curve" smooth="yes"/>
    </contour>
    <contour>
      <point x="177" y="383" type="line"/>
      <point x="177" y="620" type="line"/>
      <point x="341" y="620" type="line" smooth="yes"/>
      <point x="451" y="620"/>
      <point x="516" y="596"/>
      <point x="516" y="514" type="curve" smooth="yes"/>
      <point x="516" y="403"/>
      <point x="439" y="383"/>
      <point x="318" y="383" type="curve" smooth="yes"/>
    </contour>
    <contour>
      <point x="0" y="0" type="move" name="mark6"/>
    </contour>
    <contour>
      <point x="0" y="0" type="move" name="mark1"/>
    </contour>
    <contour>
      <point x="317" y="0" type="move" name="mark3"/>
    </contour>
    <contour>
      <point x="0" y="0" type="move" name="mark5"/>
    </contour>
    <contour>
      <point x="0" y="0" type="move" name="mark0"/>
    </contour>
    <contour>
      <point x="0" y="0" type="move" name="mark2"/>
    </contour>
    <contour>
      <point x="317" y="715" type="move" name="mark4"/>
    </contour>
  </outline>
</glyph>
<glyph name="S" format="1">
  <advance width="598"/>
  <unicode hex="0053"/>
  <outline>
    <contour>
      <point x="63" y="47"/>
      <point x="164" y="-15"/>
      <point x="314" y="-15" type="curve" smooth="yes"/>
      <point x="457" y="-15"/>
      <point x="557" y="47"/>
      <point x="557" y="184" type="curve" smooth="yes"/>
      <point x="557" y="281"/>
      <point x="503" y="359"/>
      <point x="337" y="402" type="curve"/>
      <point x="203" y="443"/>
      <point x="179" y="455"/>
      <point x="179" y="535" type="curve" smooth="yes"/>
      <point x="179" y="605"/>
      <point x="232" y="638"/>
      <point x="318" y="638" type="curve" smooth="yes"/>
      <point x="401" y="638"/>
      <point x="464" y="576"/>
      <point x="481" y="576" type="curve" smooth="yes"/>
      <point x="486" y="576"/>
      <point x="491" y="578"/>
      <point x="494" y="583" type="curve" smooth="yes"/>
      <point x="519" y="619" type="line" smooth="yes"/>
      <point x="522" y="624"/>
      <point x="524" y="629"/>
      <point x="524" y="632" type="curve" smooth="yes"/>
      <point x="524" y="641"/>
      <point x="518" y="649"/>
      <point x="507" y="657" type="curve" smooth="yes"/>
      <point x="451" y="696"/>
      <point x="388" y="715"/>
      <point x="317" y="715" type="curve" smooth="yes"/>
      <point x="220" y="715"/>
      <point x="85" y="675"/>
      <point x="85" y="534" type="curve" smooth="yes"/>
      <point x="85" y="420"/>
      <point x="129" y="363"/>
      <point x="302" y="311" type="curve"/>
      <point x="415" y="273"/>
      <point x="433" y="266"/>
      <point x="450" y="219" type="curve" smooth="yes"/>
      <point x="455" y="206"/>
      <point x="458" y="191"/>
      <point x="458" y="172" type="curve" smooth="yes"/>
      <point x="457" y="104"/>
      <point x="402" y="62"/>
      <point x="317" y="62" type="curve" smooth="yes"/>
      <point x="237" y="62"/>
      <point x="191" y="87"/>
      <point x="135" y="127" type="curve" smooth="yes"/>
      <point x="124" y="134"/>
      <point x="116" y="139"/>
      <point x="109" y="139" type="curve" smooth="yes"/>
      <point x="102" y="139"/>
      <point x="97" y="136"/>
      <point x="93" y="130" type="curve" smooth="yes"/>
      <point x="67" y="94" type="line" smooth="yes"/>
      <point x="64" y="89"/>
      <point x="63" y="85"/>
      <point x="63" y="82" type="curve" smooth="yes"/>
    </contour>
    <contour>
      <point x="0" y="0" type="move" name="mark6"/>
    </contour>
    <contour>
      <point x="0" y="0" type="move" name="mark1"/>
    </contour>
    <contour>
      <point x="302" y="0" type="move" name="mark3"/>
    </contour>
    <contour>
      <point x="0" y="0" type="move" name="mark5"/>
    </contour>
    <contour>
      <point x="0" y="0" type="move" name="mark0"/>
    </contour>
    <contour>
      <point x="0" y="0" type="move" name="mark2"/>
    </contour>
    <contour>
      <point x="305" y="715" type="move" name="mark4"/>
    </contour>
  </outline>
</glyph>
<glyph name="T" format="1">
  <advance width="605"/>
  <unicode hex="0054"/>
  <outline>
    <contour>
      <point x="18" y="638" type="line" smooth="yes"/>
      <point x="18" y="623"/>
      <point x="27" y="616"/>
      <point x="44" y="616" type="curve" smooth="yes"/>
      <point x="256" y="616" type="line"/>
      <point x="256" y="27" type="line" smooth="yes"/>
      <point x="256" y="9"/>
      <point x="264" y="0"/>
      <point x="280" y="0" type="curve" smooth="yes"/>
      <point x="325" y="0" type="line" smooth="yes"/>
      <point x="342" y="0"/>
      <point x="350" y="9"/>
      <point x="350" y="27" type="curve" smooth="yes"/>
      <point x="350" y="616" type="line"/>
      <point x="561" y="616" type="line" smooth="yes"/>
      <point x="579" y="616"/>
      <point x="588" y="623"/>
      <point x="588" y="638" type="curve" smooth="yes"/>
      <point x="588" y="678" type="line" smooth="yes"/>
      <point x="588" y="693"/>
      <point x="579" y="700"/>
      <point x="561" y="700" type="curve" smooth="yes"/>
      <point x="44" y="700" type="line" smooth="yes"/>
      <point x="27" y="700"/>
      <point x="18" y="693"/>
      <point x="18" y="678" type="curve" smooth="yes"/>
    </contour>
    <contour>
      <point x="0" y="0" type="move" name="mark6"/>
    </contour>
    <contour>
      <point x="0" y="0" type="move" name="mark1"/>
    </contour>
    <contour>
      <point x="303" y="0" type="move" name="mark3"/>
    </contour>
    <contour>
      <point x="0" y="0" type="move" name="mark5"/>
    </contour>
    <contour>
      <point x="0" y="0" type="move" name="mark0"/>
    </contour>
    <contour>
      <point x="0" y="0" type="move" name="mark2"/>
    </contour>
    <contour>
      <point x="303" y="715" type="move" name="mark4"/>
    </contour>
  </outline>
</glyph>
<glyph name="U" format="1">
  <advance width="685"/>
  <unicode hex="0055"/>
  <outline>
    <contour>
      <point x="83" y="267" type="line" smooth="yes"/>
      <point x="83" y="55"/>
      <point x="190" y="-15"/>
      <point x="342" y="-15" type="curve" smooth="yes"/>
      <point x="496" y="-15"/>
      <point x="602" y="59"/>
      <point x="602" y="267" type="curve" smooth="yes"/>
      <point x="602" y="673" type="line" smooth="yes"/>
      <point x="602" y="691"/>
      <point x="594" y="700"/>
      <point x="577" y="700" type="curve" smooth="yes"/>
      <point x="532" y="700" type="line" smooth="yes"/>
      <point x="516" y="700"/>
      <point x="508" y="691"/>
      <point x="508" y="673" type="curve" smooth="yes"/>
      <point x="508" y="282" type="line" smooth="yes"/>
      <point x="508" y="99"/>
      <point x="461" y="62"/>
      <point x="342" y="62" type="curve" smooth="yes"/>
      <point x="225" y="62"/>
      <point x="177" y="94"/>
      <point x="177" y="282" type="curve" smooth="yes"/>
      <point x="177" y="673" type="line" smooth="yes"/>
      <point x="177" y="691"/>
      <point x="169" y="700"/>
      <point x="152" y="700" type="curve" smooth="yes"/>
      <point x="107" y="700" type="line" smooth="yes"/>
      <point x="91" y="700"/>
      <point x="83" y="691"/>
      <point x="83" y="673" type="curve" smooth="yes"/>
    </contour>
    <contour>
      <point x="0" y="0" type="move" name="mark6"/>
    </contour>
    <contour>
      <point x="0" y="0" type="move" name="mark1"/>
    </contour>
    <contour>
      <point x="342" y="0" type="move" name="mark3"/>
    </contour>
    <contour>
      <point x="0" y="0" type="move" name="mark5"/>
    </contour>
    <contour>
      <point x="342" y="0" type="move" name="mark0"/>
    </contour>
    <contour>
      <point x="0" y="0" type="move" name="mark2"/>
    </contour>
    <contour>
      <point x="342" y="715" type="move" name="mark4"/>
    </contour>
  </outline>
</glyph>
<glyph name="V" format="1">
  <advance width="653"/>
  <unicode hex="0056"/>
  <outline>
    <contour>
      <point x="31" y="680"/>
      <point x="32" y="674"/>
      <point x="35" y="668" type="curve"/>
      <point x="272" y="30" type="line" smooth="yes"/>
      <point x="279" y="10"/>
      <point x="291" y="0"/>
      <point x="305" y="0" type="curve" smooth="yes"/>
      <point x="373" y="0" type="line" smooth="yes"/>
      <point x="388" y="0"/>
      <point x="397" y="10"/>
      <point x="405" y="30" type="curve" smooth="yes"/>
      <point x="643" y="668" type="line"/>
      <point x="646" y="674"/>
      <point x="647" y="680"/>
      <point x="647" y="685" type="curve" smooth="yes"/>
      <point x="647" y="695"/>
      <point x="641" y="700"/>
      <point x="630" y="700" type="curve" smooth="yes"/>
      <point x="580" y="700" type="line" smooth="yes"/>
      <point x="563" y="700"/>
      <point x="551" y="692"/>
      <point x="545" y="676" type="curve" smooth="yes"/>
      <point x="373" y="201" type="line"/>
      <point x="360" y="162" type="line" smooth="yes"/>
      <point x="348" y="126"/>
      <point x="344" y="100"/>
      <point x="340" y="84" type="curve"/>
      <point x="338" y="84" type="line"/>
      <point x="335" y="101"/>
      <point x="328" y="127"/>
      <point x="317" y="162" type="curve" smooth="yes"/>
      <point x="292" y="239" type="line"/>
      <point x="133" y="676" type="line" smooth="yes"/>
      <point x="127" y="692"/>
      <point x="115" y="700"/>
      <point x="98" y="700" type="curve" smooth="yes"/>
      <point x="48" y="700" type="line" smooth="yes"/>
      <point x="37" y="700"/>
      <point x="31" y="695"/>
      <point x="31" y="685" type="curve" smooth="yes"/>
    </contour>
    <contour>
      <point x="0" y="0" type="move" name="mark6"/>
    </contour>
    <contour>
      <point x="0" y="0" type="move" name="mark1"/>
    </contour>
    <contour>
      <point x="327" y="0" type="move" name="mark3"/>
    </contour>
    <contour>
      <point x="0" y="0" type="move" name="mark5"/>
    </contour>
    <contour>
      <point x="0" y="0" type="move" name="mark0"/>
    </contour>
    <contour>
      <point x="0" y="0" type="move" name="mark2"/>
    </contour>
    <contour>
      <point x="326" y="715" type="move" name="mark4"/>
    </contour>
  </outline>
</glyph>
<glyph name="W" format="1">
  <advance width="922"/>
  <unicode hex="0057"/>
  <outline>
    <contour>
      <point x="29" y="682"/>
      <point x="30" y="678"/>
      <point x="31" y="671" type="curve"/>
      <point x="199" y="38" type="line" smooth="yes"/>
      <point x="206" y="13"/>
      <point x="218" y="0"/>
      <point x="235" y="0" type="curve" smooth="yes"/>
      <point x="296" y="0" type="line" smooth="yes"/>
      <point x="312" y="0"/>
      <point x="324" y="14"/>
      <point x="331" y="41" type="curve" smooth="yes"/>
      <point x="449" y="509" type="line" smooth="yes"/>
      <point x="455" y="534"/>
      <point x="459" y="553"/>
      <point x="461" y="567" type="curve" smooth="yes"/>
      <point x="469" y="615" type="line"/>
      <point x="476" y="567" type="line" smooth="yes"/>
      <point x="479" y="547"/>
      <point x="484" y="528"/>
      <point x="489" y="509" type="curve" smooth="yes"/>
      <point x="606" y="41" type="line" smooth="yes"/>
      <point x="613" y="14"/>
      <point x="625" y="0"/>
      <point x="641" y="0" type="curve" smooth="yes"/>
      <point x="702" y="0" type="line" smooth="yes"/>
      <point x="720" y="0"/>
      <point x="731" y="13"/>
      <point x="738" y="38" type="curve" smooth="yes"/>
      <point x="906" y="671" type="line"/>
      <point x="908" y="676"/>
      <point x="909" y="681"/>
      <point x="909" y="685" type="curve" smooth="yes"/>
      <point x="909" y="695"/>
      <point x="904" y="700"/>
      <point x="894" y="700" type="curve" smooth="yes"/>
      <point x="834" y="700" type="line" smooth="yes"/>
      <point x="823" y="700"/>
      <point x="816" y="693"/>
      <point x="813" y="678" type="curve" smooth="yes"/>
      <point x="695" y="171" type="line"/>
      <point x="688" y="146"/>
      <point x="681" y="117"/>
      <point x="674" y="84" type="curve"/>
      <point x="671" y="84" type="line"/>
      <point x="660" y="152"/>
      <point x="645" y="214"/>
      <point x="645" y="208" type="curve"/>
      <point x="534" y="674" type="line" smooth="yes"/>
      <point x="530" y="691"/>
      <point x="517" y="700"/>
      <point x="502" y="700" type="curve" smooth="yes"/>
      <point x="435" y="700" type="line" smooth="yes"/>
      <point x="418" y="700"/>
      <point x="408" y="691"/>
      <point x="404" y="674" type="curve" smooth="yes"/>
      <point x="292" y="208" type="line"/>
      <point x="292" y="209"/>
      <point x="289" y="195"/>
      <point x="282" y="165" type="curve" smooth="yes"/>
      <point x="278" y="146"/>
      <point x="270" y="108"/>
      <point x="266" y="84" type="curve"/>
      <point x="264" y="84" type="line"/>
      <point x="256" y="121"/>
      <point x="246" y="163"/>
      <point x="233" y="208" type="curve"/>
      <point x="125" y="678" type="line" smooth="yes"/>
      <point x="121" y="693"/>
      <point x="113" y="700"/>
      <point x="104" y="700" type="curve" smooth="yes"/>
      <point x="44" y="700" type="line" smooth="yes"/>
      <point x="34" y="700"/>
      <point x="29" y="695"/>
      <point x="29" y="685" type="curve" smooth="yes"/>
    </contour>
    <contour>
      <point x="0" y="0" type="move" name="mark6"/>
    </contour>
    <contour>
      <point x="0" y="0" type="move" name="mark1"/>
    </contour>
    <contour>
      <point x="461" y="0" type="move" name="mark3"/>
    </contour>
    <contour>
      <point x="0" y="0" type="move" name="mark5"/>
    </contour>
    <contour>
      <point x="0" y="0" type="move" name="mark0"/>
    </contour>
    <contour>
      <point x="0" y="0" type="move" name="mark2"/>
    </contour>
    <contour>
      <point x="461" y="715" type="move" name="mark4"/>
    </contour>
  </outline>
</glyph>
<glyph name="X" format="1">
  <advance width="640"/>
  <unicode hex="0058"/>
  <outline>
    <contour>
      <point x="43" y="4"/>
      <point x="49" y="0"/>
      <point x="61" y="0" type="curve" smooth="yes"/>
      <point x="121" y="0" type="line" smooth="yes"/>
      <point x="136" y="0"/>
      <point x="146" y="6"/>
      <point x="155" y="19" type="curve" smooth="yes"/>
      <point x="343" y="296" type="line"/>
      <point x="530" y="19" type="line" smooth="yes"/>
      <point x="539" y="6"/>
      <point x="550" y="0"/>
      <point x="564" y="0" type="curve" smooth="yes"/>
      <point x="625" y="0" type="line" smooth="yes"/>
      <point x="637" y="0"/>
      <point x="643" y="4"/>
      <point x="643" y="11" type="curve" smooth="yes"/>
      <point x="643" y="16"/>
      <point x="640" y="23"/>
      <point x="634" y="32" type="curve" smooth="yes"/>
      <point x="399" y="361" type="line"/>
      <point x="617" y="668" type="line" smooth="yes"/>
      <point x="623" y="677"/>
      <point x="626" y="684"/>
      <point x="626" y="689" type="curve" smooth="yes"/>
      <point x="626" y="696"/>
      <point x="620" y="700"/>
      <point x="608" y="700" type="curve" smooth="yes"/>
      <point x="548" y="700" type="line" smooth="yes"/>
      <point x="532" y="700"/>
      <point x="522" y="694"/>
      <point x="514" y="681" type="curve" smooth="yes"/>
      <point x="343" y="426" type="line"/>
      <point x="171" y="681" type="line" smooth="yes"/>
      <point x="162" y="694"/>
      <point x="152" y="700"/>
      <point x="137" y="700" type="curve" smooth="yes"/>
      <point x="77" y="700" type="line" smooth="yes"/>
      <point x="65" y="700"/>
      <point x="59" y="696"/>
      <point x="59" y="689" type="curve" smooth="yes"/>
      <point x="59" y="684"/>
      <point x="62" y="677"/>
      <point x="68" y="668" type="curve" smooth="yes"/>
      <point x="286" y="361" type="line"/>
      <point x="52" y="32" type="line" smooth="yes"/>
      <point x="46" y="23"/>
      <point x="43" y="16"/>
      <point x="43" y="11" type="curve" smooth="yes"/>
    </contour>
    <contour>
      <point x="0" y="0" type="move" name="mark6"/>
    </contour>
    <contour>
      <point x="0" y="0" type="move" name="mark1"/>
    </contour>
    <contour>
      <point x="320" y="0" type="move" name="mark3"/>
    </contour>
    <contour>
      <point x="0" y="0" type="move" name="mark5"/>
    </contour>
    <contour>
      <point x="0" y="0" type="move" name="mark0"/>
    </contour>
    <contour>
      <point x="0" y="0" type="move" name="mark2"/>
    </contour>
    <contour>
      <point x="360" y="715" type="move" name="mark4"/>
    </contour>
  </outline>
</glyph>
<glyph name="Y" format="1">
  <advance width="636"/>
  <unicode hex="0059"/>
  <outline>
    <contour>
      <point x="39" y="683"/>
      <point x="42" y="677"/>
      <point x="47" y="668" type="curve" smooth="yes"/>
      <point x="292" y="288" type="line"/>
      <point x="292" y="27" type="line" smooth="yes"/>
      <point x="292" y="9"/>
      <point x="300" y="0"/>
      <point x="316" y="0" type="curve" smooth="yes"/>
      <point x="361" y="0" type="line" smooth="yes"/>
      <point x="378" y="0"/>
      <point x="386" y="9"/>
      <point x="386" y="27" type="curve" smooth="yes"/>
      <point x="386" y="288" type="line"/>
      <point x="630" y="668" type="line"/>
      <point x="636" y="676"/>
      <point x="639" y="683"/>
      <point x="639" y="688" type="curve" smooth="yes"/>
      <point x="639" y="696"/>
      <point x="632" y="700"/>
      <point x="617" y="700" type="curve" smooth="yes"/>
      <point x="563" y="700" type="line" smooth="yes"/>
      <point x="549" y="700"/>
      <point x="536" y="692"/>
      <point x="527" y="676" type="curve" smooth="yes"/>
      <point x="368" y="401" type="line" smooth="yes"/>
      <point x="359" y="385"/>
      <point x="349" y="367"/>
      <point x="340" y="346" type="curve"/>
      <point x="338" y="346" type="line"/>
      <point x="333" y="355"/>
      <point x="325" y="374"/>
      <point x="310" y="401" type="curve" smooth="yes"/>
      <point x="150" y="676" type="line" smooth="yes"/>
      <point x="141" y="692"/>
      <point x="130" y="700"/>
      <point x="115" y="700" type="curve" smooth="yes"/>
      <point x="61" y="700" type="line" smooth="yes"/>
      <point x="46" y="700"/>
      <point x="39" y="696"/>
      <point x="39" y="687" type="curve" smooth="yes"/>
    </contour>
    <contour>
      <point x="0" y="0" type="move" name="mark6"/>
    </contour>
    <contour>
      <point x="0" y="0" type="move" name="mark1"/>
    </contour>
    <contour>
      <point x="317" y="0" type="move" name="mark3"/>
    </contour>
    <contour>
      <point x="0" y="0" type="move" name="mark5"/>
    </contour>
    <contour>
      <point x="0" y="0" type="move" name="mark0"/>
    </contour>
    <contour>
      <point x="0" y="0" type="move" name="mark2"/>
    </contour>
    <contour>
      <point x="317" y="715" type="move" name="mark4"/>
    </contour>
  </outline>
</glyph>
<glyph name="Z" format="1">
  <advance width="594"/>
  <unicode hex="005A"/>
  <outline>
    <contour>
      <point x="32" y="22" type="line" smooth="yes"/>
      <point x="32" y="7"/>
      <point x="41" y="0"/>
      <point x="59" y="0" type="curve" smooth="yes"/>
      <point x="535" y="0" type="line" smooth="yes"/>
      <point x="553" y="0"/>
      <point x="562" y="7"/>
      <point x="562" y="22" type="curve" smooth="yes"/>
      <point x="562" y="58" type="line" smooth="yes"/>
      <point x="562" y="73"/>
      <point x="553" y="80"/>
      <point x="535" y="80" type="curve" smooth="yes"/>
      <point x="192" y="80" type="line" smooth="yes"/>
      <point x="172" y="80"/>
      <point x="159" y="80"/>
      <point x="153" y="79" type="curve"/>
      <point x="153" y="81" type="line"/>
      <point x="542" y="633" type="line"/>
      <point x="548" y="643"/>
      <point x="551" y="653"/>
      <point x="551" y="663" type="curve" smooth="yes"/>
      <point x="551" y="678" type="line" smooth="yes"/>
      <point x="551" y="693"/>
      <point x="542" y="700"/>
      <point x="524" y="700" type="curve" smooth="yes"/>
      <point x="74" y="700" type="line" smooth="yes"/>
      <point x="56" y="700"/>
      <point x="47" y="693"/>
      <point x="47" y="678" type="curve" smooth="yes"/>
      <point x="47" y="642" type="line" smooth="yes"/>
      <point x="47" y="627"/>
      <point x="56" y="620"/>
      <point x="74" y="620" type="curve" smooth="yes"/>
      <point x="430" y="621" type="line"/>
      <point x="430" y="619" type="line"/>
      <point x="46" y="89" type="line" smooth="yes"/>
      <point x="37" y="76"/>
      <point x="32" y="61"/>
      <point x="32" y="45" type="curve" smooth="yes"/>
    </contour>
    <contour>
      <point x="0" y="0" type="move" name="mark6"/>
    </contour>
    <contour>
      <point x="0" y="0" type="move" name="mark1"/>
    </contour>
    <contour>
      <point x="297" y="0" type="move" name="mark3"/>
    </contour>
    <contour>
      <point x="0" y="0" type="move" name="mark5"/>
    </contour>
    <contour>
      <point x="0" y="0" type="move" name="mark0"/>
    </contour>
    <contour>
      <point x="0" y="0" type="move" name="mark2"/>
    </contour>
    <contour>
      <point x="297" y="715" type="move" name="mark4"/>
    </contour>
  </outline>
</glyph>
<glyph name="bracketleft" format="1">
  <advance width="321"/>
  <unicode hex="005B"/>
  <outline>
    <contour>
      <point x="83" y="-177" type="line" smooth="yes"/>
      <point x="83" y="-192"/>
      <point x="90" y="-199"/>
      <point x="105" y="-199" type="curve" smooth="yes"/>
      <point x="265" y="-199" type="line" smooth="yes"/>
      <point x="280" y="-199"/>
      <point x="287" y="-193"/>
      <point x="287" y="-182" type="curve" smooth="yes"/>
      <point x="287" y="-153" type="line" smooth="yes"/>
      <point x="287" y="-142"/>
      <point x="280" y="-136"/>
      <point x="265" y="-136" type="curve" smooth="yes"/>
      <point x="169" y="-136" type="line"/>
      <point x="169" y="667" type="line"/>
      <point x="265" y="667" type="line" smooth="yes"/>
      <point x="280" y="667"/>
      <point x="287" y="673"/>
      <point x="287" y="684" type="curve" smooth="yes"/>
      <point x="287" y="713" type="line" smooth="yes"/>
      <point x="287" y="724"/>
      <point x="280" y="730"/>
      <point x="265" y="730" type="curve" smooth="yes"/>
      <point x="105" y="730" type="line" smooth="yes"/>
      <point x="90" y="730"/>
      <point x="83" y="723"/>
      <point x="83" y="708" type="curve" smooth="yes"/>
    </contour>
  </outline>
</glyph>
<glyph name="backslash" format="1">
  <advance width="410"/>
  <unicode hex="005C"/>
  <outline>
    <contour>
      <point x="9" y="689"/>
      <point x="10" y="684"/>
      <point x="12" y="679" type="curve" smooth="yes"/>
      <point x="361" y="-186" type="line" smooth="yes"/>
      <point x="365" y="-196"/>
      <point x="371" y="-201"/>
      <point x="378" y="-201" type="curve" smooth="yes"/>
      <point x="381" y="-201"/>
      <point x="384" y="-201"/>
      <point x="385" y="-200" type="curve" smooth="yes"/>
      <point x="407" y="-191" type="line" smooth="yes"/>
      <point x="414" y="-188"/>
      <point x="418" y="-183"/>
      <point x="418" y="-176" type="curve" smooth="yes"/>
      <point x="418" y="-172"/>
      <point x="417" y="-168"/>
      <point x="415" y="-164" type="curve" smooth="yes"/>
      <point x="66" y="701" type="line"/>
      <point x="63" y="711"/>
      <point x="57" y="716"/>
      <point x="49" y="716" type="curve" smooth="yes"/>
      <point x="46" y="716"/>
      <point x="43" y="716"/>
      <point x="41" y="715" type="curve" smooth="yes"/>
      <point x="19" y="706" type="line" smooth="yes"/>
      <point x="12" y="703"/>
      <point x="9" y="699"/>
      <point x="9" y="692" type="curve" smooth="yes"/>
    </contour>
  </outline>
</glyph>
<glyph name="bracketright" format="1">
  <advance width="321"/>
  <unicode hex="005D"/>
  <outline>
    <contour>
      <point x="34" y="-182" type="line" smooth="yes"/>
      <point x="34" y="-193"/>
      <point x="41" y="-199"/>
      <point x="56" y="-199" type="curve" smooth="yes"/>
      <point x="216" y="-199" type="line" smooth="yes"/>
      <point x="231" y="-199"/>
      <point x="238" y="-192"/>
      <point x="238" y="-177" type="curve" smooth="yes"/>
      <point x="238" y="708" type="line" smooth="yes"/>
      <point x="238" y="723"/>
      <point x="231" y="730"/>
      <point x="216" y="730" type="curve" smooth="yes"/>
      <point x="56" y="730" type="line" smooth="yes"/>
      <point x="41" y="730"/>
      <point x="34" y="724"/>
      <point x="34" y="713" type="curve" smooth="yes"/>
      <point x="34" y="684" type="line" smooth="yes"/>
      <point x="34" y="673"/>
      <point x="41" y="667"/>
      <point x="56" y="667" type="curve" smooth="yes"/>
      <point x="152" y="667" type="line"/>
      <point x="152" y="-136" type="line"/>
      <point x="56" y="-136" type="line" smooth="yes"/>
      <point x="41" y="-136"/>
      <point x="34" y="-142"/>
      <point x="34" y="-153" type="curve" smooth="yes"/>
    </contour>
  </outline>
</glyph>
<glyph name="asciicircum" format="1">
  <advance width="423"/>
  <unicode hex="005E"/>
  <outline>
    <contour>
      <point x="47" y="459"/>
      <point x="50" y="454"/>
      <point x="55" y="451" type="curve" smooth="yes"/>
      <point x="79" y="435" type="line" smooth="yes"/>
      <point x="82" y="433"/>
      <point x="85" y="432"/>
      <point x="88" y="432" type="curve" smooth="yes"/>
      <point x="95" y="432"/>
      <point x="100" y="436"/>
      <point x="105" y="445" type="curve" smooth="yes"/>
      <point x="223" y="630" type="line"/>
      <point x="340" y="445" type="line" smooth="yes"/>
      <point x="345" y="436"/>
      <point x="350" y="432"/>
      <point x="357" y="432" type="curve" smooth="yes"/>
      <point x="360" y="432"/>
      <point x="363" y="433"/>
      <point x="366" y="435" type="curve" smooth="yes"/>
      <point x="390" y="451" type="line" smooth="yes"/>
      <point x="395" y="454"/>
      <point x="398" y="459"/>
      <point x="398" y="464" type="curve" smooth="yes"/>
      <point x="398" y="468"/>
      <point x="396" y="473"/>
      <point x="393" y="478" type="curve" smooth="yes"/>
      <point x="265" y="684" type="line" smooth="yes"/>
      <point x="258" y="695"/>
      <point x="248" y="700"/>
      <point x="233" y="700" type="curve" smooth="yes"/>
      <point x="212" y="700" type="line" smooth="yes"/>
      <point x="198" y="700"/>
      <point x="188" y="695"/>
      <point x="181" y="684" type="curve" smooth="yes"/>
      <point x="52" y="478" type="line" smooth="yes"/>
      <point x="49" y="473"/>
      <point x="47" y="468"/>
      <point x="47" y="464" type="curve" smooth="yes"/>
    </contour>
  </outline>
</glyph>
<glyph name="underscore" format="1">
  <advance width="537"/>
  <unicode hex="005F"/>
  <outline>
    <contour>
      <point x="-12" y="-173" type="line" smooth="yes"/>
      <point x="-12" y="-184"/>
      <point x="-5" y="-190"/>
      <point x="10" y="-190" type="curve" smooth="yes"/>
      <point x="527" y="-190" type="line" smooth="yes"/>
      <point x="542" y="-190"/>
      <point x="549" y="-184"/>
      <point x="549" y="-173" type="curve" smooth="yes"/>
      <point x="549" y="-144" type="line" smooth="yes"/>
      <point x="549" y="-133"/>
      <point x="542" y="-127"/>
      <point x="527" y="-127" type="curve" smooth="yes"/>
      <point x="10" y="-127" type="line" smooth="yes"/>
      <point x="-5" y="-127"/>
      <point x="-12" y="-133"/>
      <point x="-12" y="-144" type="curve" smooth="yes"/>
    </contour>
  </outline>
</glyph>
<glyph name="grave" format="1">
  <advance width="286"/>
  <unicode hex="0060"/>
  <outline>
    <contour>
      <point x="50" y="688"/>
      <point x="53" y="682"/>
      <point x="59" y="675" type="curve" smooth="yes"/>
      <point x="146" y="576" type="line" smooth="yes"/>
      <point x="154" y="567"/>
      <point x="168" y="562"/>
      <point x="186" y="562" type="curve" smooth="yes"/>
      <point x="222" y="562" type="line" smooth="yes"/>
      <point x="231" y="562"/>
      <point x="236" y="565"/>
      <point x="236" y="570" type="curve" smooth="yes"/>
      <point x="236" y="574"/>
      <point x="233" y="580"/>
      <point x="228" y="587" type="curve" smooth="yes"/>
      <point x="160" y="683" type="line" smooth="yes"/>
      <point x="152" y="695"/>
      <point x="139" y="701"/>
      <point x="120" y="701" type="curve" smooth="yes"/>
      <point x="66" y="701" type="line" smooth="yes"/>
      <point x="55" y="701"/>
      <point x="50" y="698"/>
      <point x="50" y="692" type="curve" smooth="yes"/>
    </contour>
  </outline>
</glyph>
<glyph name="b" format="1">
  <advance width="546"/>
  <unicode hex="0062"/>
  <outline>
    <contour>
      <point x="69" y="22" type="line" smooth="yes"/>
      <point x="69" y="7"/>
      <point x="76" y="0"/>
      <point x="91" y="0" type="curve" smooth="yes"/>
      <point x="132" y="0" type="line" smooth="yes"/>
      <point x="144" y="0"/>
      <point x="149" y="7"/>
      <point x="151" y="22" type="curve" smooth="yes"/>
      <point x="155" y="61" type="line"/>
      <point x="197" y="13"/>
      <point x="231" y="-8"/>
      <point x="306" y="-8" type="curve" smooth="yes"/>
      <point x="440" y="-8"/>
      <point x="505" y="123"/>
      <point x="505" y="256" type="curve" smooth="yes"/>
      <point x="505" y="393"/>
      <point x="437" y="521"/>
      <point x="306" y="521" type="curve" smooth="yes"/>
      <point x="228" y="521"/>
      <point x="193" y="496"/>
      <point x="155" y="452" type="curve"/>
      <point x="154" y="452" type="line"/>
      <point x="155" y="458"/>
      <point x="155" y="468"/>
      <point x="155" y="481" type="curve" smooth="yes"/>
      <point x="155" y="699" type="line" smooth="yes"/>
      <point x="155" y="714"/>
      <point x="148" y="721"/>
      <point x="133" y="721" type="curve" smooth="yes"/>
      <point x="91" y="721" type="line" smooth="yes"/>
      <point x="76" y="721"/>
      <point x="69" y="714"/>
      <point x="69" y="699" type="curve" smooth="yes"/>
    </contour>
    <contour>
      <point x="167" y="116"/>
      <point x="155" y="152"/>
      <point x="155" y="200" type="curve" smooth="yes"/>
      <point x="155" y="313" type="line" smooth="yes"/>
      <point x="155" y="407"/>
      <point x="208" y="458"/>
      <point x="278" y="458" type="curve" smooth="yes"/>
      <point x="377" y="458"/>
      <point x="414" y="375"/>
      <point x="414" y="256" type="curve" smooth="yes"/>
      <point x="414" y="138"/>
      <point x="377" y="55"/>
      <point x="278" y="55" type="curve" smooth="yes"/>
      <point x="243" y="55"/>
      <point x="213" y="67"/>
      <point x="190" y="91" type="curve" smooth="yes"/>
    </contour>
    <contour>
      <point x="0" y="0" type="move" name="mark6"/>
    </contour>
    <contour>
      <point x="546" y="-195" type="move" name="mark1"/>
    </contour>
    <contour>
      <point x="287" y="0" type="move" name="mark3"/>
    </contour>
    <contour>
      <point x="0" y="0" type="move" name="mark5"/>
    </contour>
    <contour>
      <point x="0" y="0" type="move" name="mark0"/>
    </contour>
    <contour>
      <point x="546" y="721" type="move" name="mark2"/>
    </contour>
    <contour>
      <point x="287" y="721" type="move" name="mark4"/>
    </contour>
  </outline>
</glyph>
<glyph name="c" format="1">
  <advance width="501"/>
  <unicode hex="0063"/>
  <outline>
    <contour>
      <point x="61" y="395"/>
      <point x="42" y="332"/>
      <point x="42" y="256" type="curve" smooth="yes"/>
      <point x="42" y="109"/>
      <point x="111" y="-8"/>
      <point x="272" y="-8" type="curve" smooth="yes"/>
      <point x="399" y="-8"/>
      <point x="450" y="64"/>
      <point x="463" y="88" type="curve" smooth="yes"/>
      <point x="466" y="93"/>
      <point x="468" y="98"/>
      <point x="468" y="102" type="curve" smooth="yes"/>
      <point x="468" y="108"/>
      <point x="465" y="112"/>
      <point x="459" y="115" type="curve" smooth="yes"/>
      <point x="426" y="134" type="line" smooth="yes"/>
      <point x="423" y="136"/>
      <point x="420" y="137"/>
      <point x="417" y="137" type="curve" smooth="yes"/>
      <point x="391" y="137"/>
      <point x="383" y="55"/>
      <point x="272" y="55" type="curve" smooth="yes"/>
      <point x="181" y="55"/>
      <point x="132" y="123"/>
      <point x="132" y="256" type="curve" smooth="yes"/>
      <point x="132" y="391"/>
      <point x="181" y="458"/>
      <point x="272" y="458" type="curve" smooth="yes"/>
      <point x="372" y="458"/>
      <point x="389" y="387"/>
      <point x="409" y="387" type="curve" smooth="yes"/>
      <point x="412" y="387"/>
      <point x="415" y="388"/>
      <point x="418" y="390" type="curve" smooth="yes"/>
      <point x="449" y="410" type="line" smooth="yes"/>
      <point x="455" y="414"/>
      <point x="458" y="419"/>
      <point x="458" y="424" type="curve" smooth="yes"/>
      <point x="458" y="442"/>
      <point x="423" y="472"/>
      <point x="393" y="493" type="curve" smooth="yes"/>
      <point x="366" y="512"/>
      <point x="325" y="521"/>
      <point x="272" y="521" type="curve" smooth="yes"/>
      <point x="194" y="521"/>
      <point x="136" y="496"/>
      <point x="98" y="446" type="curve"/>
    </contour>
    <contour>
      <point x="0" y="0" type="move" name="mark6"/>
    </contour>
    <contour>
      <point x="501" y="-195" type="move" name="mark1"/>
    </contour>
    <contour>
      <point x="272" y="0" type="move" name="mark3"/>
    </contour>
    <contour>
      <point x="0" y="0" type="move" name="mark5"/>
    </contour>
    <contour>
      <point x="0" y="0" type="move" name="mark0"/>
    </contour>
    <contour>
      <point x="501" y="721" type="move" name="mark2"/>
    </contour>
    <contour>
      <point x="272" y="521" type="move" name="mark4"/>
    </contour>
  </outline>
</glyph>
<glyph name="d" format="1">
  <advance width="546"/>
  <unicode hex="0064"/>
  <outline>
    <contour>
      <point x="59" y="388"/>
      <point x="42" y="326"/>
      <point x="42" y="256" type="curve" smooth="yes"/>
      <point x="42" y="124"/>
      <point x="105" y="-8"/>
      <point x="241" y="-8" type="curve" smooth="yes"/>
      <point x="312" y="-8"/>
      <point x="350" y="12"/>
      <point x="391" y="61" type="curve"/>
      <point x="395" y="22" type="line" smooth="yes"/>
      <point x="396" y="7"/>
      <point x="401" y="0"/>
      <point x="414" y="0" type="curve" smooth="yes"/>
      <point x="455" y="0" type="line" smooth="yes"/>
      <point x="470" y="0"/>
      <point x="477" y="7"/>
      <point x="477" y="22" type="curve" smooth="yes"/>
      <point x="477" y="699" type="line" smooth="yes"/>
      <point x="477" y="714"/>
      <point x="470" y="721"/>
      <point x="455" y="721" type="curve" smooth="yes"/>
      <point x="413" y="721" type="line" smooth="yes"/>
      <point x="398" y="721"/>
      <point x="391" y="714"/>
      <point x="391" y="699" type="curve" smooth="yes"/>
      <point x="392" y="452" type="line"/>
      <point x="391" y="452" type="line"/>
      <point x="350" y="497"/>
      <point x="314" y="521"/>
      <point x="241" y="521" type="curve" smooth="yes"/>
      <point x="176" y="521"/>
      <point x="126" y="494"/>
      <point x="92" y="441" type="curve" smooth="yes"/>
    </contour>
    <contour>
      <point x="142" y="149"/>
      <point x="132" y="197"/>
      <point x="132" y="256" type="curve" smooth="yes"/>
      <point x="132" y="371"/>
      <point x="167" y="458"/>
      <point x="269" y="458" type="curve" smooth="yes"/>
      <point x="339" y="458"/>
      <point x="391" y="407"/>
      <point x="391" y="313" type="curve" smooth="yes"/>
      <point x="391" y="200" type="line" smooth="yes"/>
      <point x="391" y="105"/>
      <point x="339" y="55"/>
      <point x="269" y="55" type="curve" smooth="yes"/>
      <point x="220" y="55"/>
      <point x="184" y="74"/>
      <point x="163" y="111" type="curve" smooth="yes"/>
    </contour>
    <contour>
      <point x="0" y="0" type="move" name="mark6"/>
    </contour>
    <contour>
      <point x="546" y="-195" type="move" name="mark1"/>
    </contour>
    <contour>
      <point x="259" y="0" type="move" name="mark3"/>
    </contour>
    <contour>
      <point x="0" y="0" type="move" name="mark5"/>
    </contour>
    <contour>
      <point x="0" y="0" type="move" name="mark0"/>
    </contour>
    <contour>
      <point x="516" y="700" type="move" name="topright"/>
    </contour>
    <contour>
      <point x="437" y="721" type="move" name="mark4"/>
    </contour>
  </outline>
</glyph>
<glyph name="e" format="1">
  <advance width="536"/>
  <unicode hex="0065"/>
  <outline>
    <contour>
      <point x="62" y="401"/>
      <point x="42" y="337"/>
      <point x="42" y="256" type="curve" smooth="yes"/>
      <point x="42" y="96"/>
      <point x="115" y="-8"/>
      <point x="279" y="-8" type="curve" smooth="yes"/>
      <point x="449" y="-8"/>
      <point x="475" y="84"/>
      <point x="475" y="84" type="curve"/>
      <point x="475" y="89"/>
      <point x="473" y="92"/>
      <point x="470" y="95" type="curve" smooth="yes"/>
      <point x="441" y="120" type="line"/>
      <point x="436" y="123"/>
      <point x="432" y="125"/>
      <point x="429" y="125" type="curve" smooth="yes"/>
      <point x="404" y="125"/>
      <point x="389" y="56"/>
      <point x="279" y="56" type="curve" smooth="yes"/>
      <point x="207" y="56"/>
      <point x="144" y="97"/>
      <point x="132" y="224" type="curve"/>
      <point x="473" y="224" type="line" smooth="yes"/>
      <point x="486" y="224"/>
      <point x="493" y="231"/>
      <point x="493" y="246" type="curve" smooth="yes"/>
      <point x="493" y="441"/>
      <point x="397" y="521"/>
      <point x="275" y="521" type="curve" smooth="yes"/>
      <point x="200" y="521"/>
      <point x="143" y="497"/>
      <point x="102" y="449" type="curve" smooth="yes"/>
    </contour>
    <contour>
      <point x="394" y="372"/>
      <point x="405" y="332"/>
      <point x="406" y="287" type="curve"/>
      <point x="130" y="287" type="line"/>
      <point x="140" y="418"/>
      <point x="200" y="458"/>
      <point x="273" y="458" type="curve" smooth="yes"/>
      <point x="316" y="458"/>
      <point x="349" y="441"/>
      <point x="371" y="407" type="curve" smooth="yes"/>
    </contour>
    <contour>
      <point x="0" y="0" type="move" name="mark6"/>
    </contour>
    <contour>
      <point x="536" y="-195" type="move" name="mark1"/>
    </contour>
    <contour>
      <point x="279" y="0" type="move" name="mark3"/>
    </contour>
    <contour>
      <point x="0" y="0" type="move" name="mark5"/>
    </contour>
    <contour>
      <point x="279" y="0" type="move" name="mark0"/>
    </contour>
    <contour>
      <point x="536" y="721" type="move" name="mark2"/>
    </contour>
    <contour>
      <point x="275" y="521" type="move" name="mark4"/>
    </contour>
  </outline>
</glyph>
<glyph name="f" format="1">
  <advance width="318"/>
  <unicode hex="0066"/>
  <outline>
    <contour>
      <point x="22" y="465" type="line" smooth="yes"/>
      <point x="22" y="454"/>
      <point x="29" y="448"/>
      <point x="44" y="448" type="curve" smooth="yes"/>
      <point x="96" y="448" type="line"/>
      <point x="96" y="22" type="line" smooth="yes"/>
      <point x="96" y="7"/>
      <point x="103" y="0"/>
      <point x="118" y="0" type="curve" smooth="yes"/>
      <point x="160" y="0" type="line" smooth="yes"/>
      <point x="175" y="0"/>
      <point x="182" y="7"/>
      <point x="182" y="22" type="curve" smooth="yes"/>
      <point x="182" y="448" type="line"/>
      <point x="271" y="448" type="line" smooth="yes"/>
      <point x="286" y="448"/>
      <point x="293" y="454"/>
      <point x="293" y="465" type="curve" smooth="yes"/>
      <point x="293" y="496" type="line" smooth="yes"/>
      <point x="293" y="507"/>
      <point x="286" y="513"/>
      <point x="271" y="513" type="curve" smooth="yes"/>
      <point x="182" y="513" type="line"/>
      <point x="182" y="571" type="line" smooth="yes"/>
      <point x="182" y="645"/>
      <point x="205" y="666"/>
      <point x="258" y="666" type="curve" smooth="yes"/>
      <point x="279" y="666"/>
      <point x="299" y="661"/>
      <point x="318" y="652" type="curve"/>
      <point x="326" y="650" type="line"/>
      <point x="331" y="650"/>
      <point x="334" y="652"/>
      <point x="335" y="656" type="curve" smooth="yes"/>
      <point x="351" y="695" type="line" smooth="yes"/>
      <point x="352" y="697"/>
      <point x="352" y="699"/>
      <point x="352" y="701" type="curve" smooth="yes"/>
      <point x="352" y="724"/>
      <point x="266" y="729"/>
      <point x="241" y="729" type="curve" smooth="yes"/>
      <point x="166" y="729"/>
      <point x="96" y="695"/>
      <point x="96" y="585" type="curve" smooth="yes"/>
      <point x="96" y="513" type="line"/>
      <point x="44" y="513" type="line" smooth="yes"/>
      <point x="29" y="513"/>
      <point x="22" y="507"/>
      <point x="22" y="496" type="curve" smooth="yes"/>
    </contour>
    <contour>
      <point x="0" y="0" type="move" name="mark6"/>
    </contour>
    <contour>
      <point x="318" y="-195" type="move" name="mark1"/>
    </contour>
    <contour>
      <point x="139" y="0" type="move" name="mark3"/>
    </contour>
    <contour>
      <point x="0" y="0" type="move" name="mark5"/>
    </contour>
    <contour>
      <point x="0" y="0" type="move" name="mark0"/>
    </contour>
    <contour>
      <point x="318" y="721" type="move" name="mark2"/>
    </contour>
    <contour>
      <point x="241" y="721" type="move" name="mark4"/>
    </contour>
  </outline>
</glyph>
<glyph name="g" format="1">
  <advance width="546"/>
  <unicode hex="0067"/>
  <outline>
    <contour>
      <point x="59" y="388"/>
      <point x="42" y="326"/>
      <point x="42" y="256" type="curve" smooth="yes"/>
      <point x="42" y="124"/>
      <point x="105" y="-8"/>
      <point x="241" y="-8" type="curve" smooth="yes"/>
      <point x="315" y="-8"/>
      <point x="357" y="18"/>
      <point x="391" y="64" type="curve"/>
      <point x="392" y="64" type="line"/>
      <point x="391" y="5" type="line" smooth="yes"/>
      <point x="389" y="-111"/>
      <point x="357" y="-140"/>
      <point x="264" y="-140" type="curve" smooth="yes"/>
      <point x="184" y="-140"/>
      <point x="170" y="-132"/>
      <point x="131" y="-97" type="curve" smooth="yes"/>
      <point x="122" y="-90"/>
      <point x="115" y="-86"/>
      <point x="110" y="-86" type="curve" smooth="yes"/>
      <point x="106" y="-86"/>
      <point x="103" y="-87"/>
      <point x="100" y="-90" type="curve" smooth="yes"/>
      <point x="73" y="-116" type="line" smooth="yes"/>
      <point x="70" y="-119"/>
      <point x="68" y="-123"/>
      <point x="68" y="-128" type="curve" smooth="yes"/>
      <point x="68" y="-156"/>
      <point x="136" y="-204"/>
      <point x="263" y="-204" type="curve" smooth="yes"/>
      <point x="436" y="-204"/>
      <point x="477" y="-124"/>
      <point x="477" y="-4" type="curve" smooth="yes"/>
      <point x="477" y="491" type="line" smooth="yes"/>
      <point x="477" y="506"/>
      <point x="470" y="513"/>
      <point x="455" y="513" type="curve" smooth="yes"/>
      <point x="414" y="513" type="line" smooth="yes"/>
      <point x="402" y="513"/>
      <point x="396" y="506"/>
      <point x="395" y="491" type="curve" smooth="yes"/>
      <point x="391" y="452" type="line"/>
      <point x="350" y="497"/>
      <point x="314" y="521"/>
      <point x="241" y="521" type="curve" smooth="yes"/>
      <point x="176" y="521"/>
      <point x="126" y="494"/>
      <point x="92" y="441" type="curve" smooth="yes"/>
    </contour>
    <contour>
      <point x="142" y="149"/>
      <point x="132" y="197"/>
      <point x="132" y="256" type="curve" smooth="yes"/>
      <point x="132" y="371"/>
      <point x="167" y="458"/>
      <point x="269" y="458" type="curve" smooth="yes"/>
      <point x="339" y="458"/>
      <point x="391" y="407"/>
      <point x="391" y="313" type="curve" smooth="yes"/>
      <point x="391" y="200" type="line" smooth="yes"/>
      <point x="391" y="105"/>
      <point x="339" y="55"/>
      <point x="269" y="55" type="curve" smooth="yes"/>
      <point x="220" y="55"/>
      <point x="184" y="74"/>
      <point x="163" y="111" type="curve" smooth="yes"/>
    </contour>
    <contour>
      <point x="0" y="0" type="move" name="mark6"/>
    </contour>
    <contour>
      <point x="546" y="-195" type="move" name="mark1"/>
    </contour>
    <contour>
      <point x="263" y="-195" type="move" name="mark3"/>
    </contour>
    <contour>
      <point x="0" y="0" type="move" name="mark5"/>
    </contour>
    <contour>
      <point x="0" y="0" type="move" name="mark0"/>
    </contour>
    <contour>
      <point x="546" y="721" type="move" name="mark2"/>
    </contour>
    <contour>
      <point x="259" y="521" type="move" name="mark4"/>
    </contour>
  </outline>
</glyph>
<glyph name="h" format="1">
  <advance width="551"/>
  <unicode hex="0068"/>
  <outline>
    <contour>
      <point x="69" y="22" type="line" smooth="yes"/>
      <point x="69" y="7"/>
      <point x="76" y="0"/>
      <point x="91" y="0" type="curve" smooth="yes"/>
      <point x="133" y="0" type="line" smooth="yes"/>
      <point x="148" y="0"/>
      <point x="155" y="7"/>
      <point x="155" y="22" type="curve" smooth="yes"/>
      <point x="155" y="290" type="line" smooth="yes"/>
      <point x="155" y="417"/>
      <point x="204" y="458"/>
      <point x="284" y="458" type="curve" smooth="yes"/>
      <point x="347" y="458"/>
      <point x="396" y="443"/>
      <point x="396" y="311" type="curve" smooth="yes"/>
      <point x="396" y="22" type="line" smooth="yes"/>
      <point x="396" y="7"/>
      <point x="403" y="0"/>
      <point x="418" y="0" type="curve" smooth="yes"/>
      <point x="460" y="0" type="line" smooth="yes"/>
      <point x="475" y="0"/>
      <point x="482" y="7"/>
      <point x="482" y="22" type="curve" smooth="yes"/>
      <point x="482" y="334" type="line" smooth="yes"/>
      <point x="482" y="449"/>
      <point x="434" y="521"/>
      <point x="316" y="521" type="curve" smooth="yes"/>
      <point x="245" y="521"/>
      <point x="201" y="501"/>
      <point x="156" y="452" type="curve"/>
      <point x="154" y="452" type="line"/>
      <point x="155" y="458"/>
      <point x="155" y="468"/>
      <point x="155" y="481" type="curve" smooth="yes"/>
      <point x="155" y="699" type="line" smooth="yes"/>
      <point x="155" y="714"/>
      <point x="148" y="721"/>
      <point x="133" y="721" type="curve" smooth="yes"/>
      <point x="91" y="721" type="line" smooth="yes"/>
      <point x="76" y="721"/>
      <point x="69" y="714"/>
      <point x="69" y="699" type="curve" smooth="yes"/>
    </contour>
    <contour>
      <point x="0" y="0" type="move" name="mark6"/>
    </contour>
    <contour>
      <point x="551" y="-195" type="move" name="mark1"/>
    </contour>
    <contour>
      <point x="276" y="0" type="move" name="mark3"/>
    </contour>
    <contour>
      <point x="0" y="0" type="move" name="mark5"/>
    </contour>
    <contour>
      <point x="0" y="0" type="move" name="mark0"/>
    </contour>
    <contour>
      <point x="551" y="721" type="move" name="mark2"/>
    </contour>
    <contour>
      <point x="276" y="721" type="move" name="mark4"/>
    </contour>
  </outline>
</glyph>
<glyph name="k" format="1">
  <advance width="490"/>
  <unicode hex="006B"/>
  <outline>
    <contour>
      <point x="69" y="22" type="line" smooth="yes"/>
      <point x="69" y="7"/>
      <point x="76" y="0"/>
      <point x="91" y="0" type="curve" smooth="yes"/>
      <point x="133" y="0" type="line" smooth="yes"/>
      <point x="148" y="0"/>
      <point x="155" y="7"/>
      <point x="155" y="22" type="curve" smooth="yes"/>
      <point x="155" y="149" type="line"/>
      <point x="229" y="237" type="line"/>
      <point x="370" y="18" type="line" smooth="yes"/>
      <point x="377" y="6"/>
      <point x="385" y="0"/>
      <point x="397" y="0" type="curve" smooth="yes"/>
      <point x="445" y="0" type="line" smooth="yes"/>
      <point x="458" y="0"/>
      <point x="465" y="4"/>
      <point x="465" y="12" type="curve" smooth="yes"/>
      <point x="465" y="15"/>
      <point x="463" y="21"/>
      <point x="458" y="29" type="curve" smooth="yes"/>
      <point x="283" y="301" type="line"/>
      <point x="436" y="484" type="line" smooth="yes"/>
      <point x="443" y="493"/>
      <point x="446" y="499"/>
      <point x="446" y="502" type="curve" smooth="yes"/>
      <point x="446" y="509"/>
      <point x="438" y="513"/>
      <point x="423" y="513" type="curve" smooth="yes"/>
      <point x="379" y="513" type="line" smooth="yes"/>
      <point x="369" y="513"/>
      <point x="360" y="509"/>
      <point x="353" y="500" type="curve" smooth="yes"/>
      <point x="154" y="263" type="line"/>
      <point x="155" y="270"/>
      <point x="155" y="279"/>
      <point x="155" y="292" type="curve" smooth="yes"/>
      <point x="155" y="699" type="line" smooth="yes"/>
      <point x="155" y="714"/>
      <point x="148" y="721"/>
      <point x="133" y="721" type="curve" smooth="yes"/>
      <point x="91" y="721" type="line" smooth="yes"/>
      <point x="76" y="721"/>
      <point x="69" y="714"/>
      <point x="69" y="699" type="curve" smooth="yes"/>
    </contour>
    <contour>
      <point x="0" y="0" type="move" name="mark6"/>
    </contour>
    <contour>
      <point x="490" y="-195" type="move" name="mark1"/>
    </contour>
    <contour>
      <point x="267" y="0" type="move" name="mark3"/>
    </contour>
    <contour>
      <point x="0" y="0" type="move" name="mark5"/>
    </contour>
    <contour>
      <point x="0" y="0" type="move" name="mark0"/>
    </contour>
    <contour>
      <point x="490" y="721" type="move" name="mark2"/>
    </contour>
    <contour>
      <point x="267" y="721" type="move" name="mark4"/>
    </contour>
  </outline>
</glyph>
<glyph name="l" format="1">
  <advance width="225"/>
  <unicode hex="006C"/>
  <outline>
    <contour>
      <point x="69" y="22" type="line" smooth="yes"/>
      <point x="69" y="7"/>
      <point x="76" y="0"/>
      <point x="91" y="0" type="curve" smooth="yes"/>
      <point x="133" y="0" type="line" smooth="yes"/>
      <point x="148" y="0"/>
      <point x="155" y="7"/>
      <point x="155" y="22" type="curve" smooth="yes"/>
      <point x="155" y="712" type="line" smooth="yes"/>
      <point x="155" y="723"/>
      <point x="150" y="729"/>
      <point x="141" y="729" type="curve" smooth="yes"/>
      <point x="124" y="729" type="line" smooth="yes"/>
      <point x="121" y="729"/>
      <point x="114" y="723"/>
      <point x="108" y="712" type="curve" smooth="yes"/>
      <point x="74" y="650" type="line" smooth="yes"/>
      <point x="71" y="643"/>
      <point x="69" y="637"/>
      <point x="69" y="631" type="curve" smooth="yes"/>
    </contour>
    <contour>
      <point x="0" y="0" type="move" name="mark6"/>
    </contour>
    <contour>
      <point x="225" y="-195" type="move" name="mark1"/>
    </contour>
    <contour>
      <point x="112" y="0" type="move" name="mark3"/>
    </contour>
    <contour>
      <point x="0" y="0" type="move" name="mark5"/>
    </contour>
    <contour>
      <point x="0" y="0" type="move" name="mark0"/>
    </contour>
    <contour>
      <point x="188" y="700" type="move" name="topright"/>
    </contour>
    <contour>
      <point x="112" y="721" type="move" name="mark4"/>
    </contour>
  </outline>
</glyph>
<glyph name="m" format="1">
  <advance width="819"/>
  <unicode hex="006D"/>
  <outline>
    <contour>
      <point x="69" y="22" type="line" smooth="yes"/>
      <point x="69" y="7"/>
      <point x="76" y="0"/>
      <point x="91" y="0" type="curve" smooth="yes"/>
      <point x="133" y="0" type="line" smooth="yes"/>
      <point x="148" y="0"/>
      <point x="155" y="7"/>
      <point x="155" y="22" type="curve" smooth="yes"/>
      <point x="155" y="290" type="line" smooth="yes"/>
      <point x="155" y="418"/>
      <point x="209" y="458"/>
      <point x="270" y="458" type="curve" smooth="yes"/>
      <point x="332" y="458"/>
      <point x="367" y="438"/>
      <point x="367" y="306" type="curve" smooth="yes"/>
      <point x="367" y="22" type="line" smooth="yes"/>
      <point x="367" y="7"/>
      <point x="374" y="0"/>
      <point x="389" y="0" type="curve" smooth="yes"/>
      <point x="431" y="0" type="line" smooth="yes"/>
      <point x="446" y="0"/>
      <point x="453" y="7"/>
      <point x="453" y="22" type="curve" smooth="yes"/>
      <point x="453" y="290" type="line" smooth="yes"/>
      <point x="453" y="404"/>
      <point x="506" y="458"/>
      <point x="567" y="458" type="curve" smooth="yes"/>
      <point x="630" y="458"/>
      <point x="665" y="439"/>
      <point x="665" y="306" type="curve" smooth="yes"/>
      <point x="665" y="22" type="line" smooth="yes"/>
      <point x="665" y="7"/>
      <point x="672" y="0"/>
      <point x="687" y="0" type="curve" smooth="yes"/>
      <point x="729" y="0" type="line" smooth="yes"/>
      <point x="744" y="0"/>
      <point x="751" y="7"/>
      <point x="751" y="22" type="curve" smooth="yes"/>
      <point x="751" y="334" type="line" smooth="yes"/>
      <point x="751" y="449"/>
      <point x="698" y="521"/>
      <point x="594" y="521" type="curve" smooth="yes"/>
      <point x="533" y="521"/>
      <point x="476" y="483"/>
      <point x="439" y="426" type="curve"/>
      <point x="437" y="426" type="line"/>
      <point x="425" y="466"/>
      <point x="380" y="521"/>
      <point x="296" y="521" type="curve" smooth="yes"/>
      <point x="249" y="521"/>
      <point x="197" y="497"/>
      <point x="156" y="452" type="curve"/>
      <point x="154" y="452" type="line"/>
      <point x="154" y="491" type="line" smooth="yes"/>
      <point x="154" y="506"/>
      <point x="147" y="513"/>
      <point x="132" y="513" type="curve" smooth="yes"/>
      <point x="91" y="513" type="line" smooth="yes"/>
      <point x="76" y="513"/>
      <point x="69" y="506"/>
      <point x="69" y="491" type="curve" smooth="yes"/>
    </contour>
    <contour>
      <point x="0" y="0" type="move" name="mark6"/>
    </contour>
    <contour>
      <point x="819" y="-195" type="move" name="mark1"/>
    </contour>
    <contour>
      <point x="410" y="0" type="move" name="mark3"/>
    </contour>
    <contour>
      <point x="0" y="0" type="move" name="mark5"/>
    </contour>
    <contour>
      <point x="0" y="0" type="move" name="mark0"/>
    </contour>
    <contour>
      <point x="819" y="721" type="move" name="mark2"/>
    </contour>
    <contour>
      <point x="410" y="521" type="move" name="mark4"/>
    </contour>
  </outline>
</glyph>
<glyph name="o" format="1">
  <advance width="561"/>
  <unicode hex="006F"/>
  <outline>
    <contour>
      <point x="62" y="396"/>
      <point x="42" y="333"/>
      <point x="42" y="256" type="curve" smooth="yes"/>
      <point x="42" y="107"/>
      <point x="121" y="-8"/>
      <point x="280" y="-8" type="curve" smooth="yes"/>
      <point x="438" y="-8"/>
      <point x="519" y="107"/>
      <point x="519" y="256" type="curve" smooth="yes"/>
      <point x="519" y="409"/>
      <point x="436" y="521"/>
      <point x="280" y="521" type="curve" smooth="yes"/>
      <point x="203" y="521"/>
      <point x="143" y="496"/>
      <point x="102" y="446" type="curve" smooth="yes"/>
    </contour>
    <contour>
      <point x="146" y="137"/>
      <point x="132" y="188"/>
      <point x="132" y="256" type="curve" smooth="yes"/>
      <point x="132" y="392"/>
      <point x="192" y="458"/>
      <point x="280" y="458" type="curve" smooth="yes"/>
      <point x="369" y="458"/>
      <point x="428" y="394"/>
      <point x="428" y="256" type="curve" smooth="yes"/>
      <point x="428" y="117"/>
      <point x="369" y="55"/>
      <point x="280" y="55" type="curve" smooth="yes"/>
      <point x="236" y="55"/>
      <point x="200" y="71"/>
      <point x="173" y="104" type="curve" smooth="yes"/>
    </contour>
    <contour>
      <point x="0" y="0" type="move" name="mark6"/>
    </contour>
    <contour>
      <point x="561" y="-195" type="move" name="mark1"/>
    </contour>
    <contour>
      <point x="280" y="0" type="move" name="mark3"/>
    </contour>
    <contour>
      <point x="0" y="0" type="move" name="mark5"/>
    </contour>
    <contour>
      <point x="280" y="0" type="move" name="mark0"/>
    </contour>
    <contour>
      <point x="561" y="721" type="move" name="mark2"/>
    </contour>
    <contour>
      <point x="280" y="521" type="move" name="mark4"/>
    </contour>
  </outline>
</glyph>
<glyph name="q" format="1">
  <advance width="546"/>
  <unicode hex="0071"/>
  <outline>
    <contour>
      <point x="59" y="388"/>
      <point x="42" y="326"/>
      <point x="42" y="256" type="curve" smooth="yes"/>
      <point x="42" y="124"/>
      <point x="105" y="-8"/>
      <point x="241" y="-8" type="curve" smooth="yes"/>
      <point x="312" y="-8"/>
      <point x="350" y="12"/>
      <point x="391" y="61" type="curve"/>
      <point x="392" y="61" type="line"/>
      <point x="391" y="-173" type="line" smooth="yes"/>
      <point x="391" y="-188"/>
      <point x="398" y="-195"/>
      <point x="413" y="-195" type="curve" smooth="yes"/>
      <point x="455" y="-195" type="line" smooth="yes"/>
      <point x="470" y="-195"/>
      <point x="477" y="-188"/>
      <point x="477" y="-173" type="curve" smooth="yes"/>
      <point x="477" y="491" type="line" smooth="yes"/>
      <point x="477" y="506"/>
      <point x="470" y="513"/>
      <point x="455" y="513" type="curve" smooth="yes"/>
      <point x="414" y="513" type="line" smooth="yes"/>
      <point x="402" y="513"/>
      <point x="396" y="506"/>
      <point x="395" y="491" type="curve" smooth="yes"/>
      <point x="391" y="452" type="line"/>
      <point x="350" y="497"/>
      <point x="314" y="521"/>
      <point x="241" y="521" type="curve" smooth="yes"/>
      <point x="176" y="521"/>
      <point x="126" y="494"/>
      <point x="92" y="441" type="curve" smooth="yes"/>
    </contour>
    <contour>
      <point x="142" y="149"/>
      <point x="132" y="197"/>
      <point x="132" y="256" type="curve" smooth="yes"/>
      <point x="132" y="371"/>
      <point x="167" y="458"/>
      <point x="269" y="458" type="curve" smooth="yes"/>
      <point x="339" y="458"/>
      <point x="391" y="407"/>
      <point x="391" y="313" type="curve" smooth="yes"/>
      <point x="391" y="200" type="line" smooth="yes"/>
      <point x="391" y="105"/>
      <point x="339" y="55"/>
      <point x="269" y="55" type="curve" smooth="yes"/>
      <point x="220" y="55"/>
      <point x="184" y="74"/>
      <point x="163" y="111" type="curve" smooth="yes"/>
    </contour>
    <contour>
      <point x="0" y="0" type="move" name="mark6"/>
    </contour>
    <contour>
      <point x="546" y="-195" type="move" name="mark1"/>
    </contour>
    <contour>
      <point x="259" y="-195" type="move" name="mark3"/>
    </contour>
    <contour>
      <point x="0" y="0" type="move" name="mark5"/>
    </contour>
    <contour>
      <point x="0" y="0" type="move" name="mark0"/>
    </contour>
    <contour>
      <point x="546" y="721" type="move" name="mark2"/>
    </contour>
    <contour>
      <point x="259" y="521" type="move" name="mark4"/>
    </contour>
  </outline>
</glyph>
<glyph name="r" format="1">
  <advance width="353"/>
  <unicode hex="0072"/>
  <outline>
    <contour>
      <point x="69" y="22" type="line" smooth="yes"/>
      <point x="69" y="7"/>
      <point x="76" y="0"/>
      <point x="91" y="0" type="curve" smooth="yes"/>
      <point x="133" y="0" type="line" smooth="yes"/>
      <point x="148" y="0"/>
      <point x="155" y="7"/>
      <point x="155" y="22" type="curve" smooth="yes"/>
      <point x="155" y="266" type="line" smooth="yes"/>
      <point x="155" y="388"/>
      <point x="213" y="458"/>
      <point x="287" y="458" type="curve" smooth="yes"/>
      <point x="299" y="458"/>
      <point x="311" y="454"/>
      <point x="321" y="454" type="curve" smooth="yes"/>
      <point x="327" y="454"/>
      <point x="330" y="457"/>
      <point x="332" y="461" type="curve"/>
      <point x="343" y="501" type="line"/>
      <point x="343" y="502"/>
      <point x="343" y="504"/>
      <point x="343" y="505" type="curve" smooth="yes"/>
      <point x="343" y="516"/>
      <point x="325" y="521"/>
      <point x="291" y="521" type="curve" smooth="yes"/>
      <point x="230" y="521"/>
      <point x="189" y="492"/>
      <point x="156" y="432" type="curve"/>
      <point x="154" y="432" type="line"/>
      <point x="154" y="491" type="line" smooth="yes"/>
      <point x="154" y="506"/>
      <point x="147" y="513"/>
      <point x="132" y="513" type="curve" smooth="yes"/>
      <point x="91" y="513" type="line" smooth="yes"/>
      <point x="76" y="513"/>
      <point x="69" y="506"/>
      <point x="69" y="491" type="curve" smooth="yes"/>
    </contour>
    <contour>
      <point x="0" y="0" type="move" name="mark6"/>
    </contour>
    <contour>
      <point x="353" y="-195" type="move" name="mark1"/>
    </contour>
    <contour>
      <point x="112" y="0" type="move" name="mark3"/>
    </contour>
    <contour>
      <point x="0" y="0" type="move" name="mark5"/>
    </contour>
    <contour>
      <point x="0" y="0" type="move" name="mark0"/>
    </contour>
    <contour>
      <point x="353" y="721" type="move" name="mark2"/>
    </contour>
    <contour>
      <point x="212" y="521" type="move" name="mark4"/>
    </contour>
  </outline>
</glyph>
<glyph name="s" format="1">
  <advance width="461"/>
  <unicode hex="0073"/>
  <outline>
    <contour>
      <point x="40" y="45"/>
      <point x="119" y="-8"/>
      <point x="241" y="-8" type="curve" smooth="yes"/>
      <point x="329" y="-8"/>
      <point x="433" y="25"/>
      <point x="433" y="140" type="curve" smooth="yes"/>
      <point x="433" y="224"/>
      <point x="393" y="267"/>
      <point x="245" y="303" type="curve"/>
      <point x="208" y="313" type="line" smooth="yes"/>
      <point x="157" y="327"/>
      <point x="142" y="348"/>
      <point x="142" y="386" type="curve" smooth="yes"/>
      <point x="142" y="433"/>
      <point x="181" y="455"/>
      <point x="244" y="455" type="curve" smooth="yes"/>
      <point x="270" y="455"/>
      <point x="321" y="441"/>
      <point x="353" y="420" type="curve" smooth="yes"/>
      <point x="360" y="415"/>
      <point x="367" y="412"/>
      <point x="372" y="412" type="curve" smooth="yes"/>
      <point x="377" y="412"/>
      <point x="382" y="414"/>
      <point x="385" y="419" type="curve" smooth="yes"/>
      <point x="407" y="448" type="line" smooth="yes"/>
      <point x="410" y="451"/>
      <point x="411" y="455"/>
      <point x="411" y="460" type="curve" smooth="yes"/>
      <point x="411" y="491"/>
      <point x="314" y="521"/>
      <point x="241" y="521" type="curve" smooth="yes"/>
      <point x="161" y="521"/>
      <point x="56" y="487"/>
      <point x="56" y="380" type="curve" smooth="yes"/>
      <point x="56" y="287"/>
      <point x="115" y="259"/>
      <point x="166" y="242" type="curve"/>
      <point x="230" y="223" type="line"/>
      <point x="309" y="205"/>
      <point x="342" y="180"/>
      <point x="342" y="135" type="curve" smooth="yes"/>
      <point x="342" y="74"/>
      <point x="292" y="55"/>
      <point x="242" y="55" type="curve" smooth="yes"/>
      <point x="187" y="55"/>
      <point x="138" y="71"/>
      <point x="97" y="104" type="curve" smooth="yes"/>
      <point x="90" y="109"/>
      <point x="83" y="112"/>
      <point x="78" y="112" type="curve" smooth="yes"/>
      <point x="72" y="112"/>
      <point x="68" y="110"/>
      <point x="65" y="105" type="curve" smooth="yes"/>
      <point x="43" y="74" type="line" smooth="yes"/>
      <point x="41" y="71"/>
      <point x="40" y="68"/>
      <point x="40" y="65" type="curve" smooth="yes"/>
    </contour>
    <contour>
      <point x="0" y="0" type="move" name="mark6"/>
    </contour>
    <contour>
      <point x="461" y="-195" type="move" name="mark1"/>
    </contour>
    <contour>
      <point x="232" y="0" type="move" name="mark3"/>
    </contour>
    <contour>
      <point x="0" y="0" type="move" name="mark5"/>
    </contour>
    <contour>
      <point x="0" y="0" type="move" name="mark0"/>
    </contour>
    <contour>
      <point x="461" y="721" type="move" name="mark2"/>
    </contour>
    <contour>
      <point x="232" y="521" type="move" name="mark4"/>
    </contour>
  </outline>
</glyph>
<glyph name="t" format="1">
  <advance width="370"/>
  <unicode hex="0074"/>
  <outline>
    <contour>
      <point x="22" y="465" type="line" smooth="yes"/>
      <point x="22" y="454"/>
      <point x="29" y="448"/>
      <point x="44" y="448" type="curve" smooth="yes"/>
      <point x="102" y="448" type="line"/>
      <point x="102" y="132" type="line" smooth="yes"/>
      <point x="102" y="41"/>
      <point x="139" y="-8"/>
      <point x="207" y="-8" type="curve" smooth="yes"/>
      <point x="251" y="-8"/>
      <point x="343" y="11"/>
      <point x="343" y="35" type="curve" smooth="yes"/>
      <point x="343" y="37"/>
      <point x="343" y="39"/>
      <point x="342" y="40" type="curve" smooth="yes"/>
      <point x="326" y="77" type="line"/>
      <point x="323" y="82"/>
      <point x="321" y="84"/>
      <point x="318" y="84" type="curve" smooth="yes"/>
      <point x="314" y="84"/>
      <point x="262" y="55"/>
      <point x="240" y="55" type="curve" smooth="yes"/>
      <point x="209" y="55"/>
      <point x="188" y="71"/>
      <point x="188" y="137" type="curve" smooth="yes"/>
      <point x="188" y="448" type="line"/>
      <point x="292" y="448" type="line" smooth="yes"/>
      <point x="307" y="448"/>
      <point x="314" y="454"/>
      <point x="314" y="465" type="curve" smooth="yes"/>
      <point x="314" y="496" type="line" smooth="yes"/>
      <point x="314" y="507"/>
      <point x="307" y="513"/>
      <point x="292" y="513" type="curve" smooth="yes"/>
      <point x="188" y="513" type="line"/>
      <point x="188" y="637" type="line" smooth="yes"/>
      <point x="188" y="648"/>
      <point x="183" y="654"/>
      <point x="173" y="654" type="curve" smooth="yes"/>
      <point x="156" y="654" type="line" smooth="yes"/>
      <point x="152" y="654"/>
      <point x="147" y="648"/>
      <point x="141" y="637" type="curve" smooth="yes"/>
      <point x="107" y="575" type="line" smooth="yes"/>
      <point x="104" y="568"/>
      <point x="102" y="562"/>
      <point x="102" y="557" type="curve" smooth="yes"/>
      <point x="102" y="513" type="line"/>
      <point x="44" y="513" type="line" smooth="yes"/>
      <point x="29" y="513"/>
      <point x="22" y="507"/>
      <point x="22" y="496" type="curve" smooth="yes"/>
    </contour>
    <contour>
      <point x="0" y="0" type="move" name="mark6"/>
    </contour>
    <contour>
      <point x="370" y="-195" type="move" name="mark1"/>
    </contour>
    <contour>
      <point x="185" y="0" type="move" name="mark3"/>
    </contour>
    <contour>
      <point x="0" y="0" type="move" name="mark5"/>
    </contour>
    <contour>
      <point x="0" y="0" type="move" name="mark0"/>
    </contour>
    <contour>
      <point x="370" y="721" type="move" name="mark2"/>
    </contour>
    <contour>
      <point x="145" y="654" type="move" name="mark4"/>
    </contour>
  </outline>
</glyph>
<glyph name="u" format="1">
  <advance width="547"/>
  <unicode hex="0075"/>
  <outline>
    <contour>
      <point x="68" y="179" type="line" smooth="yes"/>
      <point x="68" y="69"/>
      <point x="113" y="-8"/>
      <point x="233" y="-8" type="curve" smooth="yes"/>
      <point x="301" y="-8"/>
      <point x="347" y="13"/>
      <point x="391" y="61" type="curve"/>
      <point x="393" y="61" type="line"/>
      <point x="393" y="22" type="line" smooth="yes"/>
      <point x="393" y="7"/>
      <point x="400" y="0"/>
      <point x="415" y="0" type="curve" smooth="yes"/>
      <point x="456" y="0" type="line" smooth="yes"/>
      <point x="471" y="0"/>
      <point x="478" y="7"/>
      <point x="478" y="22" type="curve" smooth="yes"/>
      <point x="478" y="491" type="line" smooth="yes"/>
      <point x="478" y="506"/>
      <point x="471" y="513"/>
      <point x="456" y="513" type="curve" smooth="yes"/>
      <point x="414" y="513" type="line" smooth="yes"/>
      <point x="399" y="513"/>
      <point x="392" y="506"/>
      <point x="392" y="491" type="curve" smooth="yes"/>
      <point x="392" y="223" type="line" smooth="yes"/>
      <point x="392" y="99"/>
      <point x="346" y="55"/>
      <point x="265" y="55" type="curve" smooth="yes"/>
      <point x="201" y="55"/>
      <point x="154" y="74"/>
      <point x="154" y="202" type="curve" smooth="yes"/>
      <point x="154" y="491" type="line" smooth="yes"/>
      <point x="154" y="506"/>
      <point x="147" y="513"/>
      <point x="132" y="513" type="curve" smooth="yes"/>
      <point x="90" y="513" type="line" smooth="yes"/>
      <point x="75" y="513"/>
      <point x="68" y="506"/>
      <point x="68" y="491" type="curve" smooth="yes"/>
    </contour>
    <contour>
      <point x="0" y="0" type="move" name="mark6"/>
    </contour>
    <contour>
      <point x="547" y="-195" type="move" name="mark1"/>
    </contour>
    <contour>
      <point x="273" y="0" type="move" name="mark3"/>
    </contour>
    <contour>
      <point x="0" y="0" type="move" name="mark5"/>
    </contour>
    <contour>
      <point x="435" y="0" type="move" name="mark0"/>
    </contour>
    <contour>
      <point x="547" y="721" type="move" name="mark2"/>
    </contour>
    <contour>
      <point x="273" y="521" type="move" name="mark4"/>
    </contour>
  </outline>
</glyph>
<glyph name="v" format="1">
  <advance width="481"/>
  <unicode hex="0076"/>
  <outline>
    <contour>
      <point x="28" y="498"/>
      <point x="29" y="494"/>
      <point x="30" y="489" type="curve"/>
      <point x="190" y="30" type="line" smooth="yes"/>
      <point x="197" y="10"/>
      <point x="206" y="0"/>
      <point x="217" y="0" type="curve" smooth="yes"/>
      <point x="281" y="0" type="line" smooth="yes"/>
      <point x="292" y="0"/>
      <point x="301" y="10"/>
      <point x="308" y="30" type="curve" smooth="yes"/>
      <point x="468" y="489" type="line"/>
      <point x="469" y="494"/>
      <point x="470" y="498"/>
      <point x="470" y="500" type="curve" smooth="yes"/>
      <point x="470" y="509"/>
      <point x="465" y="513"/>
      <point x="455" y="513" type="curve" smooth="yes"/>
      <point x="401" y="513" type="line" smooth="yes"/>
      <point x="392" y="513"/>
      <point x="383" y="507"/>
      <point x="379" y="494" type="curve" smooth="yes"/>
      <point x="258" y="117" type="line" smooth="yes"/>
      <point x="254" y="105"/>
      <point x="251" y="93"/>
      <point x="250" y="80" type="curve"/>
      <point x="248" y="80" type="line"/>
      <point x="246" y="95"/>
      <point x="243" y="107"/>
      <point x="239" y="117" type="curve"/>
      <point x="119" y="494" type="line" smooth="yes"/>
      <point x="115" y="507"/>
      <point x="105" y="513"/>
      <point x="97" y="513" type="curve" smooth="yes"/>
      <point x="43" y="513" type="line" smooth="yes"/>
      <point x="33" y="513"/>
      <point x="28" y="509"/>
      <point x="28" y="500" type="curve" smooth="yes"/>
    </contour>
    <contour>
      <point x="0" y="0" type="move" name="mark6"/>
    </contour>
    <contour>
      <point x="481" y="-195" type="move" name="mark1"/>
    </contour>
    <contour>
      <point x="241" y="0" type="move" name="mark3"/>
    </contour>
    <contour>
      <point x="0" y="0" type="move" name="mark5"/>
    </contour>
    <contour>
      <point x="0" y="0" type="move" name="mark0"/>
    </contour>
    <contour>
      <point x="481" y="721" type="move" name="mark2"/>
    </contour>
    <contour>
      <point x="240" y="521" type="move" name="mark4"/>
    </contour>
  </outline>
</glyph>
<glyph name="w" format="1">
  <advance width="705"/>
  <unicode hex="0077"/>
  <outline>
    <contour>
      <point x="27" y="495"/>
      <point x="27" y="492"/>
      <point x="28" y="489" type="curve" smooth="yes"/>
      <point x="149" y="30" type="line" smooth="yes"/>
      <point x="154" y="10"/>
      <point x="164" y="0"/>
      <point x="176" y="0" type="curve" smooth="yes"/>
      <point x="234" y="0" type="line" smooth="yes"/>
      <point x="245" y="0"/>
      <point x="256" y="10"/>
      <point x="261" y="30" type="curve" smooth="yes"/>
      <point x="344" y="353" type="line" smooth="yes"/>
      <point x="349" y="373"/>
      <point x="353" y="389"/>
      <point x="354" y="400" type="curve"/>
      <point x="359" y="426" type="line"/>
      <point x="363" y="400" type="line"/>
      <point x="363" y="393"/>
      <point x="368" y="377"/>
      <point x="374" y="353" type="curve" smooth="yes"/>
      <point x="457" y="30" type="line" smooth="yes"/>
      <point x="462" y="10"/>
      <point x="471" y="0"/>
      <point x="483" y="0" type="curve" smooth="yes"/>
      <point x="542" y="0" type="line" smooth="yes"/>
      <point x="555" y="0"/>
      <point x="563" y="10"/>
      <point x="568" y="30" type="curve" smooth="yes"/>
      <point x="689" y="489" type="line" smooth="yes"/>
      <point x="690" y="494"/>
      <point x="691" y="498"/>
      <point x="691" y="500" type="curve" smooth="yes"/>
      <point x="691" y="509"/>
      <point x="686" y="513"/>
      <point x="676" y="513" type="curve" smooth="yes"/>
      <point x="625" y="513" type="line" smooth="yes"/>
      <point x="614" y="513"/>
      <point x="606" y="507"/>
      <point x="603" y="494" type="curve" smooth="yes"/>
      <point x="511" y="83" type="line"/>
      <point x="509" y="83" type="line"/>
      <point x="489" y="171" type="line"/>
      <point x="403" y="494" type="line" smooth="yes"/>
      <point x="399" y="507"/>
      <point x="391" y="513"/>
      <point x="381" y="513" type="curve" smooth="yes"/>
      <point x="337" y="513" type="line" smooth="yes"/>
      <point x="326" y="513"/>
      <point x="318" y="507"/>
      <point x="315" y="494" type="curve" smooth="yes"/>
      <point x="217" y="124" type="line"/>
      <point x="212" y="101"/>
      <point x="210" y="87"/>
      <point x="209" y="83" type="curve"/>
      <point x="207" y="83" type="line"/>
      <point x="187" y="171" type="line"/>
      <point x="115" y="494" type="line" smooth="yes"/>
      <point x="112" y="507"/>
      <point x="104" y="513"/>
      <point x="93" y="513" type="curve" smooth="yes"/>
      <point x="42" y="513" type="line" smooth="yes"/>
      <point x="32" y="513"/>
      <point x="27" y="508"/>
      <point x="27" y="499" type="curve" smooth="yes"/>
    </contour>
    <contour>
      <point x="0" y="0" type="move" name="mark6"/>
    </contour>
    <contour>
      <point x="705" y="-195" type="move" name="mark1"/>
    </contour>
    <contour>
      <point x="353" y="0" type="move" name="mark3"/>
    </contour>
    <contour>
      <point x="0" y="0" type="move" name="mark5"/>
    </contour>
    <contour>
      <point x="0" y="0" type="move" name="mark0"/>
    </contour>
    <contour>
      <point x="705" y="721" type="move" name="mark2"/>
    </contour>
    <contour>
      <point x="353" y="521" type="move" name="mark4"/>
    </contour>
  </outline>
</glyph>
<glyph name="x" format="1">
  <advance width="476"/>
  <unicode hex="0078"/>
  <outline>
    <contour>
      <point x="37" y="4"/>
      <point x="44" y="0"/>
      <point x="57" y="0" type="curve" smooth="yes"/>
      <point x="105" y="0" type="line" smooth="yes"/>
      <point x="116" y="0"/>
      <point x="125" y="4"/>
      <point x="131" y="13" type="curve" smooth="yes"/>
      <point x="257" y="210" type="line"/>
      <point x="384" y="13" type="line" smooth="yes"/>
      <point x="389" y="4"/>
      <point x="397" y="0"/>
      <point x="410" y="0" type="curve" smooth="yes"/>
      <point x="458" y="0" type="line" smooth="yes"/>
      <point x="471" y="0"/>
      <point x="477" y="4"/>
      <point x="477" y="11" type="curve" smooth="yes"/>
      <point x="477" y="16"/>
      <point x="475" y="22"/>
      <point x="470" y="29" type="curve" smooth="yes"/>
      <point x="304" y="270" type="line"/>
      <point x="452" y="484" type="line" smooth="yes"/>
      <point x="457" y="491"/>
      <point x="459" y="497"/>
      <point x="459" y="502" type="curve" smooth="yes"/>
      <point x="459" y="509"/>
      <point x="452" y="513"/>
      <point x="439" y="513" type="curve" smooth="yes"/>
      <point x="391" y="513" type="line" smooth="yes"/>
      <point x="379" y="513"/>
      <point x="370" y="509"/>
      <point x="365" y="500" type="curve" smooth="yes"/>
      <point x="257" y="330" type="line"/>
      <point x="149" y="500" type="line" smooth="yes"/>
      <point x="144" y="509"/>
      <point x="135" y="513"/>
      <point x="124" y="513" type="curve" smooth="yes"/>
      <point x="76" y="513" type="line" smooth="yes"/>
      <point x="63" y="513"/>
      <point x="56" y="509"/>
      <point x="56" y="502" type="curve" smooth="yes"/>
      <point x="56" y="497"/>
      <point x="58" y="491"/>
      <point x="63" y="484" type="curve" smooth="yes"/>
      <point x="211" y="270" type="line"/>
      <point x="44" y="29" type="line" smooth="yes"/>
      <point x="39" y="22"/>
      <point x="37" y="16"/>
      <point x="37" y="11" type="curve" smooth="yes"/>
    </contour>
    <contour>
      <point x="0" y="0" type="move" name="mark6"/>
    </contour>
    <contour>
      <point x="476" y="-195" type="move" name="mark1"/>
    </contour>
    <contour>
      <point x="237" y="0" type="move" name="mark3"/>
    </contour>
    <contour>
      <point x="0" y="0" type="move" name="mark5"/>
    </contour>
    <contour>
      <point x="0" y="0" type="move" name="mark0"/>
    </contour>
    <contour>
      <point x="476" y="721" type="move" name="mark2"/>
    </contour>
    <contour>
      <point x="258" y="521" type="move" name="mark4"/>
    </contour>
  </outline>
</glyph>
<glyph name="y" format="1">
  <advance width="483"/>
  <unicode hex="0079"/>
  <outline>
    <contour>
      <point x="31" y="498"/>
      <point x="32" y="494"/>
      <point x="34" y="489" type="curve" smooth="yes"/>
      <point x="210" y="0" type="line"/>
      <point x="200" y="-29" type="line" smooth="yes"/>
      <point x="186" y="-70"/>
      <point x="159" y="-141"/>
      <point x="110" y="-140" type="curve" smooth="yes"/>
      <point x="98" y="-140"/>
      <point x="82" y="-131"/>
      <point x="66" y="-131" type="curve" smooth="yes"/>
      <point x="63" y="-131"/>
      <point x="60" y="-133"/>
      <point x="59" y="-138" type="curve" smooth="yes"/>
      <point x="46" y="-177" type="line" smooth="yes"/>
      <point x="45" y="-179"/>
      <point x="45" y="-181"/>
      <point x="45" y="-182" type="curve" smooth="yes"/>
      <point x="45" y="-196"/>
      <point x="82" y="-204"/>
      <point x="113" y="-204" type="curve" smooth="yes"/>
      <point x="210" y="-204"/>
      <point x="244" y="-143"/>
      <point x="306" y="30" type="curve" smooth="yes"/>
      <point x="470" y="489" type="line" smooth="yes"/>
      <point x="472" y="494"/>
      <point x="473" y="498"/>
      <point x="473" y="501" type="curve" smooth="yes"/>
      <point x="473" y="509"/>
      <point x="468" y="513"/>
      <point x="457" y="513" type="curve" smooth="yes"/>
      <point x="404" y="513" type="line" smooth="yes"/>
      <point x="393" y="513"/>
      <point x="386" y="507"/>
      <point x="382" y="494" type="curve" smooth="yes"/>
      <point x="261" y="120" type="line"/>
      <point x="251" y="80" type="line"/>
      <point x="250" y="90"/>
      <point x="245" y="107"/>
      <point x="238" y="130" type="curve" smooth="yes"/>
      <point x="122" y="494" type="line" smooth="yes"/>
      <point x="118" y="507"/>
      <point x="111" y="513"/>
      <point x="100" y="513" type="curve" smooth="yes"/>
      <point x="47" y="513" type="line" smooth="yes"/>
      <point x="36" y="513"/>
      <point x="31" y="509"/>
      <point x="31" y="501" type="curve" smooth="yes"/>
    </contour>
    <contour>
      <point x="0" y="0" type="move" name="mark6"/>
    </contour>
    <contour>
      <point x="483" y="-195" type="move" name="mark1"/>
    </contour>
    <contour>
      <point x="243" y="-195" type="move" name="mark3"/>
    </contour>
    <contour>
      <point x="0" y="0" type="move" name="mark5"/>
    </contour>
    <contour>
      <point x="0" y="0" type="move" name="mark0"/>
    </contour>
    <contour>
      <point x="483" y="721" type="move" name="mark2"/>
    </contour>
    <contour>
      <point x="263" y="521" type="move" name="mark4"/>
    </contour>
  </outline>
</glyph>
<glyph name="z" format="1">
  <advance width="464"/>
  <unicode hex="007A"/>
  <outline>
    <contour>
      <point x="27" y="17" type="line" smooth="yes"/>
      <point x="27" y="6"/>
      <point x="34" y="0"/>
      <point x="49" y="0" type="curve" smooth="yes"/>
      <point x="415" y="0" type="line" smooth="yes"/>
      <point x="430" y="0"/>
      <point x="437" y="6"/>
      <point x="437" y="17" type="curve" smooth="yes"/>
      <point x="437" y="47" type="line" smooth="yes"/>
      <point x="437" y="58"/>
      <point x="430" y="64"/>
      <point x="415" y="64" type="curve" smooth="yes"/>
      <point x="152" y="64" type="line" smooth="yes"/>
      <point x="139" y="64"/>
      <point x="130" y="64"/>
      <point x="123" y="63" type="curve"/>
      <point x="407" y="435" type="line" smooth="yes"/>
      <point x="419" y="450"/>
      <point x="425" y="463"/>
      <point x="425" y="473" type="curve" smooth="yes"/>
      <point x="425" y="496" type="line" smooth="yes"/>
      <point x="425" y="507"/>
      <point x="418" y="513"/>
      <point x="403" y="513" type="curve" smooth="yes"/>
      <point x="61" y="513" type="line" smooth="yes"/>
      <point x="46" y="513"/>
      <point x="39" y="507"/>
      <point x="39" y="496" type="curve" smooth="yes"/>
      <point x="39" y="465" type="line" smooth="yes"/>
      <point x="39" y="454"/>
      <point x="46" y="448"/>
      <point x="61" y="448" type="curve" smooth="yes"/>
      <point x="326" y="449" type="line"/>
      <point x="44" y="81" type="line" smooth="yes"/>
      <point x="33" y="66"/>
      <point x="27" y="53"/>
      <point x="27" y="42" type="curve" smooth="yes"/>
    </contour>
    <contour>
      <point x="0" y="0" type="move" name="mark6"/>
    </contour>
    <contour>
      <point x="464" y="-195" type="move" name="mark1"/>
    </contour>
    <contour>
      <point x="222" y="0" type="move" name="mark3"/>
    </contour>
    <contour>
      <point x="0" y="0" type="move" name="mark5"/>
    </contour>
    <contour>
      <point x="0" y="0" type="move" name="mark0"/>
    </contour>
    <contour>
      <point x="464" y="721" type="move" name="mark2"/>
    </contour>
    <contour>
      <point x="232" y="521" type="move" name="mark4"/>
    </contour>
  </outline>
</glyph>
<glyph name="braceleft" format="1">
  <advance width="379"/>
  <unicode hex="007B"/>
  <outline>
    <contour>
      <point x="44" y="256" type="line" smooth="yes"/>
      <point x="44" y="241"/>
      <point x="50" y="234"/>
      <point x="61" y="234" type="curve" smooth="yes"/>
      <point x="103" y="234"/>
      <point x="171" y="191"/>
      <point x="171" y="77" type="curve" smooth="yes"/>
      <point x="171" y="-38" type="line" smooth="yes"/>
      <point x="171" y="-149"/>
      <point x="201" y="-199"/>
      <point x="323" y="-199" type="curve" smooth="yes"/>
      <point x="338" y="-199"/>
      <point x="345" y="-193"/>
      <point x="345" y="-182" type="curve" smooth="yes"/>
      <point x="345" y="-153" type="line" smooth="yes"/>
      <point x="345" y="-142"/>
      <point x="338" y="-136"/>
      <point x="323" y="-136" type="curve" smooth="yes"/>
      <point x="258" y="-136"/>
      <point x="257" y="-112"/>
      <point x="257" y="-49" type="curve" smooth="yes"/>
      <point x="257" y="90" type="line" smooth="yes"/>
      <point x="257" y="227"/>
      <point x="175" y="259"/>
      <point x="136" y="265" type="curve"/>
      <point x="136" y="266" type="line"/>
      <point x="174" y="271"/>
      <point x="257" y="305"/>
      <point x="257" y="441" type="curve" smooth="yes"/>
      <point x="257" y="581" type="line" smooth="yes"/>
      <point x="257" y="642"/>
      <point x="258" y="667"/>
      <point x="323" y="667" type="curve" smooth="yes"/>
      <point x="338" y="667"/>
      <point x="345" y="673"/>
      <point x="345" y="684" type="curve" smooth="yes"/>
      <point x="345" y="713" type="line" smooth="yes"/>
      <point x="345" y="724"/>
      <point x="338" y="730"/>
      <point x="323" y="730" type="curve" smooth="yes"/>
      <point x="201" y="730"/>
      <point x="171" y="680"/>
      <point x="171" y="569" type="curve" smooth="yes"/>
      <point x="171" y="455" type="line" smooth="yes"/>
      <point x="171" y="340"/>
      <point x="103" y="297"/>
      <point x="61" y="297" type="curve" smooth="yes"/>
      <point x="50" y="297"/>
      <point x="44" y="290"/>
      <point x="44" y="275" type="curve" smooth="yes"/>
    </contour>
  </outline>
</glyph>
<glyph name="bar" format="1">
  <advance width="288"/>
  <unicode hex="007C"/>
  <outline>
    <contour>
      <point x="112" y="-193" type="line" smooth="yes"/>
      <point x="112" y="-208"/>
      <point x="118" y="-215"/>
      <point x="129" y="-215" type="curve" smooth="yes"/>
      <point x="159" y="-215" type="line" smooth="yes"/>
      <point x="170" y="-215"/>
      <point x="176" y="-208"/>
      <point x="176" y="-193" type="curve" smooth="yes"/>
      <point x="176" y="708" type="line" smooth="yes"/>
      <point x="176" y="723"/>
      <point x="170" y="730"/>
      <point x="159" y="730" type="curve" smooth="yes"/>
      <point x="129" y="730" type="line" smooth="yes"/>
      <point x="118" y="730"/>
      <point x="112" y="723"/>
      <point x="112" y="708" type="curve" smooth="yes"/>
    </contour>
  </outline>
</glyph>
<glyph name="braceright" format="1">
  <advance width="379"/>
  <unicode hex="007D"/>
  <outline>
    <contour>
      <point x="34" y="-182" type="line" smooth="yes"/>
      <point x="34" y="-193"/>
      <point x="41" y="-199"/>
      <point x="56" y="-199" type="curve" smooth="yes"/>
      <point x="178" y="-199"/>
      <point x="208" y="-149"/>
      <point x="208" y="-38" type="curve" smooth="yes"/>
      <point x="208" y="77" type="line" smooth="yes"/>
      <point x="208" y="192"/>
      <point x="274" y="234"/>
      <point x="318" y="234" type="curve" smooth="yes"/>
      <point x="329" y="234"/>
      <point x="335" y="241"/>
      <point x="335" y="256" type="curve" smooth="yes"/>
      <point x="335" y="275" type="line" smooth="yes"/>
      <point x="335" y="290"/>
      <point x="329" y="297"/>
      <point x="318" y="297" type="curve" smooth="yes"/>
      <point x="274" y="297"/>
      <point x="208" y="338"/>
      <point x="208" y="455" type="curve" smooth="yes"/>
      <point x="208" y="569" type="line" smooth="yes"/>
      <point x="208" y="680"/>
      <point x="178" y="730"/>
      <point x="56" y="730" type="curve" smooth="yes"/>
      <point x="41" y="730"/>
      <point x="34" y="724"/>
      <point x="34" y="713" type="curve" smooth="yes"/>
      <point x="34" y="684" type="line" smooth="yes"/>
      <point x="34" y="673"/>
      <point x="41" y="667"/>
      <point x="56" y="667" type="curve" smooth="yes"/>
      <point x="121" y="667"/>
      <point x="122" y="642"/>
      <point x="122" y="581" type="curve" smooth="yes"/>
      <point x="122" y="441" type="line" smooth="yes"/>
      <point x="122" y="306"/>
      <point x="203" y="271"/>
      <point x="243" y="266" type="curve"/>
      <point x="243" y="265" type="line"/>
      <point x="202" y="259"/>
      <point x="122" y="225"/>
      <point x="122" y="90" type="curve" smooth="yes"/>
      <point x="122" y="-49" type="line" smooth="yes"/>
      <point x="122" y="-112"/>
      <point x="121" y="-136"/>
      <point x="56" y="-136" type="curve" smooth="yes"/>
      <point x="41" y="-136"/>
      <point x="34" y="-142"/>
      <point x="34" y="-153" type="curve" smooth="yes"/>
    </contour>
  </outline>
</glyph>
<glyph name="asciitilde" format="1">
  <advance width="625"/>
  <unicode hex="007E"/>
  <outline>
    <contour>
      <point x="47" y="312"/>
      <point x="50" y="308"/>
      <point x="55" y="307" type="curve"/>
      <point x="76" y="299" type="line" smooth="yes"/>
      <point x="77" y="298"/>
      <point x="79" y="298"/>
      <point x="80" y="298" type="curve" smooth="yes"/>
      <point x="101" y="298"/>
      <point x="114" y="381"/>
      <point x="183" y="381" type="curve" smooth="yes"/>
      <point x="207" y="381"/>
      <point x="246" y="361"/>
      <point x="299" y="322" type="curve" smooth="yes"/>
      <point x="352" y="283"/>
      <point x="397" y="264"/>
      <point x="435" y="264" type="curve" smooth="yes"/>
      <point x="508" y="264"/>
      <point x="563" y="308"/>
      <point x="587" y="380" type="curve" smooth="yes"/>
      <point x="588" y="385"/>
      <point x="589" y="389"/>
      <point x="589" y="390" type="curve" smooth="yes"/>
      <point x="589" y="396"/>
      <point x="586" y="400"/>
      <point x="581" y="401" type="curve"/>
      <point x="560" y="409" type="line" smooth="yes"/>
      <point x="558" y="410"/>
      <point x="556" y="410"/>
      <point x="555" y="410" type="curve" smooth="yes"/>
      <point x="537" y="410"/>
      <point x="521" y="327"/>
      <point x="453" y="327" type="curve" smooth="yes"/>
      <point x="430" y="327"/>
      <point x="390" y="347"/>
      <point x="336" y="386" type="curve" smooth="yes"/>
      <point x="282" y="425"/>
      <point x="238" y="444"/>
      <point x="201" y="444" type="curve" smooth="yes"/>
      <point x="128" y="444"/>
      <point x="72" y="400"/>
      <point x="48" y="328" type="curve" smooth="yes"/>
      <point x="47" y="326"/>
      <point x="47" y="323"/>
      <point x="47" y="319" type="curve" smooth="yes"/>
    </contour>
  </outline>
</glyph>
<glyph name="exclamdown" format="1">
  <advance width="293"/>
  <unicode hex="00A1"/>
  <outline>
    <contour>
      <point x="97" y="431" type="line" smooth="yes"/>
      <point x="97" y="416"/>
      <point x="104" y="409"/>
      <point x="119" y="409" type="curve" smooth="yes"/>
      <point x="174" y="409" type="line" smooth="yes"/>
      <point x="189" y="409"/>
      <point x="196" y="416"/>
      <point x="196" y="431" type="curve" smooth="yes"/>
      <point x="196" y="491" type="line" smooth="yes"/>
      <point x="196" y="506"/>
      <point x="189" y="513"/>
      <point x="174" y="513" type="curve" smooth="yes"/>
      <point x="119" y="513" type="line" smooth="yes"/>
      <point x="104" y="513"/>
      <point x="97" y="506"/>
      <point x="97" y="491" type="curve" smooth="yes"/>
    </contour>
    <contour>
      <point x="97" y="-161" type="line"/>
      <point x="96" y="-179"/>
      <point x="105" y="-188"/>
      <point x="121" y="-188" type="curve" smooth="yes"/>
      <point x="172" y="-188" type="line" smooth="yes"/>
      <point x="188" y="-188"/>
      <point x="196" y="-179"/>
      <point x="196" y="-161" type="curve" smooth="yes"/>
      <point x="186" y="300" type="line" smooth="yes"/>
      <point x="186" y="315"/>
      <point x="179" y="322"/>
      <point x="164" y="322" type="curve" smooth="yes"/>
      <point x="129" y="322" type="line" smooth="yes"/>
      <point x="114" y="322"/>
      <point x="107" y="315"/>
      <point x="107" y="300" type="curve" smooth="yes"/>
    </contour>
  </outline>
</glyph>
<glyph name="cent" format="1">
  <advance width="542"/>
  <unicode hex="00A2"/>
  <outline>
    <contour>
      <point x="80" y="395"/>
      <point x="63" y="333"/>
      <point x="63" y="256" type="curve" smooth="yes"/>
      <point x="63" y="102"/>
      <point x="136" y="7"/>
      <point x="262" y="-7" type="curve"/>
      <point x="262" y="-99" type="line" smooth="yes"/>
      <point x="262" y="-114"/>
      <point x="268" y="-121"/>
      <point x="279" y="-121" type="curve" smooth="yes"/>
      <point x="303" y="-121" type="line" smooth="yes"/>
      <point x="314" y="-121"/>
      <point x="320" y="-114"/>
      <point x="320" y="-99" type="curve" smooth="yes"/>
      <point x="320" y="-7" type="line"/>
      <point x="451" y="1"/>
      <point x="489" y="102"/>
      <point x="489" y="102" type="curve"/>
      <point x="489" y="108"/>
      <point x="486" y="112"/>
      <point x="480" y="115" type="curve" smooth="yes"/>
      <point x="447" y="134" type="line" smooth="yes"/>
      <point x="444" y="136"/>
      <point x="441" y="137"/>
      <point x="438" y="137" type="curve" smooth="yes"/>
      <point x="431" y="137"/>
      <point x="423" y="132"/>
      <point x="418" y="121" type="curve" smooth="yes"/>
      <point x="400" y="86"/>
      <point x="365" y="62"/>
      <point x="320" y="57" type="curve"/>
      <point x="320" y="456" type="line"/>
      <point x="360" y="452"/>
      <point x="390" y="434"/>
      <point x="410" y="403" type="curve" smooth="yes"/>
      <point x="417" y="392"/>
      <point x="423" y="387"/>
      <point x="430" y="387" type="curve" smooth="yes"/>
      <point x="433" y="387"/>
      <point x="436" y="388"/>
      <point x="439" y="390" type="curve" smooth="yes"/>
      <point x="470" y="410" type="line" smooth="yes"/>
      <point x="476" y="414"/>
      <point x="479" y="419"/>
      <point x="479" y="424" type="curve" smooth="yes"/>
      <point x="479" y="462"/>
      <point x="393" y="516"/>
      <point x="320" y="520" type="curve"/>
      <point x="320" y="611" type="line" smooth="yes"/>
      <point x="320" y="626"/>
      <point x="314" y="633"/>
      <point x="303" y="633" type="curve" smooth="yes"/>
      <point x="279" y="633" type="line" smooth="yes"/>
      <point x="268" y="633"/>
      <point x="262" y="626"/>
      <point x="262" y="611" type="curve" smooth="yes"/>
      <point x="262" y="520" type="line"/>
      <point x="199" y="513"/>
      <point x="150" y="486"/>
      <point x="115" y="440" type="curve" smooth="yes"/>
    </contour>
    <contour>
      <point x="164" y="139"/>
      <point x="153" y="188"/>
      <point x="153" y="256" type="curve" smooth="yes"/>
      <point x="153" y="394"/>
      <point x="202" y="441"/>
      <point x="262" y="455" type="curve"/>
      <point x="262" y="58" type="line"/>
      <point x="233" y="64"/>
      <point x="208" y="81"/>
      <point x="185" y="110" type="curve"/>
    </contour>
  </outline>
</glyph>
<glyph name="sterling" format="1">
  <advance width="542"/>
  <unicode hex="00A3"/>
  <outline>
    <contour>
      <point x="39" y="22" type="line" smooth="yes"/>
      <point x="39" y="7"/>
      <point x="48" y="0"/>
      <point x="65" y="0" type="curve" smooth="yes"/>
      <point x="474" y="0" type="line" smooth="yes"/>
      <point x="492" y="0"/>
      <point x="501" y="7"/>
      <point x="501" y="22" type="curve" smooth="yes"/>
      <point x="501" y="58" type="line" smooth="yes"/>
      <point x="501" y="73"/>
      <point x="492" y="80"/>
      <point x="474" y="80" type="curve" smooth="yes"/>
      <point x="195" y="80" type="line" smooth="yes"/>
      <point x="175" y="80"/>
      <point x="162" y="80"/>
      <point x="156" y="79" type="curve"/>
      <point x="156" y="81" type="line"/>
      <point x="184" y="99"/>
      <point x="223" y="153"/>
      <point x="223" y="242" type="curve" smooth="yes"/>
      <point x="223" y="307" type="line"/>
      <point x="363" y="307" type="line" smooth="yes"/>
      <point x="377" y="307"/>
      <point x="384" y="314"/>
      <point x="384" y="329" type="curve" smooth="yes"/>
      <point x="384" y="365" type="line" smooth="yes"/>
      <point x="384" y="380"/>
      <point x="377" y="387"/>
      <point x="362" y="387" type="curve" smooth="yes"/>
      <point x="223" y="387" type="line"/>
      <point x="223" y="505" type="line" smooth="yes"/>
      <point x="223" y="614"/>
      <point x="273" y="636"/>
      <point x="333" y="636" type="curve" smooth="yes"/>
      <point x="381" y="636"/>
      <point x="417" y="623"/>
      <point x="440" y="600" type="curve" smooth="yes"/>
      <point x="447" y="593"/>
      <point x="453" y="590"/>
      <point x="458" y="590" type="curve" smooth="yes"/>
      <point x="463" y="590"/>
      <point x="468" y="593"/>
      <point x="473" y="599" type="curve" smooth="yes"/>
      <point x="495" y="624" type="line" smooth="yes"/>
      <point x="498" y="627"/>
      <point x="499" y="630"/>
      <point x="499" y="635" type="curve" smooth="yes"/>
      <point x="499" y="674"/>
      <point x="405" y="709"/>
      <point x="337" y="709" type="curve" smooth="yes"/>
      <point x="213" y="709"/>
      <point x="137" y="652"/>
      <point x="137" y="495" type="curve" smooth="yes"/>
      <point x="137" y="387" type="line"/>
      <point x="61" y="387" type="line" smooth="yes"/>
      <point x="46" y="387"/>
      <point x="39" y="380"/>
      <point x="39" y="365" type="curve" smooth="yes"/>
      <point x="39" y="329" type="line" smooth="yes"/>
      <point x="39" y="314"/>
      <point x="46" y="307"/>
      <point x="60" y="307" type="curve" smooth="yes"/>
      <point x="137" y="307" type="line"/>
      <point x="137" y="232" type="line" smooth="yes"/>
      <point x="137" y="192"/>
      <point x="126" y="160"/>
      <point x="104" y="136" type="curve" smooth="yes"/>
      <point x="56" y="85" type="line" smooth="yes"/>
      <point x="45" y="74"/>
      <point x="39" y="62"/>
      <point x="39" y="50" type="curve" smooth="yes"/>
    </contour>
  </outline>
</glyph>
<glyph name="currency" format="1">
  <advance width="542"/>
  <unicode hex="00A4"/>
  <outline>
    <contour>
      <point x="51" y="149"/>
      <point x="53" y="145"/>
      <point x="57" y="141" type="curve" smooth="yes"/>
      <point x="75" y="125" type="line" smooth="yes"/>
      <point x="78" y="122"/>
      <point x="82" y="120"/>
      <point x="86" y="120" type="curve" smooth="yes"/>
      <point x="91" y="120"/>
      <point x="96" y="123"/>
      <point x="102" y="129" type="curve" smooth="yes"/>
      <point x="163" y="194" type="line"/>
      <point x="196" y="166"/>
      <point x="237" y="152"/>
      <point x="284" y="152" type="curve" smooth="yes"/>
      <point x="331" y="152"/>
      <point x="371" y="166"/>
      <point x="405" y="194" type="curve"/>
      <point x="465" y="129" type="line" smooth="yes"/>
      <point x="471" y="123"/>
      <point x="476" y="120"/>
      <point x="481" y="120" type="curve" smooth="yes"/>
      <point x="484" y="120"/>
      <point x="488" y="122"/>
      <point x="493" y="125" type="curve"/>
      <point x="511" y="141" type="line" smooth="yes"/>
      <point x="515" y="145"/>
      <point x="517" y="149"/>
      <point x="517" y="153" type="curve" smooth="yes"/>
      <point x="517" y="158"/>
      <point x="514" y="163"/>
      <point x="508" y="169" type="curve" smooth="yes"/>
      <point x="444" y="237" type="line"/>
      <point x="468" y="272"/>
      <point x="480" y="312"/>
      <point x="480" y="355" type="curve" smooth="yes"/>
      <point x="480" y="400"/>
      <point x="468" y="439"/>
      <point x="444" y="474" type="curve"/>
      <point x="508" y="542" type="line" smooth="yes"/>
      <point x="514" y="548"/>
      <point x="517" y="553"/>
      <point x="517" y="558" type="curve" smooth="yes"/>
      <point x="517" y="562"/>
      <point x="515" y="566"/>
      <point x="511" y="570" type="curve" smooth="yes"/>
      <point x="493" y="586" type="line"/>
      <point x="488" y="589"/>
      <point x="484" y="591"/>
      <point x="481" y="591" type="curve" smooth="yes"/>
      <point x="476" y="591"/>
      <point x="471" y="588"/>
      <point x="465" y="582" type="curve" smooth="yes"/>
      <point x="405" y="517" type="line"/>
      <point x="371" y="545"/>
      <point x="331" y="559"/>
      <point x="284" y="559" type="curve" smooth="yes"/>
      <point x="237" y="559"/>
      <point x="196" y="545"/>
      <point x="163" y="517" type="curve"/>
      <point x="102" y="582" type="line" smooth="yes"/>
      <point x="96" y="588"/>
      <point x="91" y="591"/>
      <point x="86" y="591" type="curve" smooth="yes"/>
      <point x="82" y="591"/>
      <point x="78" y="589"/>
      <point x="75" y="586" type="curve" smooth="yes"/>
      <point x="57" y="570" type="line" smooth="yes"/>
      <point x="53" y="566"/>
      <point x="51" y="562"/>
      <point x="51" y="558" type="curve" smooth="yes"/>
      <point x="51" y="554"/>
      <point x="54" y="549"/>
      <point x="59" y="542" type="curve"/>
      <point x="123" y="474" type="line"/>
      <point x="99" y="439"/>
      <point x="87" y="400"/>
      <point x="87" y="355" type="curve" smooth="yes"/>
      <point x="87" y="312"/>
      <point x="99" y="272"/>
      <point x="123" y="237" type="curve"/>
      <point x="59" y="169" type="line"/>
      <point x="54" y="162"/>
      <point x="51" y="157"/>
      <point x="51" y="153" type="curve" smooth="yes"/>
    </contour>
    <contour>
      <point x="164" y="285"/>
      <point x="152" y="318"/>
      <point x="152" y="355" type="curve" smooth="yes"/>
      <point x="152" y="431"/>
      <point x="205" y="495"/>
      <point x="284" y="495" type="curve" smooth="yes"/>
      <point x="363" y="495"/>
      <point x="416" y="427"/>
      <point x="416" y="355" type="curve" smooth="yes"/>
      <point x="416" y="284"/>
      <point x="364" y="216"/>
      <point x="284" y="216" type="curve" smooth="yes"/>
      <point x="245" y="216"/>
      <point x="213" y="230"/>
      <point x="188" y="257" type="curve"/>
    </contour>
  </outline>
</glyph>
<glyph name="yen" format="1">
  <advance width="542"/>
  <unicode hex="00A5"/>
  <outline>
    <contour>
      <point x="19" y="684"/>
      <point x="21" y="677"/>
      <point x="26" y="668" type="curve" smooth="yes"/>
      <point x="204" y="361" type="line"/>
      <point x="113" y="361" type="line" smooth="yes"/>
      <point x="98" y="361"/>
      <point x="91" y="354"/>
      <point x="91" y="339" type="curve" smooth="yes"/>
      <point x="91" y="310" type="line" smooth="yes"/>
      <point x="91" y="295"/>
      <point x="98" y="288"/>
      <point x="113" y="288" type="curve" smooth="yes"/>
      <point x="247" y="288" type="line"/>
      <point x="247" y="200" type="line"/>
      <point x="113" y="200" type="line" smooth="yes"/>
      <point x="98" y="200"/>
      <point x="91" y="193"/>
      <point x="91" y="178" type="curve" smooth="yes"/>
      <point x="91" y="149" type="line" smooth="yes"/>
      <point x="91" y="134"/>
      <point x="98" y="127"/>
      <point x="113" y="127" type="curve" smooth="yes"/>
      <point x="247" y="127" type="line"/>
      <point x="247" y="22" type="line" smooth="yes"/>
      <point x="247" y="7"/>
      <point x="254" y="0"/>
      <point x="269" y="0" type="curve" smooth="yes"/>
      <point x="311" y="0" type="line" smooth="yes"/>
      <point x="326" y="0"/>
      <point x="333" y="7"/>
      <point x="333" y="22" type="curve" smooth="yes"/>
      <point x="333" y="127" type="line"/>
      <point x="461" y="127" type="line" smooth="yes"/>
      <point x="476" y="127"/>
      <point x="483" y="134"/>
      <point x="483" y="149" type="curve" smooth="yes"/>
      <point x="483" y="178" type="line" smooth="yes"/>
      <point x="483" y="193"/>
      <point x="476" y="200"/>
      <point x="461" y="200" type="curve" smooth="yes"/>
      <point x="333" y="200" type="line"/>
      <point x="333" y="288" type="line"/>
      <point x="461" y="288" type="line" smooth="yes"/>
      <point x="476" y="288"/>
      <point x="483" y="295"/>
      <point x="483" y="310" type="curve" smooth="yes"/>
      <point x="483" y="339" type="line" smooth="yes"/>
      <point x="483" y="354"/>
      <point x="476" y="361"/>
      <point x="461" y="361" type="curve" smooth="yes"/>
      <point x="375" y="361" type="line"/>
      <point x="553" y="668" type="line" smooth="yes"/>
      <point x="558" y="677"/>
      <point x="560" y="684"/>
      <point x="560" y="687" type="curve" smooth="yes"/>
      <point x="560" y="696"/>
      <point x="553" y="700"/>
      <point x="540" y="700" type="curve" smooth="yes"/>
      <point x="495" y="700" type="line" smooth="yes"/>
      <point x="480" y="700"/>
      <point x="468" y="692"/>
      <point x="460" y="676" type="curve" smooth="yes"/>
      <point x="317" y="400" type="line"/>
      <point x="291" y="346" type="line"/>
      <point x="289" y="346" type="line"/>
      <point x="279" y="366" type="line" smooth="yes"/>
      <point x="276" y="374"/>
      <point x="269" y="386"/>
      <point x="262" y="400" type="curve" smooth="yes"/>
      <point x="252" y="419" type="line" smooth="yes"/>
      <point x="247" y="430"/>
      <point x="238" y="445"/>
      <point x="229" y="463" type="curve" smooth="yes"/>
      <point x="119" y="676" type="line" smooth="yes"/>
      <point x="111" y="692"/>
      <point x="99" y="700"/>
      <point x="84" y="700" type="curve" smooth="yes"/>
      <point x="39" y="700" type="line" smooth="yes"/>
      <point x="26" y="700"/>
      <point x="19" y="696"/>
      <point x="19" y="687" type="curve" smooth="yes"/>
    </contour>
  </outline>
</glyph>
